<?xml version="1.0" encoding="UTF-8" standalone="no"?>
<!-- Created with Inkscape (http://www.inkscape.org/) -->

<svg
   xmlns:dc="http://purl.org/dc/elements/1.1/"
   xmlns:cc="http://creativecommons.org/ns#"
   xmlns:rdf="http://www.w3.org/1999/02/22-rdf-syntax-ns#"
   xmlns:svg="http://www.w3.org/2000/svg"
   xmlns="http://www.w3.org/2000/svg"
   xmlns:sodipodi="http://sodipodi.sourceforge.net/DTD/sodipodi-0.dtd"
   xmlns:inkscape="http://www.inkscape.org/namespaces/inkscape"
   id="svg2"
   version="1.1"
   inkscape:version="0.48.4 r9939"
   width="1052.3622"
   height="744.09448"
   xml:space="preserve"
   sodipodi:docname="orthogonality1.svg"><metadata
     id="metadata8"><rdf:RDF><cc:Work
         rdf:about=""><dc:format>image/svg+xml</dc:format><dc:type
           rdf:resource="http://purl.org/dc/dcmitype/StillImage" /><dc:title /></cc:Work></rdf:RDF></metadata><defs
     id="defs6" /><sodipodi:namedview
     pagecolor="#ffffff"
     bordercolor="#666666"
     borderopacity="1"
     objecttolerance="10"
     gridtolerance="10"
     guidetolerance="10"
     inkscape:pageopacity="0"
     inkscape:pageshadow="2"
     inkscape:window-width="1535"
     inkscape:window-height="876"
     id="namedview4"
     showgrid="false"
     inkscape:zoom="0.6187799"
     inkscape:cx="685.14739"
     inkscape:cy="338.12907"
     inkscape:window-x="65"
     inkscape:window-y="24"
     inkscape:window-maximized="1"
     inkscape:current-layer="g4490"
     borderlayer="true"
     showborder="true"
     inkscape:showpageshadow="false"><inkscape:grid
       type="xygrid"
       id="grid5184"
       empspacing="5"
       visible="true"
       enabled="true"
       snapvisiblegridlinesonly="true" /></sodipodi:namedview><g
     id="g10"
     inkscape:groupmode="layer"
     inkscape:label="ink_ext_XXXXXX"
     transform="matrix(1.25,0,0,-1.25,0,744.09449)"><flowRoot
       xml:space="preserve"
       id="flowRoot5316"
       style="font-size:4px;font-style:normal;font-weight:normal;line-height:125%;letter-spacing:0px;word-spacing:0px;fill:#000000;fill-opacity:1;stroke:none;font-family:Sans"><flowRegion
         id="flowRegion5318"><rect
           id="rect5320"
           width="2.2854874"
           height="43.424259"
           x="725.64221"
           y="448.52689" /></flowRegion><flowPara
         id="flowPara5322" /></flowRoot><g
       id="g3451"
       transform="translate(0,65.6)"><path
         d="m 695.90792,224.77442 8.50922,23.39447 c -5.67282,-3.3428 -11.34564,-3.3428 -17.01845,0 l 8.50923,-23.39447"
         style="fill:#2b2929;fill-opacity:1;fill-rule:evenodd;stroke:none"
         id="path850"
         inkscape:connector-curvature="0" /><path
         inkscape:connector-curvature="0"
         id="path4842"
         style="fill:none;stroke:#2b2929;stroke-width:2.83465052;stroke-linecap:butt;stroke-linejoin:miter;stroke-miterlimit:22.92560005;stroke-opacity:1;stroke-dasharray:none"
         d="m 145.86559,299.26325 0,-119.84457" /><path
         inkscape:connector-curvature="0"
         id="path4844"
         style="fill:#2b2929;fill-opacity:1;fill-rule:evenodd;stroke:none"
         d="m 145.86559,164.36595 8.50922,23.39448 c -5.67281,-3.34282 -11.34562,-3.34282 -17.01844,0 l 8.50922,-23.39448" /><g
         transform="matrix(1.7128856,0,0,1.7128856,-80.918502,-511.95566)"
         id="g5330"><path
           inkscape:connector-curvature="0"
           id="path608"
           style="fill:#f8c7d1;fill-opacity:1;fill-rule:evenodd;stroke:none"
           d="m 65.353024,522.05092 132.900746,0 c 2.86476,0 5.20766,-2.25867 5.20766,-5.02044 l 0,-31.07857 c 0,-2.76102 -2.3429,-5.0197 -5.20766,-5.0197 l -132.900746,0 c -2.864255,0 -5.207619,2.25868 -5.207619,5.0197 l 0,31.07857 c 0,2.76177 2.343364,5.02044 5.207619,5.02044" /><path
           inkscape:connector-curvature="0"
           id="path610"
           style="fill:none;stroke:#2b2929;stroke-width:0.33097953;stroke-linecap:butt;stroke-linejoin:miter;stroke-miterlimit:22.92560005;stroke-opacity:1;stroke-dasharray:none"
           d="m 65.353024,522.05092 132.900746,0 c 2.86476,0 5.20766,-2.25867 5.20766,-5.02044 l 0,-31.07857 c 0,-2.76102 -2.3429,-5.0197 -5.20766,-5.0197 l -132.900746,0 c -2.864255,0 -5.207619,2.25868 -5.207619,5.0197 l 0,31.07857 c 0,2.76177 2.343364,5.02044 5.207619,5.02044 z" /><g
           transform="matrix(0.8,0,0,-0.8,11.2,863)"
           style="font-size:14px;font-style:normal;font-weight:normal;text-align:center;line-height:125%;letter-spacing:0px;word-spacing:0px;text-anchor:middle;fill:#000000;fill-opacity:1;stroke:none;font-family:Sans"
           id="flowRoot5274"><path
             d="m 90.602539,431.71718 1.859375,0 4.525391,8.53809 0,-8.53809 1.339843,0 0,10.20606 -1.859375,0 -4.52539,-8.53809 0,8.53809 -1.339844,0 0,-10.20606"
             style="font-family:Sans;-inkscape-font-specification:Sans"
             id="path3062" /><path
             d="m 103.9873,435.14882 c -0.67448,10e-6 -1.20768,0.26433 -1.5996,0.79297 -0.39193,0.5241 -0.5879,1.24415 -0.5879,2.16016 0,0.91602 0.19369,1.63835 0.58106,2.16699 0.39192,0.52409 0.9274,0.78614 1.60644,0.78613 0.66992,10e-6 1.20085,-0.26432 1.59278,-0.79296 0.39192,-0.52865 0.58788,-1.2487 0.58789,-2.16016 -1e-5,-0.9069 -0.19597,-1.62467 -0.58789,-2.15332 -0.39193,-0.5332 -0.92286,-0.7998 -1.59278,-0.79981 m 0,-1.0664 c 1.09375,10e-6 1.9528,0.35547 2.57715,1.0664 0.62434,0.71095 0.93652,1.69532 0.93653,2.95313 -1e-5,1.25326 -0.31219,2.23763 -0.93653,2.95312 -0.62435,0.71094 -1.4834,1.06641 -2.57715,1.06641 -1.09831,0 -1.95963,-0.35547 -2.58398,-1.06641 -0.61979,-0.71549 -0.92969,-1.69986 -0.92969,-2.95312 0,-1.25781 0.3099,-2.24218 0.92969,-2.95313 0.62435,-0.71093 1.48567,-1.06639 2.58398,-1.0664"
             style="font-family:Sans;-inkscape-font-specification:Sans"
             id="path3064" /><path
             d="m 118.91699,434.49257 0,1.18946 c -0.35547,-0.18229 -0.72461,-0.31901 -1.10742,-0.41016 -0.38282,-0.0911 -0.7793,-0.13671 -1.18945,-0.13672 -0.62436,10e-6 -1.09376,0.0957 -1.40821,0.28711 -0.30989,0.19141 -0.46484,0.47852 -0.46484,0.86133 0,0.29167 0.11165,0.52181 0.33496,0.69043 0.22331,0.16407 0.6722,0.32129 1.34668,0.47168 l 0.43067,0.0957 c 0.89322,0.19141 1.52668,0.46257 1.90039,0.81348 0.37824,0.34636 0.56737,0.83171 0.56738,1.45605 -1e-5,0.71094 -0.28256,1.27377 -0.84766,1.68848 -0.56055,0.41471 -1.33301,0.62207 -2.31738,0.62207 -0.41016,0 -0.83854,-0.041 -1.28516,-0.12305 -0.44206,-0.0775 -0.90918,-0.19596 -1.40136,-0.35547 l 0,-1.29882 c 0.46484,0.24153 0.92285,0.42383 1.37402,0.54687 0.45117,0.11849 0.89778,0.17774 1.33984,0.17774 0.59245,0 1.04818,-0.10026 1.36719,-0.30079 0.31901,-0.20507 0.47851,-0.49218 0.47852,-0.86132 -1e-5,-0.3418 -0.11622,-0.60384 -0.34864,-0.78614 -0.22787,-0.18228 -0.73145,-0.35774 -1.51074,-0.52636 l -0.4375,-0.10254 c -0.7793,-0.16406 -1.34212,-0.41471 -1.68848,-0.75196 -0.34635,-0.34179 -0.51953,-0.80891 -0.51953,-1.40136 0,-0.72005 0.25521,-1.27604 0.76563,-1.66797 0.51041,-0.39192 1.23502,-0.58788 2.17383,-0.58789 0.46484,10e-6 0.90234,0.0342 1.3125,0.10254 0.41015,0.0684 0.7884,0.1709 1.13476,0.30761"
             style="font-family:Sans;-inkscape-font-specification:Sans"
             id="path3066" /><path
             d="m 121.33691,434.26699 1.25782,0 0,7.65625 -1.25782,0 0,-7.65625 m 0,-2.98047 1.25782,0 0,1.59277 -1.25782,0 0,-1.59277"
             style="font-family:Sans;-inkscape-font-specification:Sans"
             id="path3068" /><path
             d="m 130.25781,438.00625 c 0,-0.91146 -0.18913,-1.61784 -0.56738,-2.11914 -0.3737,-0.5013 -0.90007,-0.75195 -1.5791,-0.75196 -0.67448,10e-6 -1.20085,0.25066 -1.5791,0.75196 -0.3737,0.5013 -0.56055,1.20768 -0.56055,2.11914 0,0.9069 0.18685,1.611 0.56055,2.1123 0.37825,0.5013 0.90462,0.75195 1.5791,0.75195 0.67903,0 1.2054,-0.25065 1.5791,-0.75195 0.37825,-0.5013 0.56738,-1.2054 0.56738,-2.1123 m 1.25781,2.96679 c 0,1.30339 -0.28939,2.27181 -0.86816,2.90528 -0.57878,0.63801 -1.46517,0.95702 -2.65918,0.95703 -0.44206,-1e-5 -0.85905,-0.0342 -1.25098,-0.10254 -0.39192,-0.0638 -0.77246,-0.16407 -1.1416,-0.30078 l 0,-1.22364 c 0.36914,0.20052 0.73372,0.34864 1.09375,0.44434 0.36003,0.0957 0.72689,0.14355 1.10059,0.14356 0.82486,-10e-6 1.44238,-0.21648 1.85254,-0.64942 0.41015,-0.42839 0.61523,-1.0778 0.61523,-1.94824 l 0,-0.62207 c -0.25977,0.45117 -0.59245,0.78841 -0.99804,1.01172 -0.40561,0.2233 -0.89096,0.33496 -1.45606,0.33496 -0.9388,0 -1.69531,-0.35775 -2.26953,-1.07324 -0.57422,-0.7155 -0.86133,-1.66341 -0.86133,-2.84375 0,-1.18489 0.28711,-2.13509 0.86133,-2.85059 0.57422,-0.71549 1.33073,-1.07323 2.26953,-1.07324 0.5651,10e-6 1.05045,0.11166 1.45606,0.33496 0.40559,0.22331 0.73827,0.56055 0.99804,1.01172 l 0,-1.16211 1.25781,0 0,6.70605"
             style="font-family:Sans;-inkscape-font-specification:Sans"
             id="path3070" /><path
             d="m 140.4707,437.30214 0,4.6211 -1.25781,0 0,-4.58008 c -10e-6,-0.7246 -0.14128,-1.26692 -0.42383,-1.62695 -0.28256,-0.36002 -0.70638,-0.54004 -1.27148,-0.54004 -0.67904,0 -1.21452,0.21648 -1.60645,0.64941 -0.39193,0.43295 -0.58789,1.02312 -0.58789,1.77051 l 0,4.32715 -1.26465,0 0,-7.65625 1.26465,0 0,1.18945 c 0.30078,-0.46028 0.65397,-0.80435 1.05957,-1.03223 0.41015,-0.22785 0.88183,-0.34178 1.41504,-0.34179 0.87955,10e-6 1.54492,0.27344 1.9961,0.82031 0.45116,0.54232 0.67675,1.34213 0.67675,2.39941"
             style="font-family:Sans;-inkscape-font-specification:Sans"
             id="path3072" /><path
             d="m 146.47266,438.07461 c -1.01628,0 -1.72038,0.11621 -2.11231,0.34863 -0.39193,0.23242 -0.58789,0.62891 -0.58789,1.18945 0,0.44662 0.14583,0.80209 0.4375,1.06641 0.29622,0.25976 0.69726,0.38965 1.20313,0.38965 0.69726,0 1.25552,-0.2461 1.6748,-0.73829 0.42382,-0.49674 0.63574,-1.15527 0.63574,-1.97558 l 0,-0.28027 -1.25097,0 m 2.50879,-0.51954 0,4.36817 -1.25782,0 0,-1.16211 c -0.28711,0.46484 -0.64486,0.80892 -1.07324,1.03223 -0.42839,0.21875 -0.95248,0.32812 -1.57227,0.32812 -0.78385,0 -1.4082,-0.21875 -1.87304,-0.65625 -0.46029,-0.44206 -0.69043,-1.03222 -0.69043,-1.77051 0,-0.86132 0.28711,-1.51074 0.86133,-1.94824 0.57877,-0.43749 1.4401,-0.65624 2.58398,-0.65625 l 1.76367,0 0,-0.12305 c 0,-0.57877 -0.19141,-1.02538 -0.57422,-1.33984 -0.37826,-0.319 -0.91146,-0.47851 -1.59961,-0.47852 -0.4375,10e-6 -0.86361,0.0524 -1.27832,0.15723 -0.41471,0.10482 -0.81347,0.26205 -1.19628,0.47168 l 0,-1.16211 c 0.46028,-0.17773 0.90689,-0.30989 1.33984,-0.39648 0.43294,-0.0911 0.85449,-0.13671 1.26465,-0.13672 1.10741,10e-6 1.93456,0.28711 2.48144,0.86133 0.54687,0.57422 0.82031,1.44466 0.82032,2.61132"
             style="font-family:Sans;-inkscape-font-specification:Sans"
             id="path3074" /><path
             d="m 151.5791,431.28652 1.25781,0 0,10.63672 -1.25781,0 0,-10.63672"
             style="font-family:Sans;-inkscape-font-specification:Sans"
             id="path3076" /><path
             d="m 161.13574,440.7748 0,4.06055 -1.26465,0 0,-10.56836 1.26465,0 0,1.16211 c 0.26432,-0.45572 0.597,-0.79296 0.99805,-1.01172 0.40559,-0.2233 0.88867,-0.33495 1.44922,-0.33496 0.92968,10e-6 1.68391,0.36915 2.26269,1.10742 0.58333,0.73829 0.875,1.70899 0.875,2.91211 0,1.20313 -0.29167,2.17383 -0.875,2.91211 -0.57878,0.73828 -1.33301,1.10742 -2.26269,1.10742 -0.56055,0 -1.04363,-0.10937 -1.44922,-0.32812 -0.40105,-0.22331 -0.73373,-0.56283 -0.99805,-1.01856 m 4.2793,-2.67285 c -1e-5,-0.92513 -0.19141,-1.64973 -0.57422,-2.17383 -0.37826,-0.52864 -0.90007,-0.79296 -1.56543,-0.79297 -0.66537,10e-6 -1.18946,0.26433 -1.57227,0.79297 -0.37825,0.5241 -0.56738,1.2487 -0.56738,2.17383 0,0.92513 0.18913,1.65202 0.56738,2.18066 0.38281,0.52409 0.9069,0.78614 1.57227,0.78614 0.66536,0 1.18717,-0.26205 1.56543,-0.78614 0.38281,-0.52864 0.57421,-1.25553 0.57422,-2.18066"
             style="font-family:Sans;-inkscape-font-specification:Sans"
             id="path3078" /><path
             d="m 175.35449,437.78066 0,0.61523 -5.7832,0 c 0.0547,0.86589 0.31445,1.5267 0.7793,1.98243 0.46939,0.45117 1.12109,0.67676 1.95507,0.67675 0.48307,10e-6 0.95019,-0.0592 1.40137,-0.17773 0.45572,-0.11849 0.9069,-0.29622 1.35352,-0.5332 l 0,1.18945 c -0.45118,0.19141 -0.91375,0.33724 -1.3877,0.4375 -0.47396,0.10026 -0.95476,0.15039 -1.44238,0.15039 -1.22136,0 -2.18978,-0.35547 -2.90527,-1.06641 -0.71094,-0.71093 -1.06641,-1.67252 -1.06641,-2.88476 0,-1.25325 0.33724,-2.24674 1.01172,-2.98047 0.67903,-0.73827 1.59277,-1.10741 2.74121,-1.10742 1.02994,10e-6 1.84342,0.33269 2.44043,0.99804 0.60155,0.66082 0.90233,1.56088 0.90234,2.7002 m -1.25781,-0.36914 c -0.009,-0.68815 -0.20281,-1.2373 -0.58106,-1.64746 -0.3737,-0.41015 -0.87044,-0.61523 -1.49023,-0.61524 -0.70183,10e-6 -1.26465,0.19825 -1.68848,0.59473 -0.41927,0.39649 -0.66081,0.95476 -0.72461,1.67481 l 4.48438,-0.007"
             style="font-family:Sans;-inkscape-font-specification:Sans"
             id="path3080" /><path
             d="m 178.63574,440.7748 0,4.06055 -1.26465,0 0,-10.56836 1.26465,0 0,1.16211 c 0.26432,-0.45572 0.597,-0.79296 0.99805,-1.01172 0.40559,-0.2233 0.88867,-0.33495 1.44922,-0.33496 0.92968,10e-6 1.68391,0.36915 2.26269,1.10742 0.58333,0.73829 0.875,1.70899 0.875,2.91211 0,1.20313 -0.29167,2.17383 -0.875,2.91211 -0.57878,0.73828 -1.33301,1.10742 -2.26269,1.10742 -0.56055,0 -1.04363,-0.10937 -1.44922,-0.32812 -0.40105,-0.22331 -0.73373,-0.56283 -0.99805,-1.01856 m 4.2793,-2.67285 c -1e-5,-0.92513 -0.19141,-1.64973 -0.57422,-2.17383 -0.37826,-0.52864 -0.90007,-0.79296 -1.56543,-0.79297 -0.66537,10e-6 -1.18946,0.26433 -1.57227,0.79297 -0.37825,0.5241 -0.56738,1.2487 -0.56738,2.17383 0,0.92513 0.18913,1.65202 0.56738,2.18066 0.38281,0.52409 0.9069,0.78614 1.57227,0.78614 0.66536,0 1.18717,-0.26205 1.56543,-0.78614 0.38281,-0.52864 0.57421,-1.25553 0.57422,-2.18066"
             style="font-family:Sans;-inkscape-font-specification:Sans"
             id="path3082" /><path
             d="m 187.5498,432.09316 0,2.17383 2.59082,0 0,0.97754 -2.59082,0 0,4.15625 c 0,0.62435 0.0843,1.02539 0.25293,1.20312 0.17318,0.17774 0.52181,0.2666 1.0459,0.2666 l 1.29199,0 0,1.05274 -1.29199,0 c -0.9707,0 -1.64062,-0.18001 -2.00976,-0.54004 -0.36914,-0.36458 -0.55372,-1.02539 -0.55371,-1.98242 l 0,-4.15625 -0.92286,0 0,-0.97754 0.92286,0 0,-2.17383 1.26464,0"
             style="font-family:Sans;-inkscape-font-specification:Sans"
             id="path3084" /><path
             d="m 191.80176,434.26699 1.25781,0 0,7.65625 -1.25781,0 0,-7.65625 m 0,-2.98047 1.25781,0 0,1.59277 -1.25781,0 0,-1.59277"
             style="font-family:Sans;-inkscape-font-specification:Sans"
             id="path3086" /><path
             d="m 200.72266,435.4291 0,-4.14258 1.25781,0 0,10.63672 -1.25781,0 0,-1.14844 c -0.26433,0.45573 -0.59929,0.79525 -1.00489,1.01856 -0.40104,0.21875 -0.88412,0.32812 -1.44922,0.32812 -0.92513,0 -1.67936,-0.36914 -2.26269,-1.10742 -0.57878,-0.73828 -0.86817,-1.70898 -0.86816,-2.91211 -1e-5,-1.20312 0.28938,-2.17382 0.86816,-2.91211 0.58333,-0.73827 1.33756,-1.10741 2.26269,-1.10742 0.5651,10e-6 1.04818,0.11166 1.44922,0.33496 0.4056,0.21876 0.74056,0.556 1.00489,1.01172 m -4.28614,2.67285 c 0,0.92513 0.18913,1.65202 0.56739,2.18066 0.38281,0.52409 0.90689,0.78614 1.57226,0.78614 0.66536,0 1.18945,-0.26205 1.57227,-0.78614 0.3828,-0.52864 0.57421,-1.25553 0.57422,-2.18066 -1e-5,-0.92513 -0.19142,-1.64973 -0.57422,-2.17383 -0.38282,-0.52864 -0.90691,-0.79296 -1.57227,-0.79297 -0.66537,10e-6 -1.18945,0.26433 -1.57226,0.79297 -0.37826,0.5241 -0.56739,1.2487 -0.56739,2.17383"
             style="font-family:Sans;-inkscape-font-specification:Sans"
             id="path3088" /><path
             d="m 211.12012,437.78066 0,0.61523 -5.78321,0 c 0.0547,0.86589 0.31445,1.5267 0.7793,1.98243 0.4694,0.45117 1.12109,0.67676 1.95508,0.67675 0.48307,10e-6 0.95019,-0.0592 1.40137,-0.17773 0.45572,-0.11849 0.90689,-0.29622 1.35351,-0.5332 l 0,1.18945 c -0.45118,0.19141 -0.91374,0.33724 -1.38769,0.4375 -0.47397,0.10026 -0.95476,0.15039 -1.44239,0.15039 -1.22135,0 -2.18978,-0.35547 -2.90527,-1.06641 -0.71094,-0.71093 -1.06641,-1.67252 -1.06641,-2.88476 0,-1.25325 0.33724,-2.24674 1.01172,-2.98047 0.67904,-0.73827 1.59277,-1.10741 2.74121,-1.10742 1.02995,10e-6 1.84342,0.33269 2.44043,0.99804 0.60156,0.66082 0.90234,1.56088 0.90235,2.7002 m -1.25782,-0.36914 c -0.009,-0.68815 -0.2028,-1.2373 -0.58105,-1.64746 -0.3737,-0.41015 -0.87045,-0.61523 -1.49023,-0.61524 -0.70183,10e-6 -1.26466,0.19825 -1.68848,0.59473 -0.41927,0.39649 -0.66081,0.95476 -0.72461,1.67481 l 4.48437,-0.007"
             style="font-family:Sans;-inkscape-font-specification:Sans"
             id="path3090" /></g><g
           id="g5284"
           transform="translate(6.4,0)"><path
             d="m 81.971418,494.08179 0,-4.2658 3.215964,0 c 0.22541,0 0.385472,-0.0406 0.48073,-0.1254 0.09947,-0.0811 0.145108,-0.19072 0.145108,-0.32739 0,-0.1284 -0.04564,-0.23503 -0.145108,-0.32363 -0.09526,-0.0848 -0.25532,-0.12841 -0.48073,-0.12841 l -5.421238,0 c -0.221517,0 -0.3815,0.0436 -0.476759,0.12841 -0.09947,0.0886 -0.148768,0.19523 -0.148768,0.32363 0,0.13667 0.0493,0.24629 0.148768,0.32739 0.09526,0.0848 0.255242,0.1254 0.476759,0.1254 l 1.266632,0 0,10.79854 -1.266632,0 c -0.221517,0 -0.3815,0.0406 -0.476759,0.12165 -0.09947,0.0841 -0.148768,0.19447 -0.148768,0.33039 0,0.13666 0.0493,0.24629 0.148768,0.32738 0.09526,0.0848 0.255242,0.1254 0.476759,0.1254 l 5.455898,0 c 1.289142,0 2.342436,-0.36794 3.158792,-1.10006 0.816278,-0.73136 1.224572,-1.59263 1.224572,-2.57404 0,-0.58119 -0.133501,-1.10756 -0.396689,-1.57461 -0.266848,-0.46706 -0.583857,-0.83499 -0.95749,-1.10006 -0.557141,-0.40023 -1.137025,-0.69457 -1.732176,-0.88229 -0.431116,-0.13592 -0.969018,-0.2065 -1.610046,-0.2065 l -2.937587,0 z m 0,0.90482 2.994758,0 c 0.690642,0 1.342964,0.15168 1.949642,0.44904 0.606367,0.2981 1.049089,0.66227 1.331437,1.09254 0.278687,0.43026 0.419588,0.87178 0.419588,1.31706 0,0.70959 -0.316464,1.34934 -0.95383,1.91627 -0.633161,0.56617 -1.430667,0.85301 -2.399685,0.85301 l -3.34191,0 0,-5.62792"
             style="fill:#2b2929;fill-opacity:1;fill-rule:nonzero;stroke:none"
             id="path612"
             inkscape:connector-curvature="0" /><path
             d="m 98.445274,488.91116 -1.304643,0 -4.730905,11.70337 -0.724992,0 c -0.171589,0 -0.293953,0.0143 -0.369973,0.048 -0.07244,0.033 -0.13358,0.0841 -0.183196,0.16144 -0.04962,0.0736 -0.07244,0.15469 -0.07244,0.24254 0,0.0848 0.02282,0.16595 0.07244,0.24255 0.04962,0.0736 0.110759,0.12915 0.183196,0.16218 0.07602,0.0293 0.198384,0.048 0.369973,0.048 l 3.498623,0 c 0.179456,0 0.305169,-0.0187 0.373867,-0.048 0.07244,-0.033 0.12992,-0.0886 0.179223,-0.16218 0.04962,-0.0766 0.07275,-0.1577 0.07275,-0.24255 0,-0.0879 -0.0268,-0.16894 -0.08031,-0.24254 -0.04962,-0.0774 -0.110446,-0.12839 -0.183194,-0.16144 -0.06878,-0.0337 -0.190751,-0.048 -0.36234,-0.048 l -1.80064,0 4.36062,-10.79854 0.0648,0 4.303677,10.79854 -1.78568,0 c -0.17922,0 -0.30517,0.0143 -0.381499,0.048 -0.07641,0.033 -0.137241,0.0841 -0.183195,0.16144 -0.04931,0.0736 -0.07244,0.15469 -0.07244,0.24254 0,0.0848 0.02313,0.16595 0.07641,0.24255 0.05351,0.0736 0.11442,0.12915 0.183117,0.16218 0.07244,0.0293 0.198387,0.048 0.377607,0.048 l 3.48733,0 c 0.17922,0 0.30493,-0.0187 0.37729,-0.048 0.0767,-0.033 0.13756,-0.0886 0.18717,-0.16218 0.0456,-0.0766 0.0723,-0.1577 0.0723,-0.24255 0,-0.0879 -0.0268,-0.16894 -0.08,-0.24254 -0.0533,-0.0774 -0.11442,-0.12839 -0.1832,-0.16144 -0.0723,-0.0337 -0.1944,-0.048 -0.37362,-0.048 l -0.71736,0 -4.65084,-11.70337"
             style="fill:#2b2929;fill-opacity:1;fill-rule:nonzero;stroke:none"
             id="path614"
             inkscape:connector-curvature="0" /><path
             d="m 109.44828,494.08179 0,-4.2658 3.21628,0 c 0.22516,0 0.38516,-0.0406 0.48072,-0.1254 0.0991,-0.0811 0.1448,-0.19072 0.1448,-0.32739 0,-0.1284 -0.0456,-0.23503 -0.1448,-0.32363 -0.0956,-0.0848 -0.25556,-0.12841 -0.48072,-0.12841 l -5.42117,0 c -0.22151,0 -0.38158,0.0436 -0.47707,0.12841 -0.0992,0.0886 -0.14884,0.19523 -0.14884,0.32363 0,0.13667 0.0496,0.24629 0.14884,0.32739 0.0955,0.0848 0.25556,0.1254 0.47707,0.1254 l 1.26624,0 0,10.79854 -1.26624,0 c -0.22151,0 -0.38158,0.0406 -0.47707,0.12165 -0.0992,0.0841 -0.14884,0.19447 -0.14884,0.33039 0,0.13666 0.0496,0.24629 0.14884,0.32738 0.0955,0.0848 0.25556,0.1254 0.47707,0.1254 l 5.45559,0 c 1.28937,0 2.34274,-0.36794 3.15872,-1.10006 0.81666,-0.73136 1.22495,-1.59263 1.22495,-2.57404 0,-0.58119 -0.13358,-1.10756 -0.39676,-1.57461 -0.26716,-0.46706 -0.58385,-0.83499 -0.95781,-1.10006 -0.55705,-0.40023 -1.13694,-0.69457 -1.73209,-0.88229 -0.43111,-0.13592 -0.96902,-0.2065 -1.60981,-0.2065 l -2.9379,0 z m 0,0.90482 2.99506,0 c 0.69072,0 1.34274,0.15168 1.94942,0.44904 0.60667,0.2981 1.04932,0.66227 1.33166,1.09254 0.27846,0.43026 0.4196,0.87178 0.4196,1.31706 0,0.70959 -0.3167,1.34934 -0.95384,1.91627 -0.63316,0.56617 -1.43059,0.85301 -2.39968,0.85301 l -3.34222,0 0,-5.62792"
             style="fill:#2b2929;fill-opacity:1;fill-rule:nonzero;stroke:none"
             id="path616"
             inkscape:connector-curvature="0" /><path
             d="m 125.84612,492.69189 -1.07192,0 -3.61304,7.92264 -0.17922,0 0,-10.79854 1.73575,0 c 0.22122,0 0.38158,-0.0406 0.48074,-0.1254 0.0953,-0.0811 0.14487,-0.19072 0.14487,-0.32739 0,-0.1284 -0.0496,-0.23503 -0.14487,-0.32363 -0.0991,-0.0848 -0.25952,-0.12841 -0.48074,-0.12841 l -3.46816,0 c -0.22121,0 -0.3815,0.0436 -0.48073,0.12841 -0.0952,0.0886 -0.1448,0.19523 -0.1448,0.32363 0,0.13667 0.0497,0.24629 0.1448,0.32739 0.0992,0.0848 0.25952,0.1254 0.48073,0.1254 l 0.79384,0 0,10.79854 -0.59149,0 c -0.2212,0 -0.38157,0.0406 -0.48072,0.12165 -0.0956,0.0841 -0.14511,0.19447 -0.14511,0.33039 0,0.13666 0.0496,0.24629 0.14511,0.32738 0.0991,0.0848 0.25952,0.1254 0.48072,0.1254 l 2.30444,0 3.55181,-7.80099 3.49831,7.80099 2.30443,0 c 0.22915,0 0.39311,-0.0406 0.49234,-0.1254 0.0955,-0.081 0.14479,-0.19072 0.14479,-0.32738 0,-0.13592 -0.0494,-0.2463 -0.14479,-0.33039 -0.0992,-0.0811 -0.26319,-0.12165 -0.49234,-0.12165 l -0.58354,0 0,-10.79854 0.78589,0 c 0.22876,0 0.39312,-0.0406 0.48829,-0.1254 0.0992,-0.0811 0.14885,-0.19072 0.14885,-0.32739 0,-0.1284 -0.0497,-0.23503 -0.14885,-0.32363 -0.0952,-0.0848 -0.25953,-0.12841 -0.48829,-0.12841 l -3.45632,0 c -0.22152,0 -0.38547,0.0436 -0.4847,0.12841 -0.1031,0.0886 -0.15275,0.19523 -0.15275,0.32363 0,0.13667 0.0497,0.24629 0.14519,0.32739 0.0991,0.0848 0.26319,0.1254 0.49226,0.1254 l 1.73179,0 0,10.79854 -0.19838,0 -3.54419,-7.92264"
             style="fill:#2b2929;fill-opacity:1;fill-rule:nonzero;stroke:none"
             id="path618"
             inkscape:connector-curvature="0" /><path
             d="m 136.92553,494.08179 0,-4.2658 3.21596,0 c 0.22509,0 0.38556,-0.0406 0.48058,-0.1254 0.0996,-0.0811 0.14487,-0.19072 0.14487,-0.32739 0,-0.1284 -0.0452,-0.23503 -0.14487,-0.32363 -0.0951,-0.0848 -0.25549,-0.12841 -0.48058,-0.12841 l -5.42124,0 c -0.2212,0 -0.3815,0.0436 -0.47675,0.12841 -0.0995,0.0886 -0.14878,0.19523 -0.14878,0.32363 0,0.13667 0.0493,0.24629 0.14878,0.32739 0.0953,0.0848 0.25555,0.1254 0.47675,0.1254 l 1.26664,0 0,10.79854 -1.26664,0 c -0.2212,0 -0.3815,0.0406 -0.47675,0.12165 -0.0995,0.0841 -0.14878,0.19447 -0.14878,0.33039 0,0.13666 0.0493,0.24629 0.14878,0.32738 0.0953,0.0848 0.25555,0.1254 0.47675,0.1254 l 5.45629,0 c 1.28906,0 2.34213,-0.36794 3.1584,-1.10006 0.81628,-0.73136 1.22442,-1.59263 1.22442,-2.57404 0,-0.58119 -0.1332,-1.10756 -0.39645,-1.57461 -0.26716,-0.46706 -0.58417,-0.83499 -0.95727,-1.10006 -0.55768,-0.40023 -1.13717,-0.69457 -1.73225,-0.88229 -0.43151,-0.13592 -0.96894,-0.2065 -1.60997,-0.2065 l -2.93789,0 z m 0,0.90482 2.99476,0 c 0.69087,0 1.34281,0.15168 1.94955,0.44904 0.60676,0.2981 1.04917,0.66227 1.33191,1.09254 0.27806,0.43026 0.41904,0.87178 0.41904,1.31706 0,0.70959 -0.31622,1.34934 -0.95336,1.91627 -0.63323,0.56617 -1.43082,0.85301 -2.39976,0.85301 l -3.34214,0 0,-5.62792"
             style="fill:#2b2929;fill-opacity:1;fill-rule:nonzero;stroke:none"
             id="path620"
             inkscape:connector-curvature="0" /><path
             d="m 149.01929,489.81599 0,10.79854 -0.79291,0 c -0.2251,0 -0.38556,0.0406 -0.48135,0.12165 -0.0951,0.0841 -0.1441,0.19447 -0.1441,0.33039 0,0.13666 0.049,0.24629 0.1441,0.32738 0.0958,0.0848 0.25625,0.1254 0.48135,0.1254 l 5.05111,0 c 0.78979,0 1.51104,-0.15844 2.16298,-0.47456 0.6527,-0.31612 1.14808,-0.67655 1.49157,-1.07753 0.58806,-0.68405 1.03826,-1.40566 1.34359,-2.16631 0.21341,-0.55191 0.32401,-1.20668 0.32401,-1.96057 l 0,-1.25024 c 0,-0.92734 -0.2134,-1.82466 -0.63712,-2.69269 -0.42761,-0.87177 -1.1333,-1.62943 -2.12482,-2.2767 -0.73683,-0.47455 -1.59128,-0.70959 -2.56021,-0.70959 l -5.05111,0 c -0.2251,0 -0.38556,0.0436 -0.48135,0.12841 -0.0951,0.0886 -0.1441,0.19523 -0.1441,0.32363 0,0.13667 0.049,0.24629 0.1441,0.32739 0.0958,0.0848 0.25625,0.1254 0.48135,0.1254 l 0.79291,0 z m 0.93856,0 3.41077,0 c 0.78979,0 1.52662,0.24629 2.21672,0.74263 0.69088,0.49633 1.20962,1.09255 1.55311,1.78411 0.34738,0.69458 0.52263,1.37939 0.52263,2.05218 l 0,1.64069 c 0,0.55867 -0.0958,1.05876 -0.28273,1.49652 -0.26716,0.64051 -0.64804,1.24724 -1.1364,1.82016 -0.27106,0.31688 -0.66362,0.60372 -1.18704,0.86878 -0.52185,0.26057 -1.08343,0.39347 -1.68629,0.39347 l -3.41077,0 0,-10.79854"
             style="fill:#2b2929;fill-opacity:1;fill-rule:nonzero;stroke:none"
             id="path622"
             inkscape:connector-curvature="0" /><path
             d="m 164.81442,500.61453 0,-10.79854 6.23813,0 0,3.60051 c 0,0.21325 0.0459,0.36794 0.1332,0.4633 0.0881,0.0917 0.2064,0.14042 0.34738,0.14042 0.13319,0 0.2438,-0.0488 0.33571,-0.13666 0.0872,-0.0879 0.13318,-0.2463 0.13318,-0.46706 l 0,-4.50534 -10.37326,0 c -0.22511,0 -0.38478,0.0436 -0.48058,0.12841 -0.0951,0.0886 -0.14487,0.19523 -0.14487,0.32363 0,0.13667 0.0499,0.24629 0.14487,0.32739 0.0958,0.0848 0.25547,0.1254 0.48058,0.1254 l 2.23541,0 0,10.79854 -2.23541,0 c -0.22511,0 -0.38478,0.0406 -0.48058,0.12165 -0.0951,0.0841 -0.14487,0.19447 -0.14487,0.33039 0,0.13666 0.0499,0.24629 0.14487,0.32738 0.0958,0.0848 0.25547,0.1254 0.48058,0.1254 l 5.42107,0 c 0.22588,0 0.38556,-0.0406 0.48137,-0.1254 0.0951,-0.081 0.14487,-0.19072 0.14487,-0.32738 0,-0.13592 -0.0499,-0.2463 -0.14487,-0.33039 -0.0958,-0.0811 -0.25549,-0.12165 -0.48137,-0.12165 l -2.23541,0"
             style="fill:#2b2929;fill-opacity:1;fill-rule:nonzero;stroke:none"
             id="path624"
             inkscape:connector-curvature="0" /><path
             d="m 177.13336,493.84676 0,-4.03077 1.73225,0 c 0.23289,0 0.39724,-0.0406 0.49303,-0.1254 0.0951,-0.0811 0.14489,-0.19072 0.14489,-0.32739 0,-0.1284 -0.0499,-0.23503 -0.14489,-0.32363 -0.0958,-0.0848 -0.26014,-0.12841 -0.49303,-0.12841 l -3.93262,0 c -0.22588,0 -0.38555,0.0436 -0.48135,0.12841 -0.0989,0.0886 -0.14488,0.19523 -0.14488,0.32363 0,0.13667 0.0459,0.24629 0.14488,0.32739 0.0958,0.0848 0.25547,0.1254 0.48135,0.1254 l 1.26259,0 0,10.79854 -1.26259,0 c -0.22588,0 -0.38555,0.0406 -0.48135,0.12165 -0.0989,0.0841 -0.14488,0.19447 -0.14488,0.33039 0,0.13666 0.0459,0.24629 0.14488,0.32738 0.0958,0.0848 0.25547,0.1254 0.48135,0.1254 l 3.93262,0 c 0.23289,0 0.39724,-0.0406 0.49303,-0.1254 0.0951,-0.081 0.14489,-0.19072 0.14489,-0.32738 0,-0.13592 -0.0499,-0.2463 -0.14489,-0.33039 -0.0958,-0.0811 -0.26014,-0.12165 -0.49303,-0.12165 l -1.73225,0 0,-5.57235 6.4827,5.57235 -1.02657,0 c -0.23289,0 -0.39645,0.0406 -0.49226,0.12165 -0.0989,0.0841 -0.14488,0.19447 -0.14488,0.33039 0,0.13666 0.0459,0.24629 0.14488,0.32738 0.0958,0.0848 0.25937,0.1254 0.49226,0.1254 l 2.75805,0 c 0.2251,0 0.38555,-0.0406 0.48136,-0.1254 0.0989,-0.081 0.14487,-0.19072 0.14487,-0.32738 0,-0.13592 -0.0459,-0.2463 -0.14487,-0.33039 -0.0958,-0.0811 -0.25626,-0.12165 -0.48136,-0.12165 l -0.37698,0 -5.16639,-4.45052 c 0.76721,-0.30185 1.40435,-0.68031 1.9114,-1.13309 0.50784,-0.45204 0.99621,-1.09555 1.4651,-1.92678 0.26716,-0.46781 0.75941,-1.56336 1.47677,-3.28815 l 1.17146,0 c 0.23211,0 0.39645,-0.0406 0.49225,-0.1254 0.0989,-0.0811 0.14488,-0.19072 0.14488,-0.32739 0,-0.1284 -0.0459,-0.23503 -0.14488,-0.32363 -0.0958,-0.0848 -0.26014,-0.12841 -0.49225,-0.12841 l -1.80859,0 c -0.98451,2.59283 -1.8117,4.26281 -2.48388,5.00544 -0.6714,0.74262 -1.50715,1.26524 -2.51427,1.5671 l -1.8888,-1.63694"
             style="fill:#2b2929;fill-opacity:1;fill-rule:nonzero;stroke:none"
             id="path626"
             inkscape:connector-curvature="0" /><path
             inkscape:connector-curvature="0"
             id="path5282"
             style="fill:#2b2929;fill-opacity:1;fill-rule:nonzero;stroke:none"
             d="m 71.44612,492.69189 -1.07192,0 -3.61304,7.92264 -0.17922,0 0,-10.79854 1.73575,0 c 0.22122,0 0.38158,-0.0406 0.48074,-0.1254 0.0953,-0.0811 0.14487,-0.19072 0.14487,-0.32739 0,-0.1284 -0.0496,-0.23503 -0.14487,-0.32363 -0.0991,-0.0848 -0.25952,-0.12841 -0.48074,-0.12841 l -3.46816,0 c -0.22121,0 -0.3815,0.0436 -0.48073,0.12841 -0.0952,0.0886 -0.1448,0.19523 -0.1448,0.32363 0,0.13667 0.0497,0.24629 0.1448,0.32739 0.0992,0.0848 0.25952,0.1254 0.48073,0.1254 l 0.79384,0 0,10.79854 -0.59149,0 c -0.2212,0 -0.38157,0.0406 -0.48072,0.12165 -0.0956,0.0841 -0.14511,0.19447 -0.14511,0.33039 0,0.13666 0.0496,0.24629 0.14511,0.32738 0.0991,0.0848 0.25952,0.1254 0.48072,0.1254 l 2.30444,0 3.55181,-7.80099 3.49831,7.80099 2.30443,0 c 0.22915,0 0.39311,-0.0406 0.49234,-0.1254 0.0955,-0.081 0.14479,-0.19072 0.14479,-0.32738 0,-0.13592 -0.0494,-0.2463 -0.14479,-0.33039 -0.0992,-0.0811 -0.26319,-0.12165 -0.49234,-0.12165 l -0.58354,0 0,-10.79854 0.78589,0 c 0.22876,0 0.39312,-0.0406 0.48829,-0.1254 0.0992,-0.0811 0.14885,-0.19072 0.14885,-0.32739 0,-0.1284 -0.0497,-0.23503 -0.14885,-0.32363 -0.0952,-0.0848 -0.25953,-0.12841 -0.48829,-0.12841 l -3.45632,0 c -0.22152,0 -0.38547,0.0436 -0.4847,0.12841 -0.1031,0.0886 -0.15275,0.19523 -0.15275,0.32363 0,0.13667 0.0497,0.24629 0.14519,0.32739 0.0991,0.0848 0.26319,0.1254 0.49226,0.1254 l 1.73179,0 0,10.79854 -0.19838,0 -3.54419,-7.92264" /></g></g><g
         transform="matrix(1.7128856,0,0,1.7128856,117.35942,-511.95566)"
         id="g5348"><path
           inkscape:connector-curvature="0"
           id="path604"
           style="fill:#bde3fa;fill-opacity:1;fill-rule:evenodd;stroke:none"
           d="m 271.3114,522.05092 132.90139,0 c 2.86398,0 5.20689,-2.25867 5.20689,-5.02044 l 0,-31.07857 c 0,-2.76102 -2.34291,-5.0197 -5.20689,-5.0197 l -132.90139,0 c -2.86398,0 -5.20767,2.25868 -5.20767,5.0197 l 0,31.07857 c 0,2.76177 2.34369,5.02044 5.20767,5.02044" /><path
           inkscape:connector-curvature="0"
           id="path606"
           style="fill:none;stroke:#2b2929;stroke-width:0.33097953;stroke-linecap:butt;stroke-linejoin:miter;stroke-miterlimit:22.92560005;stroke-opacity:1;stroke-dasharray:none"
           d="m 271.3114,522.05092 132.90139,0 c 2.86398,0 5.20689,-2.25867 5.20689,-5.02044 l 0,-31.07857 c 0,-2.76102 -2.34291,-5.0197 -5.20689,-5.0197 l -132.90139,0 c -2.86398,0 -5.20767,2.25868 -5.20767,5.0197 l 0,31.07857 c 0,2.76177 2.34369,5.02044 5.20767,5.02044 z" /><g
           id="g5297"
           transform="translate(6.4,0)"><path
             d="m 287.70472,494.99788 0,-5.18189 3.21994,0 c 0.22121,0 0.38166,-0.0406 0.48057,-0.1254 0.0958,-0.0811 0.14565,-0.19072 0.14565,-0.32739 0,-0.1284 -0.0499,-0.23503 -0.14565,-0.32363 -0.0989,-0.0848 -0.25936,-0.12841 -0.48057,-0.12841 l -5.42109,0 c -0.22509,0 -0.38554,0.0436 -0.48056,0.12841 -0.0958,0.0886 -0.14566,0.19523 -0.14566,0.32363 0,0.13667 0.0499,0.24629 0.14566,0.32739 0.0951,0.0848 0.25547,0.1254 0.48056,0.1254 l 1.26259,0 0,10.79854 -1.26259,0 c -0.22509,0 -0.38554,0.0406 -0.48056,0.12165 -0.0958,0.0841 -0.14566,0.19447 -0.14566,0.33039 0,0.13666 0.0537,0.25079 0.16824,0.3424 0.0802,0.0736 0.23289,0.11038 0.45798,0.11038 l 10.339,0 0,-3.11544 c 0,-0.21701 -0.0459,-0.37169 -0.13318,-0.46329 -0.0919,-0.0924 -0.20252,-0.13967 -0.33648,-0.13967 -0.14098,0 -0.25938,0.0473 -0.34662,0.13967 -0.088,0.0916 -0.13396,0.24628 -0.13396,0.46329 l 0,2.21062 -7.18761,0 0,-4.71183 3.36481,0 0,1.02646 c 0,0.21325 0.0459,0.36794 0.13397,0.4633 0.0872,0.0916 0.20563,0.13966 0.34738,0.13966 0.1332,0 0.2438,-0.048 0.33493,-0.13966 0.088,-0.0953 0.13396,-0.25005 0.13396,-0.4633 l 0,-2.95325 c 0,-0.21775 -0.0459,-0.37168 -0.13396,-0.46405 -0.0911,-0.0916 -0.20173,-0.13966 -0.33493,-0.13966 -0.14175,0 -0.26014,0.048 -0.34738,0.13966 -0.088,0.0924 -0.13397,0.2463 -0.13397,0.46405 l 0,1.02197 -3.36481,0"
             style="fill:#2b2929;fill-opacity:1;fill-rule:nonzero;stroke:none"
             id="path628"
             inkscape:connector-curvature="0" /><path
             d="m 304.32781,492.69189 -1.07253,0 -3.6125,7.92264 -0.17915,0 0,-10.79854 1.73538,0 c 0.22121,0 0.38166,-0.0406 0.48057,-0.1254 0.0958,-0.0811 0.14565,-0.19072 0.14565,-0.32739 0,-0.1284 -0.0499,-0.23503 -0.14565,-0.32363 -0.0989,-0.0848 -0.25936,-0.12841 -0.48057,-0.12841 l -3.46841,0 c -0.2212,0 -0.38087,0.0436 -0.47979,0.12841 -0.0958,0.0886 -0.14487,0.19523 -0.14487,0.32363 0,0.13667 0.049,0.24629 0.14487,0.32739 0.0989,0.0848 0.25859,0.1254 0.47979,0.1254 l 0.79448,0 0,10.79854 -0.59196,0 c -0.22121,0 -0.38166,0.0406 -0.48058,0.12165 -0.0951,0.0841 -0.14487,0.19447 -0.14487,0.33039 0,0.13666 0.0499,0.24629 0.14487,0.32738 0.0989,0.0848 0.25937,0.1254 0.48058,0.1254 l 2.30474,0 3.55174,-7.80099 3.49878,7.80099 2.30395,0 c 0.229,0 0.39334,-0.0406 0.49227,-0.1254 0.0958,-0.081 0.14487,-0.19072 0.14487,-0.32738 0,-0.13592 -0.049,-0.2463 -0.14487,-0.33039 -0.0989,-0.0811 -0.26327,-0.12165 -0.49227,-0.12165 l -0.58338,0 0,-10.79854 0.7859,0 c 0.22899,0 0.39256,-0.0406 0.48836,-0.1254 0.0989,-0.0811 0.14877,-0.19072 0.14877,-0.32739 0,-0.1284 -0.0499,-0.23503 -0.14877,-0.32363 -0.0958,-0.0848 -0.25937,-0.12841 -0.48836,-0.12841 l -3.45672,0 c -0.22121,0 -0.38477,0.0436 -0.48447,0.12841 -0.10278,0.0886 -0.15266,0.19523 -0.15266,0.32363 0,0.13667 0.0499,0.24629 0.14487,0.32739 0.0989,0.0848 0.26327,0.1254 0.49226,0.1254 l 1.73225,0 0,10.79854 -0.19861,0 -3.54396,-7.92264"
             style="fill:#2b2929;fill-opacity:1;fill-rule:nonzero;stroke:none"
             id="path630"
             inkscape:connector-curvature="0" /><path
             d="m 318.14222,488.91116 -1.30464,0 -4.73098,11.70337 -0.72438,0 c -0.17212,0 -0.29441,0.0143 -0.36996,0.048 -0.0724,0.033 -0.13398,0.0841 -0.18383,0.16144 -0.049,0.0736 -0.0724,0.15469 -0.0724,0.24254 0,0.0848 0.0234,0.16595 0.0724,0.24255 0.0499,0.0736 0.11139,0.12915 0.18383,0.16218 0.0755,0.0293 0.19784,0.048 0.36996,0.048 l 3.49801,0 c 0.17915,0 0.30533,-0.0187 0.37387,-0.048 0.0724,-0.033 0.13007,-0.0886 0.17914,-0.16218 0.0499,-0.0766 0.0732,-0.1577 0.0732,-0.24255 0,-0.0879 -0.0272,-0.16894 -0.0802,-0.24254 -0.0499,-0.0774 -0.1106,-0.12839 -0.18304,-0.16144 -0.0693,-0.0337 -0.19082,-0.048 -0.36296,-0.048 l -1.80002,0 4.36023,-10.79854 0.0647,0 4.30414,10.79854 -1.786,0 c -0.17914,0 -0.30532,0.0143 -0.38165,0.048 -0.0763,0.033 -0.13709,0.0841 -0.18304,0.16144 -0.0499,0.0736 -0.0724,0.15469 -0.0724,0.24254 0,0.0848 0.0225,0.16595 0.0763,0.24255 0.0537,0.0736 0.11449,0.12915 0.18303,0.16218 0.0724,0.0293 0.19862,0.048 0.37776,0.048 l 3.4871,0 c 0.17915,0 0.30532,-0.0187 0.37776,-0.048 0.0763,-0.033 0.13709,-0.0886 0.18694,-0.16218 0.0459,-0.0766 0.0724,-0.1577 0.0724,-0.24255 0,-0.0879 -0.0265,-0.16894 -0.0802,-0.24254 -0.053,-0.0774 -0.1145,-0.12839 -0.18304,-0.16144 -0.0724,-0.0337 -0.19472,-0.048 -0.37387,-0.048 l -0.71736,0 -4.65076,-11.70337"
             style="fill:#2b2929;fill-opacity:1;fill-rule:nonzero;stroke:none"
             id="path632"
             inkscape:connector-curvature="0" /><path
             d="m 329.55765,500.61453 0,-10.79854 6.23735,0 0,3.60051 c 0,0.21325 0.0459,0.36794 0.13398,0.4633 0.0872,0.0917 0.20562,0.14042 0.3466,0.14042 0.13398,0 0.24458,-0.0488 0.33648,-0.13666 0.0872,-0.0879 0.1332,-0.2463 0.1332,-0.46706 l 0,-4.50534 -10.37327,0 c -0.22511,0 -0.38556,0.0436 -0.48058,0.12841 -0.0958,0.0886 -0.14487,0.19523 -0.14487,0.32363 0,0.13667 0.0491,0.24629 0.14487,0.32739 0.0951,0.0848 0.25547,0.1254 0.48058,0.1254 l 2.23541,0 0,10.79854 -2.23541,0 c -0.22511,0 -0.38556,0.0406 -0.48058,0.12165 -0.0958,0.0841 -0.14487,0.19447 -0.14487,0.33039 0,0.13666 0.0491,0.24629 0.14487,0.32738 0.0951,0.0848 0.25547,0.1254 0.48058,0.1254 l 5.42108,0 c 0.22509,0 0.38554,-0.0406 0.48135,-0.1254 0.0951,-0.081 0.14488,-0.19072 0.14488,-0.32738 0,-0.13592 -0.0499,-0.2463 -0.14488,-0.33039 -0.0958,-0.0811 -0.25626,-0.12165 -0.48135,-0.12165 l -2.23542,0"
             style="fill:#2b2929;fill-opacity:1;fill-rule:nonzero;stroke:none"
             id="path634"
             inkscape:connector-curvature="0" /><path
             d="m 343.29573,500.61453 0,-10.79854 6.23814,0 0,3.60051 c 0,0.21325 0.0459,0.36794 0.13319,0.4633 0.0881,0.0917 0.2064,0.14042 0.34738,0.14042 0.13398,0 0.2438,-0.0488 0.33571,-0.13666 0.088,-0.0879 0.13396,-0.2463 0.13396,-0.46706 l 0,-4.50534 -10.37326,0 c -0.22588,0 -0.38556,0.0436 -0.48136,0.12841 -0.0951,0.0886 -0.14487,0.19523 -0.14487,0.32363 0,0.13667 0.0499,0.24629 0.14487,0.32739 0.0958,0.0848 0.25548,0.1254 0.48136,0.1254 l 2.23541,0 0,10.79854 -2.23541,0 c -0.22588,0 -0.38556,0.0406 -0.48136,0.12165 -0.0951,0.0841 -0.14487,0.19447 -0.14487,0.33039 0,0.13666 0.0499,0.24629 0.14487,0.32738 0.0958,0.0848 0.25548,0.1254 0.48136,0.1254 l 5.42108,0 c 0.22509,0 0.38554,-0.0406 0.48057,-0.1254 0.0958,-0.081 0.14488,-0.19072 0.14488,-0.32738 0,-0.13592 -0.049,-0.2463 -0.14488,-0.33039 -0.0951,-0.0811 -0.25548,-0.12165 -0.48057,-0.12165 l -2.2362,0"
             style="fill:#2b2929;fill-opacity:1;fill-rule:nonzero;stroke:none"
             id="path636"
             inkscape:connector-curvature="0" /><path
             d="m 354.97831,489.81599 0,10.79854 -0.79369,0 c -0.2251,0 -0.38555,0.0406 -0.48057,0.12165 -0.0958,0.0841 -0.14488,0.19447 -0.14488,0.33039 0,0.13666 0.0491,0.24629 0.14488,0.32738 0.0951,0.0848 0.25547,0.1254 0.48057,0.1254 l 5.05111,0 c 0.78979,0 1.51105,-0.15844 2.16376,-0.47456 0.65194,-0.31612 1.14808,-0.67655 1.49158,-1.07753 0.58728,-0.68405 1.03749,-1.40566 1.34281,-2.16631 0.21341,-0.55191 0.32402,-1.20668 0.32402,-1.96057 l 0,-1.25024 c 0,-0.92734 -0.21342,-1.82466 -0.63714,-2.69269 -0.42683,-0.87177 -1.13328,-1.62943 -2.12482,-2.2767 -0.73605,-0.47455 -1.59127,-0.70959 -2.56021,-0.70959 l -5.05111,0 c -0.2251,0 -0.38555,0.0436 -0.48057,0.12841 -0.0958,0.0886 -0.14488,0.19523 -0.14488,0.32363 0,0.13667 0.0491,0.24629 0.14488,0.32739 0.0951,0.0848 0.25547,0.1254 0.48057,0.1254 l 0.79369,0 z m 0.93779,0 3.41154,0 c 0.7898,0 1.52585,0.24629 2.21595,0.74263 0.69087,0.49633 1.21039,1.09255 1.55311,1.78411 0.34738,0.69458 0.52263,1.37939 0.52263,2.05218 l 0,1.64069 c 0,0.55867 -0.0951,1.05876 -0.28195,1.49652 -0.26716,0.64051 -0.64883,1.24724 -1.13719,1.82016 -0.27105,0.31688 -0.66361,0.60372 -1.18625,0.86878 -0.52263,0.26057 -1.08344,0.39347 -1.6863,0.39347 l -3.41154,0 0,-10.79854"
             style="fill:#2b2929;fill-opacity:1;fill-rule:nonzero;stroke:none"
             id="path638"
             inkscape:connector-curvature="0" /><path
             d="m 369.35353,493.84676 0,-4.03077 1.73225,0 c 0.23288,0 0.39724,-0.0406 0.49226,-0.1254 0.0958,-0.0811 0.14487,-0.19072 0.14487,-0.32739 0,-0.1284 -0.049,-0.23503 -0.14487,-0.32363 -0.0951,-0.0848 -0.25938,-0.12841 -0.49226,-0.12841 l -3.9334,0 c -0.2251,0 -0.38477,0.0436 -0.48057,0.12841 -0.0997,0.0886 -0.14488,0.19523 -0.14488,0.32363 0,0.13667 0.0452,0.24629 0.14488,0.32739 0.0958,0.0848 0.25547,0.1254 0.48057,0.1254 l 1.26336,0 0,10.79854 -1.26336,0 c -0.2251,0 -0.38477,0.0406 -0.48057,0.12165 -0.0997,0.0841 -0.14488,0.19447 -0.14488,0.33039 0,0.13666 0.0452,0.24629 0.14488,0.32738 0.0958,0.0848 0.25547,0.1254 0.48057,0.1254 l 3.9334,0 c 0.23288,0 0.39724,-0.0406 0.49226,-0.1254 0.0958,-0.081 0.14487,-0.19072 0.14487,-0.32738 0,-0.13592 -0.049,-0.2463 -0.14487,-0.33039 -0.0951,-0.0811 -0.25938,-0.12165 -0.49226,-0.12165 l -1.73225,0 0,-5.57235 6.48271,5.57235 -1.02658,0 c -0.23289,0 -0.39724,0.0406 -0.49226,0.12165 -0.0989,0.0841 -0.14487,0.19447 -0.14487,0.33039 0,0.13666 0.0459,0.24629 0.14487,0.32738 0.0951,0.0848 0.25937,0.1254 0.49226,0.1254 l 2.75883,0 c 0.22432,0 0.38477,-0.0406 0.47979,-0.1254 0.0997,-0.081 0.14566,-0.19072 0.14566,-0.32738 0,-0.13592 -0.0459,-0.2463 -0.14566,-0.33039 -0.0951,-0.0811 -0.25547,-0.12165 -0.47979,-0.12165 l -0.37855,0 -5.16559,-4.45052 c 0.7672,-0.30185 1.40433,-0.68031 1.9114,-1.13309 0.50783,-0.45204 0.99619,-1.09555 1.46509,-1.92678 0.26716,-0.46781 0.75941,-1.56336 1.47677,-3.28815 l 1.17067,0 c 0.23289,0 0.39724,-0.0406 0.49227,-0.1254 0.0997,-0.0811 0.14565,-0.19072 0.14565,-0.32739 0,-0.1284 -0.0459,-0.23503 -0.14565,-0.32363 -0.0951,-0.0848 -0.25938,-0.12841 -0.49227,-0.12841 l -1.80858,0 c -0.98373,2.59283 -1.8117,4.26281 -2.4831,5.00544 -0.67141,0.74262 -1.50716,1.26524 -2.51426,1.5671 l -1.88881,-1.63694"
             style="fill:#2b2929;fill-opacity:1;fill-rule:nonzero;stroke:none"
             id="path640"
             inkscape:connector-curvature="0" /><path
             d="m 386.83495,488.91116 -1.30463,0 -4.73099,11.70337 -0.72437,0 c -0.17214,0 -0.29442,0.0143 -0.36997,0.048 -0.0724,0.033 -0.13397,0.0841 -0.18382,0.16144 -0.049,0.0736 -0.0724,0.15469 -0.0724,0.24254 0,0.0848 0.0234,0.16595 0.0724,0.24255 0.0499,0.0736 0.11138,0.12915 0.18382,0.16218 0.0755,0.0293 0.19783,0.048 0.36997,0.048 l 3.498,0 c 0.17914,0 0.30532,-0.0187 0.37387,-0.048 0.0724,-0.033 0.13007,-0.0886 0.17914,-0.16218 0.0499,-0.0766 0.0733,-0.1577 0.0733,-0.24255 0,-0.0879 -0.0272,-0.16894 -0.0802,-0.24254 -0.0499,-0.0774 -0.1106,-0.12839 -0.18303,-0.16144 -0.0693,-0.0337 -0.19083,-0.048 -0.36297,-0.048 l -1.80079,0 4.361,-10.79854 0.0646,0 4.30337,10.79854 -1.78522,0 c -0.17913,0 -0.30532,0.0143 -0.38165,0.048 -0.0763,0.033 -0.13708,0.0841 -0.18304,0.16144 -0.0499,0.0736 -0.0724,0.15469 -0.0724,0.24254 0,0.0848 0.0226,0.16595 0.0763,0.24255 0.053,0.0736 0.1145,0.12915 0.18304,0.16218 0.0724,0.0293 0.19862,0.048 0.37776,0.048 l 3.4871,0 c 0.17914,0 0.30532,-0.0187 0.37776,-0.048 0.0763,-0.033 0.13709,-0.0886 0.18694,-0.16218 0.0459,-0.0766 0.0724,-0.1577 0.0724,-0.24255 0,-0.0879 -0.0265,-0.16894 -0.0802,-0.24254 -0.0537,-0.0774 -0.11449,-0.12839 -0.18303,-0.16144 -0.0724,-0.0337 -0.19473,-0.048 -0.37387,-0.048 l -0.71736,0 -4.65076,-11.70337"
             style="fill:#2b2929;fill-opacity:1;fill-rule:nonzero;stroke:none"
             id="path642"
             inkscape:connector-curvature="0" /><path
             inkscape:connector-curvature="0"
             id="path5295"
             style="fill:#2b2929;fill-opacity:1;fill-rule:nonzero;stroke:none"
             d="m 277.12781,492.69189 -1.07253,0 -3.6125,7.92264 -0.17915,0 0,-10.79854 1.73538,0 c 0.22121,0 0.38166,-0.0406 0.48057,-0.1254 0.0958,-0.0811 0.14565,-0.19072 0.14565,-0.32739 0,-0.1284 -0.0499,-0.23503 -0.14565,-0.32363 -0.0989,-0.0848 -0.25936,-0.12841 -0.48057,-0.12841 l -3.46841,0 c -0.2212,0 -0.38087,0.0436 -0.47979,0.12841 -0.0958,0.0886 -0.14487,0.19523 -0.14487,0.32363 0,0.13667 0.049,0.24629 0.14487,0.32739 0.0989,0.0848 0.25859,0.1254 0.47979,0.1254 l 0.79448,0 0,10.79854 -0.59196,0 c -0.22121,0 -0.38166,0.0406 -0.48058,0.12165 -0.0951,0.0841 -0.14487,0.19447 -0.14487,0.33039 0,0.13666 0.0499,0.24629 0.14487,0.32738 0.0989,0.0848 0.25937,0.1254 0.48058,0.1254 l 2.30474,0 3.55174,-7.80099 3.49878,7.80099 2.30395,0 c 0.229,0 0.39334,-0.0406 0.49227,-0.1254 0.0958,-0.081 0.14487,-0.19072 0.14487,-0.32738 0,-0.13592 -0.049,-0.2463 -0.14487,-0.33039 -0.0989,-0.0811 -0.26327,-0.12165 -0.49227,-0.12165 l -0.58338,0 0,-10.79854 0.7859,0 c 0.22899,0 0.39256,-0.0406 0.48836,-0.1254 0.0989,-0.0811 0.14877,-0.19072 0.14877,-0.32739 0,-0.1284 -0.0499,-0.23503 -0.14877,-0.32363 -0.0958,-0.0848 -0.25937,-0.12841 -0.48836,-0.12841 l -3.45672,0 c -0.22121,0 -0.38477,0.0436 -0.48447,0.12841 -0.10278,0.0886 -0.15266,0.19523 -0.15266,0.32363 0,0.13667 0.0499,0.24629 0.14487,0.32739 0.0989,0.0848 0.26327,0.1254 0.49226,0.1254 l 1.73225,0 0,10.79854 -0.19861,0 -3.54396,-7.92264" /></g><g
           transform="matrix(0.8,0,0,-0.8,217.6,863)"
           style="font-size:14px;font-style:normal;font-weight:normal;text-align:center;line-height:125%;letter-spacing:0px;word-spacing:0px;text-anchor:middle;fill:#000000;fill-opacity:1;stroke:none;font-family:Sans"
           id="flowRoot5308"><path
             d="m 107.67188,432.05214 0,1.34668 c -0.5241,-0.25064 -1.01857,-0.43749 -1.4834,-0.56054 -0.46485,-0.12304 -0.91375,-0.18456 -1.34668,-0.18457 -0.75196,1e-5 -1.33301,0.14584 -1.74317,0.4375 -0.4056,0.29167 -0.6084,0.70639 -0.6084,1.24414 0,0.45118 0.13444,0.79297 0.40332,1.02539 0.27344,0.22787 0.78841,0.41244 1.54493,0.55371 l 0.83398,0.1709 c 1.02994,0.19597 1.78873,0.54232 2.27637,1.03906 0.49218,0.49219 0.73827,1.153 0.73828,1.98242 -1e-5,0.98894 -0.33269,1.73861 -0.99805,2.24903 -0.66081,0.51041 -1.63151,0.76562 -2.91211,0.76562 -0.48307,0 -0.99805,-0.0547 -1.54492,-0.16406 -0.54232,-0.10938 -1.10514,-0.27116 -1.68848,-0.48535 l 0,-1.42188 c 0.56055,0.31446 1.1097,0.55143 1.64747,0.71094 0.53775,0.15951 1.0664,0.23926 1.58593,0.23926 0.78841,0 1.39681,-0.15495 1.8252,-0.46485 0.42838,-0.30989 0.64257,-0.75195 0.64258,-1.32617 -1e-5,-0.5013 -0.15496,-0.89322 -0.46485,-1.17578 -0.30534,-0.28255 -0.80892,-0.49446 -1.51074,-0.63574 l -0.84082,-0.16406 c -1.02995,-0.20508 -1.77507,-0.52637 -2.23535,-0.96387 -0.46029,-0.4375 -0.69043,-1.04589 -0.69043,-1.8252 0,-0.90233 0.31673,-1.61327 0.95019,-2.13281 0.63802,-0.51952 1.5153,-0.77929 2.63184,-0.7793 0.47851,1e-5 0.96614,0.0433 1.46289,0.12989 0.49674,0.0866 1.00488,0.21648 1.52442,0.38964"
             style=""
             id="path3093" /><path
             d="m 110.38574,434.26699 1.25781,0 0,7.65625 -1.25781,0 0,-7.65625 m 0,-2.98047 1.25781,0 0,1.59277 -1.25781,0 0,-1.59277"
             style=""
             id="path3095" /><path
             d="m 119.30664,438.00625 c -1e-5,-0.91146 -0.18913,-1.61784 -0.56738,-2.11914 -0.37371,-0.5013 -0.90007,-0.75195 -1.5791,-0.75196 -0.67449,10e-6 -1.20085,0.25066 -1.57911,0.75196 -0.3737,0.5013 -0.56054,1.20768 -0.56054,2.11914 0,0.9069 0.18684,1.611 0.56054,2.1123 0.37826,0.5013 0.90462,0.75195 1.57911,0.75195 0.67903,0 1.20539,-0.25065 1.5791,-0.75195 0.37825,-0.5013 0.56737,-1.2054 0.56738,-2.1123 m 1.25781,2.96679 c 0,1.30339 -0.28939,2.27181 -0.86816,2.90528 -0.57878,0.63801 -1.46518,0.95702 -2.65918,0.95703 -0.44206,-1e-5 -0.85905,-0.0342 -1.25098,-0.10254 -0.39193,-0.0638 -0.77246,-0.16407 -1.1416,-0.30078 l 0,-1.22364 c 0.36914,0.20052 0.73372,0.34864 1.09375,0.44434 0.36002,0.0957 0.72689,0.14355 1.10059,0.14356 0.82486,-10e-6 1.44237,-0.21648 1.85254,-0.64942 0.41015,-0.42839 0.61522,-1.0778 0.61523,-1.94824 l 0,-0.62207 c -0.25977,0.45117 -0.59245,0.78841 -0.99805,1.01172 -0.4056,0.2233 -0.89095,0.33496 -1.45605,0.33496 -0.93881,0 -1.69532,-0.35775 -2.26953,-1.07324 -0.57422,-0.7155 -0.86133,-1.66341 -0.86133,-2.84375 0,-1.18489 0.28711,-2.13509 0.86133,-2.85059 0.57421,-0.71549 1.33072,-1.07323 2.26953,-1.07324 0.5651,10e-6 1.05045,0.11166 1.45605,0.33496 0.4056,0.22331 0.73828,0.56055 0.99805,1.01172 l 0,-1.16211 1.25781,0 0,6.70605"
             style=""
             id="path3097" /><path
             d="m 129.51953,437.30214 0,4.6211 -1.25781,0 0,-4.58008 c -1e-5,-0.7246 -0.14128,-1.26692 -0.42383,-1.62695 -0.28256,-0.36002 -0.70638,-0.54004 -1.27148,-0.54004 -0.67904,0 -1.21453,0.21648 -1.60645,0.64941 -0.39193,0.43295 -0.58789,1.02312 -0.58789,1.77051 l 0,4.32715 -1.26465,0 0,-7.65625 1.26465,0 0,1.18945 c 0.30078,-0.46028 0.65397,-0.80435 1.05957,-1.03223 0.41015,-0.22785 0.88183,-0.34178 1.41504,-0.34179 0.87955,10e-6 1.54492,0.27344 1.99609,0.82031 0.45117,0.54232 0.67675,1.34213 0.67676,2.39941"
             style=""
             id="path3099" /><path
             d="m 135.52148,438.07461 c -1.01628,0 -1.72038,0.11621 -2.1123,0.34863 -0.39193,0.23242 -0.58789,0.62891 -0.58789,1.18945 0,0.44662 0.14583,0.80209 0.4375,1.06641 0.29622,0.25976 0.69726,0.38965 1.20312,0.38965 0.69727,0 1.25553,-0.2461 1.67481,-0.73829 0.42382,-0.49674 0.63573,-1.15527 0.63574,-1.97558 l 0,-0.28027 -1.25098,0 m 2.50879,-0.51954 0,4.36817 -1.25781,0 0,-1.16211 c -0.28711,0.46484 -0.64486,0.80892 -1.07324,1.03223 -0.42839,0.21875 -0.95248,0.32812 -1.57227,0.32812 -0.78385,0 -1.4082,-0.21875 -1.87304,-0.65625 -0.46029,-0.44206 -0.69043,-1.03222 -0.69043,-1.77051 0,-0.86132 0.2871,-1.51074 0.86132,-1.94824 0.57878,-0.43749 1.44011,-0.65624 2.58399,-0.65625 l 1.76367,0 0,-0.12305 c -1e-5,-0.57877 -0.19141,-1.02538 -0.57422,-1.33984 -0.37826,-0.319 -0.91146,-0.47851 -1.59961,-0.47852 -0.4375,10e-6 -0.86361,0.0524 -1.27832,0.15723 -0.41471,0.10482 -0.81348,0.26205 -1.19629,0.47168 l 0,-1.16211 c 0.46029,-0.17773 0.9069,-0.30989 1.33985,-0.39648 0.43294,-0.0911 0.85449,-0.13671 1.26465,-0.13672 1.10741,10e-6 1.93456,0.28711 2.48144,0.86133 0.54687,0.57422 0.82031,1.44466 0.82031,2.61132"
             style=""
             id="path3101" /><path
             d="m 140.62793,431.28652 1.25781,0 0,10.63672 -1.25781,0 0,-10.63672"
             style=""
             id="path3103" /><path
             d="m 150.18457,440.7748 0,4.06055 -1.26465,0 0,-10.56836 1.26465,0 0,1.16211 c 0.26432,-0.45572 0.597,-0.79296 0.99805,-1.01172 0.40559,-0.2233 0.88866,-0.33495 1.44922,-0.33496 0.92968,10e-6 1.68391,0.36915 2.26269,1.10742 0.58333,0.73829 0.87499,1.70899 0.875,2.91211 -1e-5,1.20313 -0.29167,2.17383 -0.875,2.91211 -0.57878,0.73828 -1.33301,1.10742 -2.26269,1.10742 -0.56056,0 -1.04363,-0.10937 -1.44922,-0.32812 -0.40105,-0.22331 -0.73373,-0.56283 -0.99805,-1.01856 m 4.2793,-2.67285 c -10e-6,-0.92513 -0.19142,-1.64973 -0.57422,-2.17383 -0.37826,-0.52864 -0.90007,-0.79296 -1.56543,-0.79297 -0.66537,10e-6 -1.18946,0.26433 -1.57227,0.79297 -0.37825,0.5241 -0.56738,1.2487 -0.56738,2.17383 0,0.92513 0.18913,1.65202 0.56738,2.18066 0.38281,0.52409 0.9069,0.78614 1.57227,0.78614 0.66536,0 1.18717,-0.26205 1.56543,-0.78614 0.3828,-0.52864 0.57421,-1.25553 0.57422,-2.18066"
             style=""
             id="path3105" /><path
             d="m 164.40332,437.78066 0,0.61523 -5.7832,0 c 0.0547,0.86589 0.31445,1.5267 0.77929,1.98243 0.4694,0.45117 1.12109,0.67676 1.95508,0.67675 0.48307,10e-6 0.95019,-0.0592 1.40137,-0.17773 0.45572,-0.11849 0.90689,-0.29622 1.35351,-0.5332 l 0,1.18945 c -0.45117,0.19141 -0.91374,0.33724 -1.38769,0.4375 -0.47396,0.10026 -0.95476,0.15039 -1.44238,0.15039 -1.22136,0 -2.18978,-0.35547 -2.90528,-1.06641 -0.71094,-0.71093 -1.0664,-1.67252 -1.0664,-2.88476 0,-1.25325 0.33724,-2.24674 1.01172,-2.98047 0.67903,-0.73827 1.59277,-1.10741 2.74121,-1.10742 1.02994,10e-6 1.84341,0.33269 2.44043,0.99804 0.60155,0.66082 0.90233,1.56088 0.90234,2.7002 m -1.25781,-0.36914 c -0.009,-0.68815 -0.20281,-1.2373 -0.58106,-1.64746 -0.3737,-0.41015 -0.87044,-0.61523 -1.49023,-0.61524 -0.70183,10e-6 -1.26465,0.19825 -1.68848,0.59473 -0.41927,0.39649 -0.66081,0.95476 -0.72461,1.67481 l 4.48438,-0.007"
             style=""
             id="path3107" /><path
             d="m 167.68457,440.7748 0,4.06055 -1.26465,0 0,-10.56836 1.26465,0 0,1.16211 c 0.26432,-0.45572 0.597,-0.79296 0.99805,-1.01172 0.40559,-0.2233 0.88866,-0.33495 1.44922,-0.33496 0.92968,10e-6 1.68391,0.36915 2.26269,1.10742 0.58333,0.73829 0.87499,1.70899 0.875,2.91211 -1e-5,1.20313 -0.29167,2.17383 -0.875,2.91211 -0.57878,0.73828 -1.33301,1.10742 -2.26269,1.10742 -0.56056,0 -1.04363,-0.10937 -1.44922,-0.32812 -0.40105,-0.22331 -0.73373,-0.56283 -0.99805,-1.01856 m 4.2793,-2.67285 c -10e-6,-0.92513 -0.19142,-1.64973 -0.57422,-2.17383 -0.37826,-0.52864 -0.90007,-0.79296 -1.56543,-0.79297 -0.66537,10e-6 -1.18946,0.26433 -1.57227,0.79297 -0.37825,0.5241 -0.56738,1.2487 -0.56738,2.17383 0,0.92513 0.18913,1.65202 0.56738,2.18066 0.38281,0.52409 0.9069,0.78614 1.57227,0.78614 0.66536,0 1.18717,-0.26205 1.56543,-0.78614 0.3828,-0.52864 0.57421,-1.25553 0.57422,-2.18066"
             style=""
             id="path3109" /><path
             d="m 176.59863,432.09316 0,2.17383 2.59082,0 0,0.97754 -2.59082,0 0,4.15625 c 0,0.62435 0.0843,1.02539 0.25293,1.20312 0.17318,0.17774 0.52181,0.2666 1.0459,0.2666 l 1.29199,0 0,1.05274 -1.29199,0 c -0.97071,0 -1.64063,-0.18001 -2.00976,-0.54004 -0.36915,-0.36458 -0.55372,-1.02539 -0.55372,-1.98242 l 0,-4.15625 -0.92285,0 0,-0.97754 0.92285,0 0,-2.17383 1.26465,0"
             style=""
             id="path3111" /><path
             d="m 180.85059,434.26699 1.25781,0 0,7.65625 -1.25781,0 0,-7.65625 m 0,-2.98047 1.25781,0 0,1.59277 -1.25781,0 0,-1.59277"
             style=""
             id="path3113" /><path
             d="m 189.77148,435.4291 0,-4.14258 1.25782,0 0,10.63672 -1.25782,0 0,-1.14844 c -0.26432,0.45573 -0.59929,0.79525 -1.00488,1.01856 -0.40105,0.21875 -0.88412,0.32812 -1.44922,0.32812 -0.92513,0 -1.67936,-0.36914 -2.26269,-1.10742 -0.57878,-0.73828 -0.86817,-1.70898 -0.86817,-2.91211 0,-1.20312 0.28939,-2.17382 0.86817,-2.91211 0.58333,-0.73827 1.33756,-1.10741 2.26269,-1.10742 0.5651,10e-6 1.04817,0.11166 1.44922,0.33496 0.40559,0.21876 0.74056,0.556 1.00488,1.01172 m -4.28613,2.67285 c 0,0.92513 0.18913,1.65202 0.56738,2.18066 0.38281,0.52409 0.9069,0.78614 1.57227,0.78614 0.66536,0 1.18945,-0.26205 1.57227,-0.78614 0.3828,-0.52864 0.57421,-1.25553 0.57421,-2.18066 0,-0.92513 -0.19141,-1.64973 -0.57421,-2.17383 -0.38282,-0.52864 -0.90691,-0.79296 -1.57227,-0.79297 -0.66537,10e-6 -1.18946,0.26433 -1.57227,0.79297 -0.37825,0.5241 -0.56738,1.2487 -0.56738,2.17383"
             style=""
             id="path3115" /><path
             d="m 200.16895,437.78066 0,0.61523 -5.78321,0 c 0.0547,0.86589 0.31445,1.5267 0.7793,1.98243 0.4694,0.45117 1.12109,0.67676 1.95508,0.67675 0.48306,10e-6 0.95019,-0.0592 1.40136,-0.17773 0.45573,-0.11849 0.9069,-0.29622 1.35352,-0.5332 l 0,1.18945 c -0.45118,0.19141 -0.91374,0.33724 -1.3877,0.4375 -0.47396,0.10026 -0.95475,0.15039 -1.44238,0.15039 -1.22136,0 -2.18978,-0.35547 -2.90527,-1.06641 -0.71094,-0.71093 -1.06641,-1.67252 -1.06641,-2.88476 0,-1.25325 0.33724,-2.24674 1.01172,-2.98047 0.67903,-0.73827 1.59277,-1.10741 2.74121,-1.10742 1.02994,10e-6 1.84342,0.33269 2.44043,0.99804 0.60156,0.66082 0.90234,1.56088 0.90235,2.7002 m -1.25782,-0.36914 c -0.009,-0.68815 -0.2028,-1.2373 -0.58105,-1.64746 -0.37371,-0.41015 -0.87045,-0.61523 -1.49024,-0.61524 -0.70182,10e-6 -1.26465,0.19825 -1.68847,0.59473 -0.41928,0.39649 -0.66081,0.95476 -0.72461,1.67481 l 4.48437,-0.007"
             style=""
             id="path3117" /></g></g><g
         transform="matrix(2.3467407,0,0,2.117769,-127.82221,-63.279654)"
         id="g4490"><path
           inkscape:connector-curvature="0"
           id="path600"
           style="fill:#bfdec2;fill-opacity:1;fill-rule:evenodd;stroke:#000000;stroke-width:0.44856787;stroke-opacity:1"
           d="m 87.370932,101.47471 295.289728,0 c 7.35615,0 13.37342,-3.049379 13.37342,-6.776252 l 0,-26.460501 c 0,-3.727065 -6.01727,-6.776181 -13.37342,-6.776181 l -295.289728,0 c -7.355376,0 -13.37341,3.049116 -13.37341,6.776181 l 0,26.460501 c 0,3.726873 6.018034,6.776252 13.37341,6.776252" /><g
           transform="matrix(0.8,0,0,-0.8,0,863)"
           style="font-size:4px;font-style:normal;font-weight:normal;text-align:center;line-height:125%;letter-spacing:0px;word-spacing:0px;text-anchor:middle;fill:#000000;fill-opacity:1;stroke:none;font-family:Sans"
           id="flowRoot3700"><path
             d="m 193.7832,971.29045 0,2.08008 c -0.66407,-0.61848 -1.37371,-1.08072 -2.1289,-1.38672 -0.74871,-0.30598 -1.54624,-0.45897 -2.39258,-0.45898 -1.66667,1e-5 -2.94272,0.51108 -3.82813,1.5332 -0.88542,1.01564 -1.32812,2.48699 -1.32812,4.41406 0,1.92058 0.4427,3.39193 1.32812,4.41407 0.88541,1.01562 2.16146,1.52343 3.82813,1.52343 0.84634,0 1.64387,-0.15299 2.39258,-0.45898 0.75519,-0.30599 1.46483,-0.76823 2.1289,-1.38672 l 0,2.06055 c -0.69011,0.46875 -1.42253,0.82031 -2.19726,1.05468 -0.76824,0.23438 -1.58204,0.35157 -2.44141,0.35157 -2.20704,0 -3.94532,-0.67383 -5.21484,-2.02149 -1.26954,-1.35416 -1.9043,-3.19986 -1.9043,-5.53711 0,-2.34374 0.63476,-4.18944 1.9043,-5.53711 1.26952,-1.35415 3.0078,-2.03123 5.21484,-2.03125 0.87239,2e-5 1.6927,0.11721 2.46094,0.35157 0.77473,0.22787 1.50064,0.57293 2.17773,1.03515"
             style="font-size:20px"
             id="path3120" /><path
             d="m 196.77148,969.55217 1.79688,0 0,15.19531 -1.79688,0 0,-15.19531"
             style="font-size:20px"
             id="path3122" /><path
             d="m 207.28906,979.24944 c -1.45183,0 -2.45768,0.16602 -3.01758,0.49804 -0.55989,0.33204 -0.83984,0.89844 -0.83984,1.69922 0,0.63803 0.20833,1.14584 0.625,1.52344 0.42317,0.37109 0.99609,0.55664 1.71875,0.55664 0.99609,0 1.79361,-0.35156 2.39258,-1.05469 0.60546,-0.70963 0.90819,-1.65038 0.9082,-2.82226 l 0,-0.40039 -1.78711,0 m 3.58399,-0.74219 0,6.24023 -1.79688,0 0,-1.66015 c -0.41016,0.66406 -0.92123,1.1556 -1.5332,1.47461 -0.61199,0.3125 -1.36068,0.46875 -2.2461,0.46875 -1.11979,0 -2.01172,-0.3125 -2.67578,-0.9375 -0.65755,-0.63151 -0.98633,-1.47461 -0.98632,-2.5293 -1e-5,-1.23046 0.41015,-2.1582 1.23046,-2.7832 0.82682,-0.625 2.05729,-0.9375 3.69141,-0.9375 l 2.51953,0 0,-0.17578 c -1e-5,-0.82682 -0.27344,-1.46484 -0.82031,-1.91407 -0.54037,-0.45572 -1.30209,-0.68358 -2.28516,-0.68359 -0.625,10e-6 -1.23373,0.0749 -1.82617,0.22461 -0.59245,0.14975 -1.16211,0.37436 -1.70898,0.67383 l 0,-1.66016 c 0.65755,-0.2539 1.29557,-0.4427 1.91406,-0.56641 0.61848,-0.13019 1.2207,-0.1953 1.80664,-0.19531 1.58202,1e-5 2.76366,0.41017 3.54492,1.23047 0.78124,0.82032 1.17187,2.06381 1.17188,3.73047"
             style="font-size:20px"
             id="path3124" /><path
             d="m 221.55664,974.13225 0,1.69922 c -0.50782,-0.26041 -1.03516,-0.45572 -1.58203,-0.58594 -0.54688,-0.1302 -1.11329,-0.1953 -1.69922,-0.19531 -0.89193,1e-5 -1.5625,0.13673 -2.01172,0.41015 -0.44271,0.27345 -0.66406,0.68361 -0.66406,1.23047 0,0.41668 0.1595,0.74545 0.47851,0.98633 0.31901,0.23438 0.96029,0.45899 1.92383,0.67383 l 0.61524,0.13672 c 1.27603,0.27344 2.18098,0.66081 2.71484,1.16211 0.54036,0.49479 0.81054,1.18815 0.81055,2.08008 -1e-5,1.01562 -0.40366,1.81966 -1.21094,2.4121 -0.80079,0.59245 -1.9043,0.88868 -3.31055,0.88868 -0.58594,0 -1.19792,-0.0586 -1.83593,-0.17578 -0.63152,-0.11068 -1.29883,-0.27995 -2.00196,-0.50782 l 0,-1.85547 c 0.66406,0.34506 1.31836,0.60547 1.96289,0.78125 0.64453,0.16928 1.28255,0.25391 1.91407,0.25391 0.84634,0 1.49739,-0.14323 1.95312,-0.42969 0.45572,-0.29296 0.68359,-0.70312 0.68359,-1.23047 0,-0.48827 -0.16602,-0.86262 -0.49804,-1.12304 -0.32553,-0.26042 -1.04493,-0.51107 -2.15821,-0.75196 l -0.625,-0.14648 c -1.11328,-0.23437 -1.91732,-0.59244 -2.4121,-1.07422 -0.4948,-0.48827 -0.74219,-1.15559 -0.74219,-2.00195 0,-1.02864 0.36458,-1.82291 1.09375,-2.38281 0.72916,-0.55989 1.76432,-0.83984 3.10547,-0.83985 0.66405,1e-5 1.28905,0.0488 1.875,0.14649 0.58593,0.0977 1.12629,0.24415 1.62109,0.43945"
             style="font-size:20px"
             id="path3126" /><path
             d="m 231.98633,974.13225 0,1.69922 c -0.50782,-0.26041 -1.03517,-0.45572 -1.58203,-0.58594 -0.54688,-0.1302 -1.11329,-0.1953 -1.69922,-0.19531 -0.89193,1e-5 -1.56251,0.13673 -2.01172,0.41015 -0.44271,0.27345 -0.66407,0.68361 -0.66406,1.23047 -1e-5,0.41668 0.1595,0.74545 0.47851,0.98633 0.31901,0.23438 0.96028,0.45899 1.92383,0.67383 l 0.61523,0.13672 c 1.27604,0.27344 2.18099,0.66081 2.71485,1.16211 0.54035,0.49479 0.81054,1.18815 0.81055,2.08008 -1e-5,1.01562 -0.40366,1.81966 -1.21094,2.4121 -0.80079,0.59245 -1.90431,0.88868 -3.31055,0.88868 -0.58594,0 -1.19792,-0.0586 -1.83594,-0.17578 -0.63151,-0.11068 -1.29883,-0.27995 -2.00195,-0.50782 l 0,-1.85547 c 0.66406,0.34506 1.31836,0.60547 1.96289,0.78125 0.64453,0.16928 1.28255,0.25391 1.91406,0.25391 0.84635,0 1.49739,-0.14323 1.95313,-0.42969 0.45572,-0.29296 0.68358,-0.70312 0.68359,-1.23047 -1e-5,-0.48827 -0.16602,-0.86262 -0.49804,-1.12304 -0.32553,-0.26042 -1.04493,-0.51107 -2.15821,-0.75196 l -0.625,-0.14648 c -1.11328,-0.23437 -1.91732,-0.59244 -2.41211,-1.07422 -0.49479,-0.48827 -0.74219,-1.15559 -0.74218,-2.00195 -1e-5,-1.02864 0.36458,-1.82291 1.09375,-2.38281 0.72916,-0.55989 1.76431,-0.83984 3.10546,-0.83985 0.66406,1e-5 1.28906,0.0488 1.875,0.14649 0.58593,0.0977 1.1263,0.24415 1.6211,0.43945"
             style="font-size:20px"
             id="path3128" /><path
             d="m 235.44336,973.80998 1.79687,0 0,10.9375 -1.79687,0 0,-10.9375 m 0,-4.25781 1.79687,0 0,2.27539 -1.79687,0 0,-2.27539"
             style="font-size:20px"
             id="path3130" /><path
             d="m 249.82812,973.80998 0,10.9375 -1.80664,0 0,-9.54101 -4.93164,0 0,9.54101 -1.80664,0 0,-9.54101 -1.71875,0 0,-1.39649 1.71875,0 0,-0.76172 c 0,-1.19139 0.27995,-2.07029 0.83985,-2.63671 0.5664,-0.57291 1.43228,-0.85936 2.59765,-0.85938 l 1.80664,0 0,1.49414 -1.71875,0 c -0.64453,2e-5 -1.09375,0.13022 -1.34765,0.39063 -0.2474,0.26043 -0.3711,0.72918 -0.3711,1.40625 l 0,0.96679 6.73828,0 m -1.80664,-4.23828 1.80664,0 0,2.27539 -1.80664,0 0,-2.27539"
             style="font-size:20px"
             id="path3132" /><path
             d="m 261.47852,974.22991 0,1.67968 c -0.50783,-0.27994 -1.01889,-0.48827 -1.53321,-0.625 -0.50782,-0.14322 -1.02214,-0.21483 -1.54297,-0.21484 -1.16537,10e-6 -2.07031,0.3711 -2.71484,1.11328 -0.64453,0.73569 -0.9668,1.77084 -0.9668,3.10547 0,1.33464 0.32227,2.37305 0.9668,3.11523 0.64453,0.73568 1.54947,1.10352 2.71484,1.10352 0.52083,0 1.03515,-0.0684 1.54297,-0.20508 0.51432,-0.14323 1.02538,-0.35482 1.53321,-0.63476 l 0,1.66015 c -0.50132,0.23438 -1.02215,0.41016 -1.5625,0.52735 -0.53387,0.11718 -1.10353,0.17578 -1.70899,0.17578 -1.64714,0 -2.95573,-0.51758 -3.92578,-1.55274 -0.97005,-1.03515 -1.45508,-2.43163 -1.45508,-4.18945 0,-1.78385 0.48828,-3.18684 1.46485,-4.20899 0.98306,-1.02212 2.32746,-1.53319 4.0332,-1.5332 0.55338,1e-5 1.09374,0.0586 1.62109,0.17578 0.52734,0.11069 1.0384,0.27996 1.53321,0.50782"
             style="font-size:20px"
             id="path3134" /><path
             d="m 269.59375,979.24944 c -1.45183,0 -2.45769,0.16602 -3.01758,0.49804 -0.5599,0.33204 -0.83984,0.89844 -0.83984,1.69922 0,0.63803 0.20833,1.14584 0.625,1.52344 0.42317,0.37109 0.99609,0.55664 1.71875,0.55664 0.99609,0 1.79361,-0.35156 2.39258,-1.05469 0.60546,-0.70963 0.90819,-1.65038 0.9082,-2.82226 l 0,-0.40039 -1.78711,0 m 3.58398,-0.74219 0,6.24023 -1.79687,0 0,-1.66015 c -0.41017,0.66406 -0.92123,1.1556 -1.5332,1.47461 -0.61199,0.3125 -1.36069,0.46875 -2.2461,0.46875 -1.11979,0 -2.01172,-0.3125 -2.67578,-0.9375 -0.65755,-0.63151 -0.98633,-1.47461 -0.98633,-2.5293 0,-1.23046 0.41016,-2.1582 1.23047,-2.7832 0.82682,-0.625 2.05729,-0.9375 3.69141,-0.9375 l 2.51953,0 0,-0.17578 c -10e-6,-0.82682 -0.27345,-1.46484 -0.82031,-1.91407 -0.54037,-0.45572 -1.30209,-0.68358 -2.28516,-0.68359 -0.625,10e-6 -1.23373,0.0749 -1.82617,0.22461 -0.59245,0.14975 -1.16211,0.37436 -1.70899,0.67383 l 0,-1.66016 c 0.65755,-0.2539 1.29557,-0.4427 1.91407,-0.56641 0.61848,-0.13019 1.22069,-0.1953 1.80664,-0.19531 1.58202,1e-5 2.76366,0.41017 3.54492,1.23047 0.78124,0.82032 1.17186,2.06381 1.17187,3.73047"
             style="font-size:20px"
             id="path3136" /><path
             d="m 278.66602,970.70451 0,3.10547 3.70117,0 0,1.39649 -3.70117,0 0,5.9375 c -10e-6,0.89193 0.12043,1.46484 0.36132,1.71875 0.2474,0.25391 0.74544,0.38086 1.49414,0.38086 l 1.84571,0 0,1.5039 -1.84571,0 c -1.38672,0 -2.34375,-0.25716 -2.87109,-0.77148 -0.52735,-0.52083 -0.79102,-1.46484 -0.79102,-2.83203 l 0,-5.9375 -1.31835,0 0,-1.39649 1.31835,0 0,-3.10547 1.80665,0"
             style="font-size:20px"
             id="path3138" /><path
             d="m 284.74023,973.80998 1.79688,0 0,10.9375 -1.79688,0 0,-10.9375 m 0,-4.25781 1.79688,0 0,2.27539 -1.79688,0 0,-2.27539"
             style="font-size:20px"
             id="path3140" /><path
             d="m 294.52539,975.06975 c -0.96355,10e-6 -1.72526,0.37761 -2.28516,1.13281 -0.55989,0.74871 -0.83984,1.77735 -0.83984,3.08594 0,1.3086 0.27669,2.3405 0.83008,3.0957 0.55989,0.7487 1.32486,1.12305 2.29492,1.12305 0.95702,0 1.71549,-0.3776 2.27539,-1.13281 0.55989,-0.75521 0.83984,-1.78385 0.83984,-3.08594 0,-1.29557 -0.27995,-2.32096 -0.83984,-3.07617 -0.5599,-0.76171 -1.31837,-1.14257 -2.27539,-1.14258 m 0,-1.52344 c 1.56249,1e-5 2.78971,0.50782 3.68164,1.52344 0.89192,1.01563 1.33788,2.42188 1.33789,4.21875 -10e-6,1.79037 -0.44597,3.19662 -1.33789,4.21875 -0.89193,1.01562 -2.11915,1.52344 -3.68164,1.52344 -1.56901,0 -2.79948,-0.50782 -3.69141,-1.52344 -0.88541,-1.02213 -1.32812,-2.42838 -1.32812,-4.21875 0,-1.79687 0.44271,-3.20312 1.32812,-4.21875 0.89193,-1.01562 2.1224,-1.52343 3.69141,-1.52344"
             style="font-size:20px"
             id="path3142" /><path
             d="m 311.60547,978.14592 0,6.60156 -1.79688,0 0,-6.54297 c -10e-6,-1.03514 -0.20183,-1.80988 -0.60547,-2.32421 -0.40365,-0.51432 -1.00912,-0.77148 -1.8164,-0.77149 -0.97006,1e-5 -1.73503,0.30926 -2.29492,0.92774 -0.5599,0.61849 -0.83985,1.46159 -0.83985,2.52929 l 0,6.18164 -1.80664,0 0,-10.9375 1.80664,0 0,1.69922 c 0.42969,-0.65754 0.93424,-1.14908 1.51367,-1.47461 0.58594,-0.32551 1.25976,-0.48827 2.02149,-0.48828 1.2565,1e-5 2.20702,0.39064 2.85156,1.17188 0.64452,0.77475 0.96679,1.91732 0.9668,3.42773"
             style="font-size:20px"
             id="path3144" /><path
             d="m 326.54687,979.24944 c -1.45182,0 -2.45768,0.16602 -3.01757,0.49804 -0.5599,0.33204 -0.83985,0.89844 -0.83985,1.69922 0,0.63803 0.20833,1.14584 0.625,1.52344 0.42318,0.37109 0.99609,0.55664 1.71875,0.55664 0.99609,0 1.79362,-0.35156 2.39258,-1.05469 0.60546,-0.70963 0.9082,-1.65038 0.9082,-2.82226 l 0,-0.40039 -1.78711,0 m 3.58399,-0.74219 0,6.24023 -1.79688,0 0,-1.66015 c -0.41016,0.66406 -0.92123,1.1556 -1.5332,1.47461 -0.61198,0.3125 -1.36068,0.46875 -2.24609,0.46875 -1.1198,0 -2.01172,-0.3125 -2.67578,-0.9375 -0.65756,-0.63151 -0.98633,-1.47461 -0.98633,-2.5293 0,-1.23046 0.41015,-2.1582 1.23047,-2.7832 0.82682,-0.625 2.05728,-0.9375 3.6914,-0.9375 l 2.51953,0 0,-0.17578 c 0,-0.82682 -0.27344,-1.46484 -0.82031,-1.91407 -0.54037,-0.45572 -1.30209,-0.68358 -2.28515,-0.68359 -0.62501,10e-6 -1.23373,0.0749 -1.82618,0.22461 -0.59245,0.14975 -1.16211,0.37436 -1.70898,0.67383 l 0,-1.66016 c 0.65755,-0.2539 1.29557,-0.4427 1.91406,-0.56641 0.61849,-0.13019 1.2207,-0.1953 1.80664,-0.19531 1.58203,1e-5 2.76367,0.41017 3.54492,1.23047 0.78124,0.82032 1.17187,2.06381 1.17188,3.73047"
             style="font-size:20px"
             id="path3146" /><path
             d="m 333.8418,969.55217 1.79687,0 0,15.19531 -1.79687,0 0,-15.19531"
             style="font-size:20px"
             id="path3148" /><path
             d="m 346.58594,979.15178 c -10e-6,-1.30208 -0.27019,-2.31119 -0.81055,-3.02734 -0.53386,-0.71614 -1.28581,-1.07421 -2.25586,-1.07422 -0.96355,1e-5 -1.7155,0.35808 -2.25586,1.07422 -0.53386,0.71615 -0.80078,1.72526 -0.80078,3.02734 0,1.29558 0.26692,2.30144 0.80078,3.01758 0.54036,0.71615 1.29231,1.07422 2.25586,1.07422 0.97005,0 1.722,-0.35807 2.25586,-1.07422 0.54036,-0.71614 0.81054,-1.722 0.81055,-3.01758 m 1.79687,4.23828 c -1e-5,1.86198 -0.41342,3.24544 -1.24023,4.15039 -0.82683,0.91146 -2.09311,1.36719 -3.79883,1.36719 -0.63152,0 -1.22722,-0.0488 -1.78711,-0.14648 -0.5599,-0.0911 -1.10352,-0.23438 -1.63086,-0.42969 l 0,-1.74805 c 0.52734,0.28646 1.04817,0.49805 1.5625,0.63477 0.51432,0.13671 1.03841,0.20507 1.57227,0.20507 1.17838,0 2.06054,-0.30924 2.64648,-0.92773 0.58593,-0.61198 0.8789,-1.53971 0.87891,-2.7832 l 0,-0.88867 c -0.3711,0.64453 -0.84636,1.1263 -1.42578,1.44531 -0.57944,0.31901 -1.2728,0.47851 -2.08008,0.47851 -1.34115,0 -2.42188,-0.51106 -3.24219,-1.5332 -0.82031,-1.02213 -1.23047,-2.3763 -1.23047,-4.0625 0,-1.6927 0.41016,-3.05012 1.23047,-4.07227 0.82031,-1.02212 1.90104,-1.53319 3.24219,-1.5332 0.80728,1e-5 1.50064,0.15952 2.08008,0.47852 0.57942,0.31902 1.05468,0.80079 1.42578,1.44531 l 0,-1.66016 1.79687,0 0,9.58008"
             style="font-size:20px"
             id="path3150" /><path
             d="m 356.32227,975.06975 c -0.96355,10e-6 -1.72527,0.37761 -2.28516,1.13281 -0.5599,0.74871 -0.83985,1.77735 -0.83984,3.08594 -10e-6,1.3086 0.27669,2.3405 0.83007,3.0957 0.5599,0.7487 1.32487,1.12305 2.29493,1.12305 0.95702,0 1.71548,-0.3776 2.27539,-1.13281 0.55988,-0.75521 0.83983,-1.78385 0.83984,-3.08594 -10e-6,-1.29557 -0.27996,-2.32096 -0.83984,-3.07617 -0.55991,-0.76171 -1.31837,-1.14257 -2.27539,-1.14258 m 0,-1.52344 c 1.56249,1e-5 2.7897,0.50782 3.68164,1.52344 0.89191,1.01563 1.33788,2.42188 1.33789,4.21875 -10e-6,1.79037 -0.44598,3.19662 -1.33789,4.21875 -0.89194,1.01562 -2.11915,1.52344 -3.68164,1.52344 -1.56902,0 -2.79949,-0.50782 -3.69141,-1.52344 -0.88542,-1.02213 -1.32813,-2.42838 -1.32813,-4.21875 0,-1.79687 0.44271,-3.20312 1.32813,-4.21875 0.89192,-1.01562 2.12239,-1.52343 3.69141,-1.52344"
             style="font-size:20px"
             id="path3152" /><path
             d="m 370.64844,975.48967 c -0.20183,-0.11718 -0.42319,-0.20181 -0.66407,-0.25391 -0.23438,-0.0586 -0.49479,-0.0879 -0.78125,-0.0879 -1.01563,10e-6 -1.79687,0.33204 -2.34375,0.9961 -0.54036,0.65756 -0.81055,1.60482 -0.81054,2.84179 l 0,5.76172 -1.80664,0 0,-10.9375 1.80664,0 0,1.69922 c 0.3776,-0.66405 0.86913,-1.15559 1.47461,-1.47461 0.60546,-0.32551 1.34114,-0.48827 2.20703,-0.48828 0.12369,1e-5 0.26041,0.01 0.41015,0.0293 0.14974,0.013 0.31575,0.0358 0.49805,0.0684 l 0.01,1.8457"
             style="font-size:20px"
             id="path3154" /><path
             d="m 372.55273,973.80998 1.79688,0 0,10.9375 -1.79688,0 0,-10.9375 m 0,-4.25781 1.79688,0 0,2.27539 -1.79688,0 0,-2.27539"
             style="font-size:20px"
             id="path3156" /><path
             d="m 379.87695,970.70451 0,3.10547 3.70117,0 0,1.39649 -3.70117,0 0,5.9375 c 0,0.89193 0.12044,1.46484 0.36133,1.71875 0.24739,0.25391 0.74544,0.38086 1.49414,0.38086 l 1.8457,0 0,1.5039 -1.8457,0 c -1.38672,0 -2.34375,-0.25716 -2.87109,-0.77148 -0.52735,-0.52083 -0.79102,-1.46484 -0.79102,-2.83203 l 0,-5.9375 -1.31836,0 0,-1.39649 1.31836,0 0,-3.10547 1.80664,0"
             style="font-size:20px"
             id="path3158" /><path
             d="m 395.04297,978.14592 0,6.60156 -1.79688,0 0,-6.54297 c -10e-6,-1.03514 -0.20183,-1.80988 -0.60547,-2.32421 -0.40365,-0.51432 -1.00912,-0.77148 -1.8164,-0.77149 -0.97006,1e-5 -1.73503,0.30926 -2.29492,0.92774 -0.5599,0.61849 -0.83985,1.46159 -0.83985,2.52929 l 0,6.18164 -1.80664,0 0,-15.19531 1.80664,0 0,5.95703 c 0.42969,-0.65754 0.93424,-1.14908 1.51367,-1.47461 0.58594,-0.32551 1.25976,-0.48827 2.02149,-0.48828 1.2565,1e-5 2.20702,0.39064 2.85156,1.17188 0.64452,0.77475 0.96679,1.91732 0.9668,3.42773"
             style="font-size:20px"
             id="path3160" /><path
             d="m 407.16211,975.90959 c 0.44921,-0.80728 0.98632,-1.40298 1.61133,-1.78711 0.62498,-0.3841 1.36066,-0.57616 2.20703,-0.57617 1.13931,1e-5 2.01821,0.4004 2.63672,1.20117 0.61847,0.79428 0.92771,1.92709 0.92773,3.39844 l 0,6.60156 -1.80664,0 0,-6.54297 c -10e-6,-1.04817 -0.18556,-1.82616 -0.55664,-2.33398 -0.37111,-0.5078 -0.93751,-0.76171 -1.69922,-0.76172 -0.931,1e-5 -1.66668,0.30926 -2.20703,0.92774 -0.54037,0.61849 -0.81056,1.46159 -0.81055,2.52929 l 0,6.18164 -1.80664,0 0,-6.54297 c -1e-5,-1.05468 -0.18555,-1.83267 -0.55664,-2.33398 -0.3711,-0.5078 -0.94402,-0.76171 -1.71875,-0.76172 -0.91797,1e-5 -1.64714,0.31251 -2.1875,0.9375 -0.54037,0.6185 -0.81055,1.45834 -0.81054,2.51953 l 0,6.18164 -1.80665,0 0,-10.9375 1.80665,0 0,1.69922 c 0.41015,-0.67056 0.90168,-1.16535 1.4746,-1.48437 0.57292,-0.319 1.25325,-0.47851 2.04102,-0.47852 0.79426,1e-5 1.46809,0.20184 2.02148,0.60547 0.55989,0.40366 0.9733,0.98959 1.24024,1.75781"
             style="font-size:20px"
             id="path3162" /></g></g><g
         transform="translate(0,-158.4)"
         id="g3390"><path
           inkscape:connector-curvature="0"
           id="path1198"
           style="fill:#ffffff;fill-opacity:1;fill-rule:evenodd;stroke:none"
           d="m 144.84669,424.84081 c 11.85832,0 21.46955,-9.26699 21.46955,-20.69861 0,-11.43037 -9.61123,-20.69734 -21.46955,-20.69734 -11.85781,0 -21.46999,9.26697 -21.46999,20.69734 0,11.43162 9.61218,20.69861 21.46999,20.69861" /><path
           inkscape:connector-curvature="0"
           id="path1200"
           style="fill:none;stroke:#2b2929;stroke-width:0.56693012;stroke-linecap:butt;stroke-linejoin:miter;stroke-miterlimit:22.92560005;stroke-opacity:1;stroke-dasharray:none"
           d="m 144.84669,424.84081 c 11.85832,0 21.46955,-9.26699 21.46955,-20.69861 0,-11.43037 -9.61123,-20.69734 -21.46955,-20.69734 -11.85781,0 -21.46999,9.26697 -21.46999,20.69734 0,11.43162 9.61218,20.69861 21.46999,20.69861 z" /><path
           inkscape:connector-curvature="0"
           id="path1202"
           style="fill:#2b2929;fill-opacity:1;fill-rule:nonzero;stroke:none"
           d="m 147.80261,390.72339 -3.40153,0 0,20.90827 c -0.81986,-0.75371 -1.8913,-1.50612 -3.22078,-2.25981 -1.33617,-0.75244 -2.53022,-1.31834 -3.58861,-1.69265 l 0,3.16789 c 1.90425,0.86562 3.56939,1.90998 4.99573,3.13572 1.4202,1.23219 2.43323,2.42062 3.02695,3.57818 l 2.18824,0 0,-26.8376" /></g><path
         d="m 145.86559,299.26325 0,-119.84457"
         style="fill:none;stroke:#2b2929;stroke-width:2.83465052;stroke-linecap:butt;stroke-linejoin:miter;stroke-miterlimit:22.92560005;stroke-opacity:1;stroke-dasharray:none"
         id="path3407"
         inkscape:connector-curvature="0" /><path
         d="m 145.86559,164.36595 8.50922,23.39448 c -5.67281,-3.34282 -11.34562,-3.34282 -17.01844,0 l 8.50922,-23.39448"
         style="fill:#2b2929;fill-opacity:1;fill-rule:evenodd;stroke:none"
         id="path3409"
         inkscape:connector-curvature="0" /><g
         id="g3411"
         transform="translate(0,-158.4)"><path
           d="m 144.84669,424.84081 c 11.85832,0 21.46955,-9.26699 21.46955,-20.69861 0,-11.43037 -9.61123,-20.69734 -21.46955,-20.69734 -11.85781,0 -21.46999,9.26697 -21.46999,20.69734 0,11.43162 9.61218,20.69861 21.46999,20.69861"
           style="fill:#ffffff;fill-opacity:1;fill-rule:evenodd;stroke:none"
           id="path3413"
           inkscape:connector-curvature="0" /><path
           d="m 144.84669,424.84081 c 11.85832,0 21.46955,-9.26699 21.46955,-20.69861 0,-11.43037 -9.61123,-20.69734 -21.46955,-20.69734 -11.85781,0 -21.46999,9.26697 -21.46999,20.69734 0,11.43162 9.61218,20.69861 21.46999,20.69861 z"
           style="fill:none;stroke:#2b2929;stroke-width:0.56693012;stroke-linecap:butt;stroke-linejoin:miter;stroke-miterlimit:22.92560005;stroke-opacity:1;stroke-dasharray:none"
           id="path3415"
           inkscape:connector-curvature="0" /><path
           d="m 147.80261,390.72339 -3.40153,0 0,20.90827 c -0.81986,-0.75371 -1.8913,-1.50612 -3.22078,-2.25981 -1.33617,-0.75244 -2.53022,-1.31834 -3.58861,-1.69265 l 0,3.16789 c 1.90425,0.86562 3.56939,1.90998 4.99573,3.13572 1.4202,1.23219 2.43323,2.42062 3.02695,3.57818 l 2.18824,0 0,-26.8376"
           style="fill:#2b2929;fill-opacity:1;fill-rule:nonzero;stroke:none"
           id="path3417"
           inkscape:connector-curvature="0" /></g><path
         d="m 696.26559,299.26325 0,-119.84457"
         style="fill:none;stroke:#2b2929;stroke-width:2.83465052;stroke-linecap:butt;stroke-linejoin:miter;stroke-miterlimit:22.92560005;stroke-opacity:1;stroke-dasharray:none"
         id="path3427"
         inkscape:connector-curvature="0" /><path
         d="m 696.26559,164.36595 8.50922,23.39448 c -5.67281,-3.34282 -11.34562,-3.34282 -17.01844,0 l 8.50922,-23.39448"
         style="fill:#2b2929;fill-opacity:1;fill-rule:evenodd;stroke:none"
         id="path3429"
         inkscape:connector-curvature="0" /><g
         id="g3431"
         transform="translate(550.4,-158.4)"><path
           d="m 144.84669,424.84081 c 11.85832,0 21.46955,-9.26699 21.46955,-20.69861 0,-11.43037 -9.61123,-20.69734 -21.46955,-20.69734 -11.85781,0 -21.46999,9.26697 -21.46999,20.69734 0,11.43162 9.61218,20.69861 21.46999,20.69861"
           style="fill:#ffffff;fill-opacity:1;fill-rule:evenodd;stroke:none"
           id="path3433"
           inkscape:connector-curvature="0" /><path
           d="m 144.84669,424.84081 c 11.85832,0 21.46955,-9.26699 21.46955,-20.69861 0,-11.43037 -9.61123,-20.69734 -21.46955,-20.69734 -11.85781,0 -21.46999,9.26697 -21.46999,20.69734 0,11.43162 9.61218,20.69861 21.46999,20.69861 z"
           style="fill:none;stroke:#2b2929;stroke-width:0.56693012;stroke-linecap:butt;stroke-linejoin:miter;stroke-miterlimit:22.92560005;stroke-opacity:1;stroke-dasharray:none"
           id="path3435"
           inkscape:connector-curvature="0" /><path
           d="m 147.80261,390.72339 -3.40153,0 0,20.90827 c -0.81986,-0.75371 -1.8913,-1.50612 -3.22078,-2.25981 -1.33617,-0.75244 -2.53022,-1.31834 -3.58861,-1.69265 l 0,3.16789 c 1.90425,0.86562 3.56939,1.90998 4.99573,3.13572 1.4202,1.23219 2.43323,2.42062 3.02695,3.57818 l 2.18824,0 0,-26.8376"
           style="fill:#2b2929;fill-opacity:1;fill-rule:nonzero;stroke:none"
           id="path3437"
           inkscape:connector-curvature="0" /></g><path
         inkscape:connector-curvature="0"
         id="path3439"
         style="fill:none;stroke:#2b2929;stroke-width:2.83465052;stroke-linecap:butt;stroke-linejoin:miter;stroke-miterlimit:22.92560005;stroke-opacity:1;stroke-dasharray:none"
         d="m 696.26559,299.26325 0,-119.84457" /><path
         inkscape:connector-curvature="0"
         id="path3441"
         style="fill:#2b2929;fill-opacity:1;fill-rule:evenodd;stroke:none"
         d="m 696.26559,164.36595 8.50922,23.39448 c -5.67281,-3.34282 -11.34562,-3.34282 -17.01844,0 l 8.50922,-23.39448" /><g
         transform="translate(550.4,-158.4)"
         id="g3443"><path
           inkscape:connector-curvature="0"
           id="path3445"
           style="fill:#ffffff;fill-opacity:1;fill-rule:evenodd;stroke:none"
           d="m 144.84669,424.84081 c 11.85832,0 21.46955,-9.26699 21.46955,-20.69861 0,-11.43037 -9.61123,-20.69734 -21.46955,-20.69734 -11.85781,0 -21.46999,9.26697 -21.46999,20.69734 0,11.43162 9.61218,20.69861 21.46999,20.69861" /><path
           inkscape:connector-curvature="0"
           id="path3447"
           style="fill:none;stroke:#2b2929;stroke-width:0.56693012;stroke-linecap:butt;stroke-linejoin:miter;stroke-miterlimit:22.92560005;stroke-opacity:1;stroke-dasharray:none"
           d="m 144.84669,424.84081 c 11.85832,0 21.46955,-9.26699 21.46955,-20.69861 0,-11.43037 -9.61123,-20.69734 -21.46955,-20.69734 -11.85781,0 -21.46999,9.26697 -21.46999,20.69734 0,11.43162 9.61218,20.69861 21.46999,20.69861 z" /><path
           inkscape:connector-curvature="0"
           id="path3449"
           style="fill:#2b2929;fill-opacity:1;fill-rule:nonzero;stroke:none"
           d="m 147.80261,390.72339 -3.40153,0 0,20.90827 c -0.81986,-0.75371 -1.8913,-1.50612 -3.22078,-2.25981 -1.33617,-0.75244 -2.53022,-1.31834 -3.58861,-1.69265 l 0,3.16789 c 1.90425,0.86562 3.56939,1.90998 4.99573,3.13572 1.4202,1.23219 2.43323,2.42062 3.02695,3.57818 l 2.18824,0 0,-26.8376" /></g></g></g></svg>