<?xml version="1.0" encoding="UTF-8" standalone="no"?>
<!-- Created with Inkscape (http://www.inkscape.org/) -->

<svg
   xmlns:dc="http://purl.org/dc/elements/1.1/"
   xmlns:cc="http://creativecommons.org/ns#"
   xmlns:rdf="http://www.w3.org/1999/02/22-rdf-syntax-ns#"
   xmlns:svg="http://www.w3.org/2000/svg"
   xmlns="http://www.w3.org/2000/svg"
   xmlns:sodipodi="http://sodipodi.sourceforge.net/DTD/sodipodi-0.dtd"
   xmlns:inkscape="http://www.inkscape.org/namespaces/inkscape"
   id="svg2"
   version="1.1"
   inkscape:version="0.48.4 r9939"
   width="469.5"
   height="360.75"
   xml:space="preserve"
   sodipodi:docname="orthogonality.svg"><metadata
     id="metadata8"><rdf:RDF><cc:Work
         rdf:about=""><dc:format>image/svg+xml</dc:format><dc:type
           rdf:resource="http://purl.org/dc/dcmitype/StillImage" /><dc:title /></cc:Work></rdf:RDF></metadata><defs
     id="defs6" /><sodipodi:namedview
     pagecolor="#ffffff"
     bordercolor="#666666"
     borderopacity="1"
     objecttolerance="10"
     gridtolerance="10"
     guidetolerance="10"
     inkscape:pageopacity="0"
     inkscape:pageshadow="2"
     inkscape:window-width="1535"
     inkscape:window-height="876"
     id="namedview4"
     showgrid="false"
     inkscape:zoom="0.6187799"
     inkscape:cx="254.17738"
     inkscape:cy="459.33533"
     inkscape:window-x="65"
     inkscape:window-y="24"
     inkscape:window-maximized="1"
     inkscape:current-layer="g10"
     borderlayer="true"
     showborder="false"
     inkscape:showpageshadow="false"><inkscape:grid
       type="xygrid"
       id="grid5184"
       empspacing="5"
       visible="true"
       enabled="true"
       snapvisiblegridlinesonly="true" /></sodipodi:namedview><g
     id="g10"
     inkscape:groupmode="layer"
     inkscape:label="ink_ext_XXXXXX"
     transform="matrix(1.25,0,0,-1.25,0,360.75)"><flowRoot
       xml:space="preserve"
       id="flowRoot5316"
       style="font-size:4px;font-style:normal;font-weight:normal;line-height:125%;letter-spacing:0px;word-spacing:0px;fill:#000000;fill-opacity:1;stroke:none;font-family:Sans"><flowRegion
         id="flowRegion5318"><rect
           id="rect5320"
           width="2.2854874"
           height="43.424259"
           x="725.64221"
           y="448.52689" /></flowRegion><flowPara
         id="flowPara5322" /></flowRoot><g
       id="g3505"
       transform="translate(-44.8,-259.2)"><path
         d="m 337.76171,384.09708 0,-49.50922"
         style="fill:none;stroke:#2b2929;stroke-width:2.83465052;stroke-linecap:butt;stroke-linejoin:miter;stroke-miterlimit:22.92560005;stroke-opacity:1;stroke-dasharray:none"
         id="path836"
         inkscape:connector-curvature="0" /><path
         d="m 337.76171,326.51573 4.96776,13.65793 c -3.31184,-1.95157 -6.62369,-1.95157 -9.93553,0 l 4.96777,-13.65793"
         style="fill:#2b2929;fill-opacity:1;fill-rule:evenodd;stroke:none"
         id="path838"
         inkscape:connector-curvature="0" /><path
         d="m 131.80401,485.83419 0,-41.83581"
         style="fill:none;stroke:#2b2929;stroke-width:2.83465004;stroke-linecap:butt;stroke-linejoin:miter;stroke-miterlimit:22.92560005;stroke-opacity:1;stroke-dasharray:none"
         id="path844"
         inkscape:connector-curvature="0" /><path
         d="m 131.80401,436.51051 4.96784,13.65793 c -3.31184,-1.95156 -6.62361,-1.95156 -9.93577,0 l 4.96793,-13.65793"
         style="fill:#2b2929;fill-opacity:1;fill-rule:evenodd;stroke:none"
         id="path846"
         inkscape:connector-curvature="0" /><path
         d="m 337.76249,485.83419 0,-41.83581"
         style="fill:none;stroke:#2b2929;stroke-width:2.83465004;stroke-linecap:butt;stroke-linejoin:miter;stroke-miterlimit:22.92560005;stroke-opacity:1;stroke-dasharray:none"
         id="path848"
         inkscape:connector-curvature="0" /><path
         d="m 337.76249,436.51051 4.96777,13.65793 c -3.31185,-1.95156 -6.6237,-1.95156 -9.93554,0 l 4.96777,-13.65793"
         style="fill:#2b2929;fill-opacity:1;fill-rule:evenodd;stroke:none"
         id="path850"
         inkscape:connector-curvature="0" /><path
         d="m 131.80401,478.5836 c 6.92301,0 12.53414,-5.41016 12.53414,-12.08406 0,-6.67316 -5.61113,-12.08332 -12.53414,-12.08332 -6.92271,0 -12.53439,5.41016 -12.53439,12.08332 0,6.6739 5.61168,12.08406 12.53439,12.08406"
         style="fill:#ffffff;fill-opacity:1;fill-rule:evenodd;stroke:none"
         id="path1198"
         inkscape:connector-curvature="0" /><path
         d="m 131.80401,478.5836 c 6.92301,0 12.53414,-5.41016 12.53414,-12.08406 0,-6.67316 -5.61113,-12.08332 -12.53414,-12.08332 -6.92271,0 -12.53439,5.41016 -12.53439,12.08332 0,6.6739 5.61168,12.08406 12.53439,12.08406 z"
         style="fill:none;stroke:#2b2929;stroke-width:0.56693006;stroke-linecap:butt;stroke-linejoin:miter;stroke-miterlimit:22.92560005;stroke-opacity:1;stroke-dasharray:none"
         id="path1200"
         inkscape:connector-curvature="0" /><path
         d="m 133.52971,458.6655 -1.98585,0 0,12.20646 c -0.47864,-0.44002 -1.10416,-0.87928 -1.88032,-1.3193 -0.78007,-0.43928 -1.47717,-0.76966 -2.09507,-0.98818 l 0,1.84945 c 1.11172,0.50535 2.08385,1.11506 2.91656,1.83066 0.82913,0.71936 1.42054,1.41318 1.76716,2.08898 l 1.27752,0 0,-15.66807"
         style="fill:#2b2929;fill-opacity:1;fill-rule:nonzero;stroke:none"
         id="path1202"
         inkscape:connector-curvature="0" /><path
         d="m 337.76249,478.5836 c 6.92278,0 12.53469,-5.41016 12.53469,-12.08406 0,-6.67316 -5.61191,-12.08332 -12.53469,-12.08332 -6.92278,0 -12.5347,5.41016 -12.5347,12.08332 0,6.6739 5.61192,12.08406 12.5347,12.08406"
         style="fill:#ffffff;fill-opacity:1;fill-rule:evenodd;stroke:none"
         id="path1204"
         inkscape:connector-curvature="0" /><path
         d="m 337.76249,478.5836 c 6.92278,0 12.53469,-5.41016 12.53469,-12.08406 0,-6.67316 -5.61191,-12.08332 -12.53469,-12.08332 -6.92278,0 -12.5347,5.41016 -12.5347,12.08332 0,6.6739 5.61192,12.08406 12.5347,12.08406 z"
         style="fill:none;stroke:#2b2929;stroke-width:0.56693006;stroke-linecap:butt;stroke-linejoin:miter;stroke-miterlimit:22.92560005;stroke-opacity:1;stroke-dasharray:none"
         id="path1206"
         inkscape:connector-curvature="0" /><path
         d="m 339.48851,458.6655 -1.98618,0 0,12.20646 c -0.47823,-0.44002 -1.10368,-0.87928 -1.88024,-1.3193 -0.78045,-0.43928 -1.47677,-0.76966 -2.09521,-0.98818 l 0,1.84945 c 1.11226,0.50535 2.08431,1.11506 2.91695,1.83066 0.82873,0.71936 1.42069,1.41318 1.76652,2.08898 l 1.27816,0 0,-15.66807"
         style="fill:#2b2929;fill-opacity:1;fill-rule:nonzero;stroke:none"
         id="path1208"
         inkscape:connector-curvature="0" /><path
         d="m 337.50617,372.61173 c 6.92279,0 12.53392,-5.41016 12.53392,-12.08406 0,-6.67391 -5.61113,-12.08332 -12.53392,-12.08332 -6.92278,0 -12.53469,5.40941 -12.53469,12.08332 0,6.6739 5.61191,12.08406 12.53469,12.08406"
         style="fill:#ffffff;fill-opacity:1;fill-rule:evenodd;stroke:none"
         id="path1222"
         inkscape:connector-curvature="0" /><path
         d="m 337.50617,372.61173 c 6.92279,0 12.53392,-5.41016 12.53392,-12.08406 0,-6.67391 -5.61113,-12.08332 -12.53392,-12.08332 -6.92278,0 -12.53469,5.40941 -12.53469,12.08332 0,6.6739 5.61191,12.08406 12.53469,12.08406 z"
         style="fill:none;stroke:#2b2929;stroke-width:0.56693006;stroke-linecap:butt;stroke-linejoin:miter;stroke-miterlimit:22.92560005;stroke-opacity:1;stroke-dasharray:none"
         id="path1224"
         inkscape:connector-curvature="0" /><path
         d="m 342.29977,354.88323 0,-1.84194 -10.69807,0 c -0.0156,0.4618 0.06,0.90482 0.22977,1.32982 0.27106,0.70509 0.70879,1.39516 1.30776,2.07772 0.60287,0.67956 1.46899,1.46799 2.59994,2.36155 1.75951,1.39139 2.95044,2.4922 3.56887,3.30616 0.61767,0.81021 0.92689,1.57988 0.92689,2.30298 0,0.75915 -0.28274,1.39891 -0.84432,1.92153 -0.5647,0.51961 -1.29997,0.78167 -2.20426,0.78167 -0.95726,0 -1.72291,-0.27632 -2.29539,-0.83273 -0.57638,-0.55191 -0.86613,-1.31781 -0.87392,-2.29547 l -2.04225,0.19973 c 0.13942,1.471 0.66673,2.58983 1.57882,3.36023 0.91208,0.77041 2.14038,1.15562 3.67791,1.15562 1.55234,0 2.78064,-0.41824 3.68494,-1.24648 0.90819,-0.83122 1.36072,-1.85995 1.36072,-3.08766 0,-0.62473 -0.13163,-1.23896 -0.39958,-1.84192 -0.26325,-0.60296 -0.7041,-1.23897 -1.31865,-1.90351 -0.61455,-0.66829 -1.63567,-1.58363 -3.06338,-2.74675 -1.19093,-0.9664 -1.9558,-1.61967 -2.29539,-1.96508 -0.33882,-0.34166 -0.61766,-0.68631 -0.84043,-1.03547 l 7.94002,0"
         style="fill:#2b2929;fill-opacity:1;fill-rule:nonzero;stroke:none"
         id="path1214"
         inkscape:connector-curvature="0" /><path
         inkscape:connector-curvature="0"
         id="path4842"
         style="fill:none;stroke:#2b2929;stroke-width:2.83465052;stroke-linecap:butt;stroke-linejoin:miter;stroke-miterlimit:22.92560005;stroke-opacity:1;stroke-dasharray:none"
         d="m 132.39886,384.09708 0,-49.50922" /><path
         inkscape:connector-curvature="0"
         id="path4844"
         style="fill:#2b2929;fill-opacity:1;fill-rule:evenodd;stroke:none"
         d="m 132.39886,326.51573 4.96777,13.65793 c -3.31184,-1.95157 -6.62369,-1.95157 -9.93554,0 l 4.96777,-13.65793" /><path
         inkscape:connector-curvature="0"
         id="path4846"
         style="fill:#ffffff;fill-opacity:1;fill-rule:evenodd;stroke:none"
         d="m 132.14333,372.61173 c 6.92278,0 12.53391,-5.41016 12.53391,-12.08406 0,-6.67391 -5.61113,-12.08332 -12.53391,-12.08332 -6.92279,0 -12.53469,5.40941 -12.53469,12.08332 0,6.6739 5.6119,12.08406 12.53469,12.08406" /><path
         inkscape:connector-curvature="0"
         id="path4848"
         style="fill:none;stroke:#2b2929;stroke-width:0.56693006;stroke-linecap:butt;stroke-linejoin:miter;stroke-miterlimit:22.92560005;stroke-opacity:1;stroke-dasharray:none"
         d="m 132.14333,372.61173 c 6.92278,0 12.53391,-5.41016 12.53391,-12.08406 0,-6.67391 -5.61113,-12.08332 -12.53391,-12.08332 -6.92279,0 -12.53469,5.40941 -12.53469,12.08332 0,6.6739 5.6119,12.08406 12.53469,12.08406 z" /><path
         inkscape:connector-curvature="0"
         id="path4850"
         style="fill:#2b2929;fill-opacity:1;fill-rule:nonzero;stroke:none"
         d="m 136.93692,354.88323 0,-1.84194 -10.69807,0 c -0.0156,0.4618 0.06,0.90482 0.22977,1.32982 0.27106,0.70509 0.7088,1.39516 1.30776,2.07772 0.60287,0.67956 1.46899,1.46799 2.59994,2.36155 1.75951,1.39139 2.95044,2.4922 3.56888,3.30616 0.61766,0.81021 0.92689,1.57988 0.92689,2.30298 0,0.75915 -0.28274,1.39891 -0.84433,1.92153 -0.5647,0.51961 -1.29996,0.78167 -2.20426,0.78167 -0.95725,0 -1.72291,-0.27632 -2.29539,-0.83273 -0.57638,-0.55191 -0.86612,-1.31781 -0.87392,-2.29547 l -2.04225,0.19973 c 0.13942,1.471 0.66673,2.58983 1.57882,3.36023 0.91208,0.77041 2.14039,1.15562 3.67791,1.15562 1.55234,0 2.78065,-0.41824 3.68494,-1.24648 0.90819,-0.83122 1.36072,-1.85995 1.36072,-3.08766 0,-0.62473 -0.13163,-1.23896 -0.39957,-1.84192 -0.26326,-0.60296 -0.70411,-1.23897 -1.31865,-1.90351 -0.61456,-0.66829 -1.63568,-1.58363 -3.06339,-2.74675 -1.19092,-0.9664 -1.9558,-1.61967 -2.29538,-1.96508 -0.33882,-0.34166 -0.61767,-0.68631 -0.84044,-1.03547 l 7.94002,0" /><g
         transform="translate(0,6.4)"
         id="g5330"><path
           inkscape:connector-curvature="0"
           id="path608"
           style="fill:#f8c7d1;fill-opacity:1;fill-rule:evenodd;stroke:none"
           d="m 65.353024,522.05092 132.900746,0 c 2.86476,0 5.20766,-2.25867 5.20766,-5.02044 l 0,-31.07857 c 0,-2.76102 -2.3429,-5.0197 -5.20766,-5.0197 l -132.900746,0 c -2.864255,0 -5.207619,2.25868 -5.207619,5.0197 l 0,31.07857 c 0,2.76177 2.343364,5.02044 5.207619,5.02044" /><path
           inkscape:connector-curvature="0"
           id="path610"
           style="fill:none;stroke:#2b2929;stroke-width:0.56693006;stroke-linecap:butt;stroke-linejoin:miter;stroke-miterlimit:22.92560005;stroke-opacity:1;stroke-dasharray:none"
           d="m 65.353024,522.05092 132.900746,0 c 2.86476,0 5.20766,-2.25867 5.20766,-5.02044 l 0,-31.07857 c 0,-2.76102 -2.3429,-5.0197 -5.20766,-5.0197 l -132.900746,0 c -2.864255,0 -5.207619,2.25868 -5.207619,5.0197 l 0,31.07857 c 0,2.76177 2.343364,5.02044 5.207619,5.02044 z" /><flowRoot
           xml:space="preserve"
           id="flowRoot5274"
           style="font-size:14px;font-style:normal;font-weight:normal;text-align:center;line-height:125%;letter-spacing:0px;word-spacing:0px;text-anchor:middle;fill:#000000;fill-opacity:1;stroke:none;font-family:Sans"
           transform="matrix(0.8,0,0,-0.8,11.2,863)"><flowRegion
             id="flowRegion5276"><rect
               id="rect5278"
               width="175.41115"
               height="47.995213"
               x="62.850906"
               y="427.95749"
               style="font-size:14px;text-align:center;text-anchor:middle" /></flowRegion><flowPara
             id="flowPara5280">No signal peptide</flowPara></flowRoot><g
           id="g5284"
           transform="translate(6.4,0)"><path
             d="m 81.971418,494.08179 0,-4.2658 3.215964,0 c 0.22541,0 0.385472,-0.0406 0.48073,-0.1254 0.09947,-0.0811 0.145108,-0.19072 0.145108,-0.32739 0,-0.1284 -0.04564,-0.23503 -0.145108,-0.32363 -0.09526,-0.0848 -0.25532,-0.12841 -0.48073,-0.12841 l -5.421238,0 c -0.221517,0 -0.3815,0.0436 -0.476759,0.12841 -0.09947,0.0886 -0.148768,0.19523 -0.148768,0.32363 0,0.13667 0.0493,0.24629 0.148768,0.32739 0.09526,0.0848 0.255242,0.1254 0.476759,0.1254 l 1.266632,0 0,10.79854 -1.266632,0 c -0.221517,0 -0.3815,0.0406 -0.476759,0.12165 -0.09947,0.0841 -0.148768,0.19447 -0.148768,0.33039 0,0.13666 0.0493,0.24629 0.148768,0.32738 0.09526,0.0848 0.255242,0.1254 0.476759,0.1254 l 5.455898,0 c 1.289142,0 2.342436,-0.36794 3.158792,-1.10006 0.816278,-0.73136 1.224572,-1.59263 1.224572,-2.57404 0,-0.58119 -0.133501,-1.10756 -0.396689,-1.57461 -0.266848,-0.46706 -0.583857,-0.83499 -0.95749,-1.10006 -0.557141,-0.40023 -1.137025,-0.69457 -1.732176,-0.88229 -0.431116,-0.13592 -0.969018,-0.2065 -1.610046,-0.2065 l -2.937587,0 z m 0,0.90482 2.994758,0 c 0.690642,0 1.342964,0.15168 1.949642,0.44904 0.606367,0.2981 1.049089,0.66227 1.331437,1.09254 0.278687,0.43026 0.419588,0.87178 0.419588,1.31706 0,0.70959 -0.316464,1.34934 -0.95383,1.91627 -0.633161,0.56617 -1.430667,0.85301 -2.399685,0.85301 l -3.34191,0 0,-5.62792"
             style="fill:#2b2929;fill-opacity:1;fill-rule:nonzero;stroke:none"
             id="path612"
             inkscape:connector-curvature="0" /><path
             d="m 98.445274,488.91116 -1.304643,0 -4.730905,11.70337 -0.724992,0 c -0.171589,0 -0.293953,0.0143 -0.369973,0.048 -0.07244,0.033 -0.13358,0.0841 -0.183196,0.16144 -0.04962,0.0736 -0.07244,0.15469 -0.07244,0.24254 0,0.0848 0.02282,0.16595 0.07244,0.24255 0.04962,0.0736 0.110759,0.12915 0.183196,0.16218 0.07602,0.0293 0.198384,0.048 0.369973,0.048 l 3.498623,0 c 0.179456,0 0.305169,-0.0187 0.373867,-0.048 0.07244,-0.033 0.12992,-0.0886 0.179223,-0.16218 0.04962,-0.0766 0.07275,-0.1577 0.07275,-0.24255 0,-0.0879 -0.0268,-0.16894 -0.08031,-0.24254 -0.04962,-0.0774 -0.110446,-0.12839 -0.183194,-0.16144 -0.06878,-0.0337 -0.190751,-0.048 -0.36234,-0.048 l -1.80064,0 4.36062,-10.79854 0.0648,0 4.303677,10.79854 -1.78568,0 c -0.17922,0 -0.30517,0.0143 -0.381499,0.048 -0.07641,0.033 -0.137241,0.0841 -0.183195,0.16144 -0.04931,0.0736 -0.07244,0.15469 -0.07244,0.24254 0,0.0848 0.02313,0.16595 0.07641,0.24255 0.05351,0.0736 0.11442,0.12915 0.183117,0.16218 0.07244,0.0293 0.198387,0.048 0.377607,0.048 l 3.48733,0 c 0.17922,0 0.30493,-0.0187 0.37729,-0.048 0.0767,-0.033 0.13756,-0.0886 0.18717,-0.16218 0.0456,-0.0766 0.0723,-0.1577 0.0723,-0.24255 0,-0.0879 -0.0268,-0.16894 -0.08,-0.24254 -0.0533,-0.0774 -0.11442,-0.12839 -0.1832,-0.16144 -0.0723,-0.0337 -0.1944,-0.048 -0.37362,-0.048 l -0.71736,0 -4.65084,-11.70337"
             style="fill:#2b2929;fill-opacity:1;fill-rule:nonzero;stroke:none"
             id="path614"
             inkscape:connector-curvature="0" /><path
             d="m 109.44828,494.08179 0,-4.2658 3.21628,0 c 0.22516,0 0.38516,-0.0406 0.48072,-0.1254 0.0991,-0.0811 0.1448,-0.19072 0.1448,-0.32739 0,-0.1284 -0.0456,-0.23503 -0.1448,-0.32363 -0.0956,-0.0848 -0.25556,-0.12841 -0.48072,-0.12841 l -5.42117,0 c -0.22151,0 -0.38158,0.0436 -0.47707,0.12841 -0.0992,0.0886 -0.14884,0.19523 -0.14884,0.32363 0,0.13667 0.0496,0.24629 0.14884,0.32739 0.0955,0.0848 0.25556,0.1254 0.47707,0.1254 l 1.26624,0 0,10.79854 -1.26624,0 c -0.22151,0 -0.38158,0.0406 -0.47707,0.12165 -0.0992,0.0841 -0.14884,0.19447 -0.14884,0.33039 0,0.13666 0.0496,0.24629 0.14884,0.32738 0.0955,0.0848 0.25556,0.1254 0.47707,0.1254 l 5.45559,0 c 1.28937,0 2.34274,-0.36794 3.15872,-1.10006 0.81666,-0.73136 1.22495,-1.59263 1.22495,-2.57404 0,-0.58119 -0.13358,-1.10756 -0.39676,-1.57461 -0.26716,-0.46706 -0.58385,-0.83499 -0.95781,-1.10006 -0.55705,-0.40023 -1.13694,-0.69457 -1.73209,-0.88229 -0.43111,-0.13592 -0.96902,-0.2065 -1.60981,-0.2065 l -2.9379,0 z m 0,0.90482 2.99506,0 c 0.69072,0 1.34274,0.15168 1.94942,0.44904 0.60667,0.2981 1.04932,0.66227 1.33166,1.09254 0.27846,0.43026 0.4196,0.87178 0.4196,1.31706 0,0.70959 -0.3167,1.34934 -0.95384,1.91627 -0.63316,0.56617 -1.43059,0.85301 -2.39968,0.85301 l -3.34222,0 0,-5.62792"
             style="fill:#2b2929;fill-opacity:1;fill-rule:nonzero;stroke:none"
             id="path616"
             inkscape:connector-curvature="0" /><path
             d="m 125.84612,492.69189 -1.07192,0 -3.61304,7.92264 -0.17922,0 0,-10.79854 1.73575,0 c 0.22122,0 0.38158,-0.0406 0.48074,-0.1254 0.0953,-0.0811 0.14487,-0.19072 0.14487,-0.32739 0,-0.1284 -0.0496,-0.23503 -0.14487,-0.32363 -0.0991,-0.0848 -0.25952,-0.12841 -0.48074,-0.12841 l -3.46816,0 c -0.22121,0 -0.3815,0.0436 -0.48073,0.12841 -0.0952,0.0886 -0.1448,0.19523 -0.1448,0.32363 0,0.13667 0.0497,0.24629 0.1448,0.32739 0.0992,0.0848 0.25952,0.1254 0.48073,0.1254 l 0.79384,0 0,10.79854 -0.59149,0 c -0.2212,0 -0.38157,0.0406 -0.48072,0.12165 -0.0956,0.0841 -0.14511,0.19447 -0.14511,0.33039 0,0.13666 0.0496,0.24629 0.14511,0.32738 0.0991,0.0848 0.25952,0.1254 0.48072,0.1254 l 2.30444,0 3.55181,-7.80099 3.49831,7.80099 2.30443,0 c 0.22915,0 0.39311,-0.0406 0.49234,-0.1254 0.0955,-0.081 0.14479,-0.19072 0.14479,-0.32738 0,-0.13592 -0.0494,-0.2463 -0.14479,-0.33039 -0.0992,-0.0811 -0.26319,-0.12165 -0.49234,-0.12165 l -0.58354,0 0,-10.79854 0.78589,0 c 0.22876,0 0.39312,-0.0406 0.48829,-0.1254 0.0992,-0.0811 0.14885,-0.19072 0.14885,-0.32739 0,-0.1284 -0.0497,-0.23503 -0.14885,-0.32363 -0.0952,-0.0848 -0.25953,-0.12841 -0.48829,-0.12841 l -3.45632,0 c -0.22152,0 -0.38547,0.0436 -0.4847,0.12841 -0.1031,0.0886 -0.15275,0.19523 -0.15275,0.32363 0,0.13667 0.0497,0.24629 0.14519,0.32739 0.0991,0.0848 0.26319,0.1254 0.49226,0.1254 l 1.73179,0 0,10.79854 -0.19838,0 -3.54419,-7.92264"
             style="fill:#2b2929;fill-opacity:1;fill-rule:nonzero;stroke:none"
             id="path618"
             inkscape:connector-curvature="0" /><path
             d="m 136.92553,494.08179 0,-4.2658 3.21596,0 c 0.22509,0 0.38556,-0.0406 0.48058,-0.1254 0.0996,-0.0811 0.14487,-0.19072 0.14487,-0.32739 0,-0.1284 -0.0452,-0.23503 -0.14487,-0.32363 -0.0951,-0.0848 -0.25549,-0.12841 -0.48058,-0.12841 l -5.42124,0 c -0.2212,0 -0.3815,0.0436 -0.47675,0.12841 -0.0995,0.0886 -0.14878,0.19523 -0.14878,0.32363 0,0.13667 0.0493,0.24629 0.14878,0.32739 0.0953,0.0848 0.25555,0.1254 0.47675,0.1254 l 1.26664,0 0,10.79854 -1.26664,0 c -0.2212,0 -0.3815,0.0406 -0.47675,0.12165 -0.0995,0.0841 -0.14878,0.19447 -0.14878,0.33039 0,0.13666 0.0493,0.24629 0.14878,0.32738 0.0953,0.0848 0.25555,0.1254 0.47675,0.1254 l 5.45629,0 c 1.28906,0 2.34213,-0.36794 3.1584,-1.10006 0.81628,-0.73136 1.22442,-1.59263 1.22442,-2.57404 0,-0.58119 -0.1332,-1.10756 -0.39645,-1.57461 -0.26716,-0.46706 -0.58417,-0.83499 -0.95727,-1.10006 -0.55768,-0.40023 -1.13717,-0.69457 -1.73225,-0.88229 -0.43151,-0.13592 -0.96894,-0.2065 -1.60997,-0.2065 l -2.93789,0 z m 0,0.90482 2.99476,0 c 0.69087,0 1.34281,0.15168 1.94955,0.44904 0.60676,0.2981 1.04917,0.66227 1.33191,1.09254 0.27806,0.43026 0.41904,0.87178 0.41904,1.31706 0,0.70959 -0.31622,1.34934 -0.95336,1.91627 -0.63323,0.56617 -1.43082,0.85301 -2.39976,0.85301 l -3.34214,0 0,-5.62792"
             style="fill:#2b2929;fill-opacity:1;fill-rule:nonzero;stroke:none"
             id="path620"
             inkscape:connector-curvature="0" /><path
             d="m 149.01929,489.81599 0,10.79854 -0.79291,0 c -0.2251,0 -0.38556,0.0406 -0.48135,0.12165 -0.0951,0.0841 -0.1441,0.19447 -0.1441,0.33039 0,0.13666 0.049,0.24629 0.1441,0.32738 0.0958,0.0848 0.25625,0.1254 0.48135,0.1254 l 5.05111,0 c 0.78979,0 1.51104,-0.15844 2.16298,-0.47456 0.6527,-0.31612 1.14808,-0.67655 1.49157,-1.07753 0.58806,-0.68405 1.03826,-1.40566 1.34359,-2.16631 0.21341,-0.55191 0.32401,-1.20668 0.32401,-1.96057 l 0,-1.25024 c 0,-0.92734 -0.2134,-1.82466 -0.63712,-2.69269 -0.42761,-0.87177 -1.1333,-1.62943 -2.12482,-2.2767 -0.73683,-0.47455 -1.59128,-0.70959 -2.56021,-0.70959 l -5.05111,0 c -0.2251,0 -0.38556,0.0436 -0.48135,0.12841 -0.0951,0.0886 -0.1441,0.19523 -0.1441,0.32363 0,0.13667 0.049,0.24629 0.1441,0.32739 0.0958,0.0848 0.25625,0.1254 0.48135,0.1254 l 0.79291,0 z m 0.93856,0 3.41077,0 c 0.78979,0 1.52662,0.24629 2.21672,0.74263 0.69088,0.49633 1.20962,1.09255 1.55311,1.78411 0.34738,0.69458 0.52263,1.37939 0.52263,2.05218 l 0,1.64069 c 0,0.55867 -0.0958,1.05876 -0.28273,1.49652 -0.26716,0.64051 -0.64804,1.24724 -1.1364,1.82016 -0.27106,0.31688 -0.66362,0.60372 -1.18704,0.86878 -0.52185,0.26057 -1.08343,0.39347 -1.68629,0.39347 l -3.41077,0 0,-10.79854"
             style="fill:#2b2929;fill-opacity:1;fill-rule:nonzero;stroke:none"
             id="path622"
             inkscape:connector-curvature="0" /><path
             d="m 164.81442,500.61453 0,-10.79854 6.23813,0 0,3.60051 c 0,0.21325 0.0459,0.36794 0.1332,0.4633 0.0881,0.0917 0.2064,0.14042 0.34738,0.14042 0.13319,0 0.2438,-0.0488 0.33571,-0.13666 0.0872,-0.0879 0.13318,-0.2463 0.13318,-0.46706 l 0,-4.50534 -10.37326,0 c -0.22511,0 -0.38478,0.0436 -0.48058,0.12841 -0.0951,0.0886 -0.14487,0.19523 -0.14487,0.32363 0,0.13667 0.0499,0.24629 0.14487,0.32739 0.0958,0.0848 0.25547,0.1254 0.48058,0.1254 l 2.23541,0 0,10.79854 -2.23541,0 c -0.22511,0 -0.38478,0.0406 -0.48058,0.12165 -0.0951,0.0841 -0.14487,0.19447 -0.14487,0.33039 0,0.13666 0.0499,0.24629 0.14487,0.32738 0.0958,0.0848 0.25547,0.1254 0.48058,0.1254 l 5.42107,0 c 0.22588,0 0.38556,-0.0406 0.48137,-0.1254 0.0951,-0.081 0.14487,-0.19072 0.14487,-0.32738 0,-0.13592 -0.0499,-0.2463 -0.14487,-0.33039 -0.0958,-0.0811 -0.25549,-0.12165 -0.48137,-0.12165 l -2.23541,0"
             style="fill:#2b2929;fill-opacity:1;fill-rule:nonzero;stroke:none"
             id="path624"
             inkscape:connector-curvature="0" /><path
             d="m 177.13336,493.84676 0,-4.03077 1.73225,0 c 0.23289,0 0.39724,-0.0406 0.49303,-0.1254 0.0951,-0.0811 0.14489,-0.19072 0.14489,-0.32739 0,-0.1284 -0.0499,-0.23503 -0.14489,-0.32363 -0.0958,-0.0848 -0.26014,-0.12841 -0.49303,-0.12841 l -3.93262,0 c -0.22588,0 -0.38555,0.0436 -0.48135,0.12841 -0.0989,0.0886 -0.14488,0.19523 -0.14488,0.32363 0,0.13667 0.0459,0.24629 0.14488,0.32739 0.0958,0.0848 0.25547,0.1254 0.48135,0.1254 l 1.26259,0 0,10.79854 -1.26259,0 c -0.22588,0 -0.38555,0.0406 -0.48135,0.12165 -0.0989,0.0841 -0.14488,0.19447 -0.14488,0.33039 0,0.13666 0.0459,0.24629 0.14488,0.32738 0.0958,0.0848 0.25547,0.1254 0.48135,0.1254 l 3.93262,0 c 0.23289,0 0.39724,-0.0406 0.49303,-0.1254 0.0951,-0.081 0.14489,-0.19072 0.14489,-0.32738 0,-0.13592 -0.0499,-0.2463 -0.14489,-0.33039 -0.0958,-0.0811 -0.26014,-0.12165 -0.49303,-0.12165 l -1.73225,0 0,-5.57235 6.4827,5.57235 -1.02657,0 c -0.23289,0 -0.39645,0.0406 -0.49226,0.12165 -0.0989,0.0841 -0.14488,0.19447 -0.14488,0.33039 0,0.13666 0.0459,0.24629 0.14488,0.32738 0.0958,0.0848 0.25937,0.1254 0.49226,0.1254 l 2.75805,0 c 0.2251,0 0.38555,-0.0406 0.48136,-0.1254 0.0989,-0.081 0.14487,-0.19072 0.14487,-0.32738 0,-0.13592 -0.0459,-0.2463 -0.14487,-0.33039 -0.0958,-0.0811 -0.25626,-0.12165 -0.48136,-0.12165 l -0.37698,0 -5.16639,-4.45052 c 0.76721,-0.30185 1.40435,-0.68031 1.9114,-1.13309 0.50784,-0.45204 0.99621,-1.09555 1.4651,-1.92678 0.26716,-0.46781 0.75941,-1.56336 1.47677,-3.28815 l 1.17146,0 c 0.23211,0 0.39645,-0.0406 0.49225,-0.1254 0.0989,-0.0811 0.14488,-0.19072 0.14488,-0.32739 0,-0.1284 -0.0459,-0.23503 -0.14488,-0.32363 -0.0958,-0.0848 -0.26014,-0.12841 -0.49225,-0.12841 l -1.80859,0 c -0.98451,2.59283 -1.8117,4.26281 -2.48388,5.00544 -0.6714,0.74262 -1.50715,1.26524 -2.51427,1.5671 l -1.8888,-1.63694"
             style="fill:#2b2929;fill-opacity:1;fill-rule:nonzero;stroke:none"
             id="path626"
             inkscape:connector-curvature="0" /><path
             inkscape:connector-curvature="0"
             id="path5282"
             style="fill:#2b2929;fill-opacity:1;fill-rule:nonzero;stroke:none"
             d="m 71.44612,492.69189 -1.07192,0 -3.61304,7.92264 -0.17922,0 0,-10.79854 1.73575,0 c 0.22122,0 0.38158,-0.0406 0.48074,-0.1254 0.0953,-0.0811 0.14487,-0.19072 0.14487,-0.32739 0,-0.1284 -0.0496,-0.23503 -0.14487,-0.32363 -0.0991,-0.0848 -0.25952,-0.12841 -0.48074,-0.12841 l -3.46816,0 c -0.22121,0 -0.3815,0.0436 -0.48073,0.12841 -0.0952,0.0886 -0.1448,0.19523 -0.1448,0.32363 0,0.13667 0.0497,0.24629 0.1448,0.32739 0.0992,0.0848 0.25952,0.1254 0.48073,0.1254 l 0.79384,0 0,10.79854 -0.59149,0 c -0.2212,0 -0.38157,0.0406 -0.48072,0.12165 -0.0956,0.0841 -0.14511,0.19447 -0.14511,0.33039 0,0.13666 0.0496,0.24629 0.14511,0.32738 0.0991,0.0848 0.25952,0.1254 0.48072,0.1254 l 2.30444,0 3.55181,-7.80099 3.49831,7.80099 2.30443,0 c 0.22915,0 0.39311,-0.0406 0.49234,-0.1254 0.0955,-0.081 0.14479,-0.19072 0.14479,-0.32738 0,-0.13592 -0.0494,-0.2463 -0.14479,-0.33039 -0.0992,-0.0811 -0.26319,-0.12165 -0.49234,-0.12165 l -0.58354,0 0,-10.79854 0.78589,0 c 0.22876,0 0.39312,-0.0406 0.48829,-0.1254 0.0992,-0.0811 0.14885,-0.19072 0.14885,-0.32739 0,-0.1284 -0.0497,-0.23503 -0.14885,-0.32363 -0.0952,-0.0848 -0.25953,-0.12841 -0.48829,-0.12841 l -3.45632,0 c -0.22152,0 -0.38547,0.0436 -0.4847,0.12841 -0.1031,0.0886 -0.15275,0.19523 -0.15275,0.32363 0,0.13667 0.0497,0.24629 0.14519,0.32739 0.0991,0.0848 0.26319,0.1254 0.49226,0.1254 l 1.73179,0 0,10.79854 -0.19838,0 -3.54419,-7.92264" /></g></g><g
         transform="translate(0,6.4)"
         id="g5348"><path
           inkscape:connector-curvature="0"
           id="path604"
           style="fill:#bde3fa;fill-opacity:1;fill-rule:evenodd;stroke:none"
           d="m 271.3114,522.05092 132.90139,0 c 2.86398,0 5.20689,-2.25867 5.20689,-5.02044 l 0,-31.07857 c 0,-2.76102 -2.34291,-5.0197 -5.20689,-5.0197 l -132.90139,0 c -2.86398,0 -5.20767,2.25868 -5.20767,5.0197 l 0,31.07857 c 0,2.76177 2.34369,5.02044 5.20767,5.02044" /><path
           inkscape:connector-curvature="0"
           id="path606"
           style="fill:none;stroke:#2b2929;stroke-width:0.56693006;stroke-linecap:butt;stroke-linejoin:miter;stroke-miterlimit:22.92560005;stroke-opacity:1;stroke-dasharray:none"
           d="m 271.3114,522.05092 132.90139,0 c 2.86398,0 5.20689,-2.25867 5.20689,-5.02044 l 0,-31.07857 c 0,-2.76102 -2.34291,-5.0197 -5.20689,-5.0197 l -132.90139,0 c -2.86398,0 -5.20767,2.25868 -5.20767,5.0197 l 0,31.07857 c 0,2.76177 2.34369,5.02044 5.20767,5.02044 z" /><g
           id="g5297"
           transform="translate(6.4,0)"><path
             d="m 287.70472,494.99788 0,-5.18189 3.21994,0 c 0.22121,0 0.38166,-0.0406 0.48057,-0.1254 0.0958,-0.0811 0.14565,-0.19072 0.14565,-0.32739 0,-0.1284 -0.0499,-0.23503 -0.14565,-0.32363 -0.0989,-0.0848 -0.25936,-0.12841 -0.48057,-0.12841 l -5.42109,0 c -0.22509,0 -0.38554,0.0436 -0.48056,0.12841 -0.0958,0.0886 -0.14566,0.19523 -0.14566,0.32363 0,0.13667 0.0499,0.24629 0.14566,0.32739 0.0951,0.0848 0.25547,0.1254 0.48056,0.1254 l 1.26259,0 0,10.79854 -1.26259,0 c -0.22509,0 -0.38554,0.0406 -0.48056,0.12165 -0.0958,0.0841 -0.14566,0.19447 -0.14566,0.33039 0,0.13666 0.0537,0.25079 0.16824,0.3424 0.0802,0.0736 0.23289,0.11038 0.45798,0.11038 l 10.339,0 0,-3.11544 c 0,-0.21701 -0.0459,-0.37169 -0.13318,-0.46329 -0.0919,-0.0924 -0.20252,-0.13967 -0.33648,-0.13967 -0.14098,0 -0.25938,0.0473 -0.34662,0.13967 -0.088,0.0916 -0.13396,0.24628 -0.13396,0.46329 l 0,2.21062 -7.18761,0 0,-4.71183 3.36481,0 0,1.02646 c 0,0.21325 0.0459,0.36794 0.13397,0.4633 0.0872,0.0916 0.20563,0.13966 0.34738,0.13966 0.1332,0 0.2438,-0.048 0.33493,-0.13966 0.088,-0.0953 0.13396,-0.25005 0.13396,-0.4633 l 0,-2.95325 c 0,-0.21775 -0.0459,-0.37168 -0.13396,-0.46405 -0.0911,-0.0916 -0.20173,-0.13966 -0.33493,-0.13966 -0.14175,0 -0.26014,0.048 -0.34738,0.13966 -0.088,0.0924 -0.13397,0.2463 -0.13397,0.46405 l 0,1.02197 -3.36481,0"
             style="fill:#2b2929;fill-opacity:1;fill-rule:nonzero;stroke:none"
             id="path628"
             inkscape:connector-curvature="0" /><path
             d="m 304.32781,492.69189 -1.07253,0 -3.6125,7.92264 -0.17915,0 0,-10.79854 1.73538,0 c 0.22121,0 0.38166,-0.0406 0.48057,-0.1254 0.0958,-0.0811 0.14565,-0.19072 0.14565,-0.32739 0,-0.1284 -0.0499,-0.23503 -0.14565,-0.32363 -0.0989,-0.0848 -0.25936,-0.12841 -0.48057,-0.12841 l -3.46841,0 c -0.2212,0 -0.38087,0.0436 -0.47979,0.12841 -0.0958,0.0886 -0.14487,0.19523 -0.14487,0.32363 0,0.13667 0.049,0.24629 0.14487,0.32739 0.0989,0.0848 0.25859,0.1254 0.47979,0.1254 l 0.79448,0 0,10.79854 -0.59196,0 c -0.22121,0 -0.38166,0.0406 -0.48058,0.12165 -0.0951,0.0841 -0.14487,0.19447 -0.14487,0.33039 0,0.13666 0.0499,0.24629 0.14487,0.32738 0.0989,0.0848 0.25937,0.1254 0.48058,0.1254 l 2.30474,0 3.55174,-7.80099 3.49878,7.80099 2.30395,0 c 0.229,0 0.39334,-0.0406 0.49227,-0.1254 0.0958,-0.081 0.14487,-0.19072 0.14487,-0.32738 0,-0.13592 -0.049,-0.2463 -0.14487,-0.33039 -0.0989,-0.0811 -0.26327,-0.12165 -0.49227,-0.12165 l -0.58338,0 0,-10.79854 0.7859,0 c 0.22899,0 0.39256,-0.0406 0.48836,-0.1254 0.0989,-0.0811 0.14877,-0.19072 0.14877,-0.32739 0,-0.1284 -0.0499,-0.23503 -0.14877,-0.32363 -0.0958,-0.0848 -0.25937,-0.12841 -0.48836,-0.12841 l -3.45672,0 c -0.22121,0 -0.38477,0.0436 -0.48447,0.12841 -0.10278,0.0886 -0.15266,0.19523 -0.15266,0.32363 0,0.13667 0.0499,0.24629 0.14487,0.32739 0.0989,0.0848 0.26327,0.1254 0.49226,0.1254 l 1.73225,0 0,10.79854 -0.19861,0 -3.54396,-7.92264"
             style="fill:#2b2929;fill-opacity:1;fill-rule:nonzero;stroke:none"
             id="path630"
             inkscape:connector-curvature="0" /><path
             d="m 318.14222,488.91116 -1.30464,0 -4.73098,11.70337 -0.72438,0 c -0.17212,0 -0.29441,0.0143 -0.36996,0.048 -0.0724,0.033 -0.13398,0.0841 -0.18383,0.16144 -0.049,0.0736 -0.0724,0.15469 -0.0724,0.24254 0,0.0848 0.0234,0.16595 0.0724,0.24255 0.0499,0.0736 0.11139,0.12915 0.18383,0.16218 0.0755,0.0293 0.19784,0.048 0.36996,0.048 l 3.49801,0 c 0.17915,0 0.30533,-0.0187 0.37387,-0.048 0.0724,-0.033 0.13007,-0.0886 0.17914,-0.16218 0.0499,-0.0766 0.0732,-0.1577 0.0732,-0.24255 0,-0.0879 -0.0272,-0.16894 -0.0802,-0.24254 -0.0499,-0.0774 -0.1106,-0.12839 -0.18304,-0.16144 -0.0693,-0.0337 -0.19082,-0.048 -0.36296,-0.048 l -1.80002,0 4.36023,-10.79854 0.0647,0 4.30414,10.79854 -1.786,0 c -0.17914,0 -0.30532,0.0143 -0.38165,0.048 -0.0763,0.033 -0.13709,0.0841 -0.18304,0.16144 -0.0499,0.0736 -0.0724,0.15469 -0.0724,0.24254 0,0.0848 0.0225,0.16595 0.0763,0.24255 0.0537,0.0736 0.11449,0.12915 0.18303,0.16218 0.0724,0.0293 0.19862,0.048 0.37776,0.048 l 3.4871,0 c 0.17915,0 0.30532,-0.0187 0.37776,-0.048 0.0763,-0.033 0.13709,-0.0886 0.18694,-0.16218 0.0459,-0.0766 0.0724,-0.1577 0.0724,-0.24255 0,-0.0879 -0.0265,-0.16894 -0.0802,-0.24254 -0.053,-0.0774 -0.1145,-0.12839 -0.18304,-0.16144 -0.0724,-0.0337 -0.19472,-0.048 -0.37387,-0.048 l -0.71736,0 -4.65076,-11.70337"
             style="fill:#2b2929;fill-opacity:1;fill-rule:nonzero;stroke:none"
             id="path632"
             inkscape:connector-curvature="0" /><path
             d="m 329.55765,500.61453 0,-10.79854 6.23735,0 0,3.60051 c 0,0.21325 0.0459,0.36794 0.13398,0.4633 0.0872,0.0917 0.20562,0.14042 0.3466,0.14042 0.13398,0 0.24458,-0.0488 0.33648,-0.13666 0.0872,-0.0879 0.1332,-0.2463 0.1332,-0.46706 l 0,-4.50534 -10.37327,0 c -0.22511,0 -0.38556,0.0436 -0.48058,0.12841 -0.0958,0.0886 -0.14487,0.19523 -0.14487,0.32363 0,0.13667 0.0491,0.24629 0.14487,0.32739 0.0951,0.0848 0.25547,0.1254 0.48058,0.1254 l 2.23541,0 0,10.79854 -2.23541,0 c -0.22511,0 -0.38556,0.0406 -0.48058,0.12165 -0.0958,0.0841 -0.14487,0.19447 -0.14487,0.33039 0,0.13666 0.0491,0.24629 0.14487,0.32738 0.0951,0.0848 0.25547,0.1254 0.48058,0.1254 l 5.42108,0 c 0.22509,0 0.38554,-0.0406 0.48135,-0.1254 0.0951,-0.081 0.14488,-0.19072 0.14488,-0.32738 0,-0.13592 -0.0499,-0.2463 -0.14488,-0.33039 -0.0958,-0.0811 -0.25626,-0.12165 -0.48135,-0.12165 l -2.23542,0"
             style="fill:#2b2929;fill-opacity:1;fill-rule:nonzero;stroke:none"
             id="path634"
             inkscape:connector-curvature="0" /><path
             d="m 343.29573,500.61453 0,-10.79854 6.23814,0 0,3.60051 c 0,0.21325 0.0459,0.36794 0.13319,0.4633 0.0881,0.0917 0.2064,0.14042 0.34738,0.14042 0.13398,0 0.2438,-0.0488 0.33571,-0.13666 0.088,-0.0879 0.13396,-0.2463 0.13396,-0.46706 l 0,-4.50534 -10.37326,0 c -0.22588,0 -0.38556,0.0436 -0.48136,0.12841 -0.0951,0.0886 -0.14487,0.19523 -0.14487,0.32363 0,0.13667 0.0499,0.24629 0.14487,0.32739 0.0958,0.0848 0.25548,0.1254 0.48136,0.1254 l 2.23541,0 0,10.79854 -2.23541,0 c -0.22588,0 -0.38556,0.0406 -0.48136,0.12165 -0.0951,0.0841 -0.14487,0.19447 -0.14487,0.33039 0,0.13666 0.0499,0.24629 0.14487,0.32738 0.0958,0.0848 0.25548,0.1254 0.48136,0.1254 l 5.42108,0 c 0.22509,0 0.38554,-0.0406 0.48057,-0.1254 0.0958,-0.081 0.14488,-0.19072 0.14488,-0.32738 0,-0.13592 -0.049,-0.2463 -0.14488,-0.33039 -0.0951,-0.0811 -0.25548,-0.12165 -0.48057,-0.12165 l -2.2362,0"
             style="fill:#2b2929;fill-opacity:1;fill-rule:nonzero;stroke:none"
             id="path636"
             inkscape:connector-curvature="0" /><path
             d="m 354.97831,489.81599 0,10.79854 -0.79369,0 c -0.2251,0 -0.38555,0.0406 -0.48057,0.12165 -0.0958,0.0841 -0.14488,0.19447 -0.14488,0.33039 0,0.13666 0.0491,0.24629 0.14488,0.32738 0.0951,0.0848 0.25547,0.1254 0.48057,0.1254 l 5.05111,0 c 0.78979,0 1.51105,-0.15844 2.16376,-0.47456 0.65194,-0.31612 1.14808,-0.67655 1.49158,-1.07753 0.58728,-0.68405 1.03749,-1.40566 1.34281,-2.16631 0.21341,-0.55191 0.32402,-1.20668 0.32402,-1.96057 l 0,-1.25024 c 0,-0.92734 -0.21342,-1.82466 -0.63714,-2.69269 -0.42683,-0.87177 -1.13328,-1.62943 -2.12482,-2.2767 -0.73605,-0.47455 -1.59127,-0.70959 -2.56021,-0.70959 l -5.05111,0 c -0.2251,0 -0.38555,0.0436 -0.48057,0.12841 -0.0958,0.0886 -0.14488,0.19523 -0.14488,0.32363 0,0.13667 0.0491,0.24629 0.14488,0.32739 0.0951,0.0848 0.25547,0.1254 0.48057,0.1254 l 0.79369,0 z m 0.93779,0 3.41154,0 c 0.7898,0 1.52585,0.24629 2.21595,0.74263 0.69087,0.49633 1.21039,1.09255 1.55311,1.78411 0.34738,0.69458 0.52263,1.37939 0.52263,2.05218 l 0,1.64069 c 0,0.55867 -0.0951,1.05876 -0.28195,1.49652 -0.26716,0.64051 -0.64883,1.24724 -1.13719,1.82016 -0.27105,0.31688 -0.66361,0.60372 -1.18625,0.86878 -0.52263,0.26057 -1.08344,0.39347 -1.6863,0.39347 l -3.41154,0 0,-10.79854"
             style="fill:#2b2929;fill-opacity:1;fill-rule:nonzero;stroke:none"
             id="path638"
             inkscape:connector-curvature="0" /><path
             d="m 369.35353,493.84676 0,-4.03077 1.73225,0 c 0.23288,0 0.39724,-0.0406 0.49226,-0.1254 0.0958,-0.0811 0.14487,-0.19072 0.14487,-0.32739 0,-0.1284 -0.049,-0.23503 -0.14487,-0.32363 -0.0951,-0.0848 -0.25938,-0.12841 -0.49226,-0.12841 l -3.9334,0 c -0.2251,0 -0.38477,0.0436 -0.48057,0.12841 -0.0997,0.0886 -0.14488,0.19523 -0.14488,0.32363 0,0.13667 0.0452,0.24629 0.14488,0.32739 0.0958,0.0848 0.25547,0.1254 0.48057,0.1254 l 1.26336,0 0,10.79854 -1.26336,0 c -0.2251,0 -0.38477,0.0406 -0.48057,0.12165 -0.0997,0.0841 -0.14488,0.19447 -0.14488,0.33039 0,0.13666 0.0452,0.24629 0.14488,0.32738 0.0958,0.0848 0.25547,0.1254 0.48057,0.1254 l 3.9334,0 c 0.23288,0 0.39724,-0.0406 0.49226,-0.1254 0.0958,-0.081 0.14487,-0.19072 0.14487,-0.32738 0,-0.13592 -0.049,-0.2463 -0.14487,-0.33039 -0.0951,-0.0811 -0.25938,-0.12165 -0.49226,-0.12165 l -1.73225,0 0,-5.57235 6.48271,5.57235 -1.02658,0 c -0.23289,0 -0.39724,0.0406 -0.49226,0.12165 -0.0989,0.0841 -0.14487,0.19447 -0.14487,0.33039 0,0.13666 0.0459,0.24629 0.14487,0.32738 0.0951,0.0848 0.25937,0.1254 0.49226,0.1254 l 2.75883,0 c 0.22432,0 0.38477,-0.0406 0.47979,-0.1254 0.0997,-0.081 0.14566,-0.19072 0.14566,-0.32738 0,-0.13592 -0.0459,-0.2463 -0.14566,-0.33039 -0.0951,-0.0811 -0.25547,-0.12165 -0.47979,-0.12165 l -0.37855,0 -5.16559,-4.45052 c 0.7672,-0.30185 1.40433,-0.68031 1.9114,-1.13309 0.50783,-0.45204 0.99619,-1.09555 1.46509,-1.92678 0.26716,-0.46781 0.75941,-1.56336 1.47677,-3.28815 l 1.17067,0 c 0.23289,0 0.39724,-0.0406 0.49227,-0.1254 0.0997,-0.0811 0.14565,-0.19072 0.14565,-0.32739 0,-0.1284 -0.0459,-0.23503 -0.14565,-0.32363 -0.0951,-0.0848 -0.25938,-0.12841 -0.49227,-0.12841 l -1.80858,0 c -0.98373,2.59283 -1.8117,4.26281 -2.4831,5.00544 -0.67141,0.74262 -1.50716,1.26524 -2.51426,1.5671 l -1.88881,-1.63694"
             style="fill:#2b2929;fill-opacity:1;fill-rule:nonzero;stroke:none"
             id="path640"
             inkscape:connector-curvature="0" /><path
             d="m 386.83495,488.91116 -1.30463,0 -4.73099,11.70337 -0.72437,0 c -0.17214,0 -0.29442,0.0143 -0.36997,0.048 -0.0724,0.033 -0.13397,0.0841 -0.18382,0.16144 -0.049,0.0736 -0.0724,0.15469 -0.0724,0.24254 0,0.0848 0.0234,0.16595 0.0724,0.24255 0.0499,0.0736 0.11138,0.12915 0.18382,0.16218 0.0755,0.0293 0.19783,0.048 0.36997,0.048 l 3.498,0 c 0.17914,0 0.30532,-0.0187 0.37387,-0.048 0.0724,-0.033 0.13007,-0.0886 0.17914,-0.16218 0.0499,-0.0766 0.0733,-0.1577 0.0733,-0.24255 0,-0.0879 -0.0272,-0.16894 -0.0802,-0.24254 -0.0499,-0.0774 -0.1106,-0.12839 -0.18303,-0.16144 -0.0693,-0.0337 -0.19083,-0.048 -0.36297,-0.048 l -1.80079,0 4.361,-10.79854 0.0646,0 4.30337,10.79854 -1.78522,0 c -0.17913,0 -0.30532,0.0143 -0.38165,0.048 -0.0763,0.033 -0.13708,0.0841 -0.18304,0.16144 -0.0499,0.0736 -0.0724,0.15469 -0.0724,0.24254 0,0.0848 0.0226,0.16595 0.0763,0.24255 0.053,0.0736 0.1145,0.12915 0.18304,0.16218 0.0724,0.0293 0.19862,0.048 0.37776,0.048 l 3.4871,0 c 0.17914,0 0.30532,-0.0187 0.37776,-0.048 0.0763,-0.033 0.13709,-0.0886 0.18694,-0.16218 0.0459,-0.0766 0.0724,-0.1577 0.0724,-0.24255 0,-0.0879 -0.0265,-0.16894 -0.0802,-0.24254 -0.0537,-0.0774 -0.11449,-0.12839 -0.18303,-0.16144 -0.0724,-0.0337 -0.19473,-0.048 -0.37387,-0.048 l -0.71736,0 -4.65076,-11.70337"
             style="fill:#2b2929;fill-opacity:1;fill-rule:nonzero;stroke:none"
             id="path642"
             inkscape:connector-curvature="0" /><path
             inkscape:connector-curvature="0"
             id="path5295"
             style="fill:#2b2929;fill-opacity:1;fill-rule:nonzero;stroke:none"
             d="m 277.12781,492.69189 -1.07253,0 -3.6125,7.92264 -0.17915,0 0,-10.79854 1.73538,0 c 0.22121,0 0.38166,-0.0406 0.48057,-0.1254 0.0958,-0.0811 0.14565,-0.19072 0.14565,-0.32739 0,-0.1284 -0.0499,-0.23503 -0.14565,-0.32363 -0.0989,-0.0848 -0.25936,-0.12841 -0.48057,-0.12841 l -3.46841,0 c -0.2212,0 -0.38087,0.0436 -0.47979,0.12841 -0.0958,0.0886 -0.14487,0.19523 -0.14487,0.32363 0,0.13667 0.049,0.24629 0.14487,0.32739 0.0989,0.0848 0.25859,0.1254 0.47979,0.1254 l 0.79448,0 0,10.79854 -0.59196,0 c -0.22121,0 -0.38166,0.0406 -0.48058,0.12165 -0.0951,0.0841 -0.14487,0.19447 -0.14487,0.33039 0,0.13666 0.0499,0.24629 0.14487,0.32738 0.0989,0.0848 0.25937,0.1254 0.48058,0.1254 l 2.30474,0 3.55174,-7.80099 3.49878,7.80099 2.30395,0 c 0.229,0 0.39334,-0.0406 0.49227,-0.1254 0.0958,-0.081 0.14487,-0.19072 0.14487,-0.32738 0,-0.13592 -0.049,-0.2463 -0.14487,-0.33039 -0.0989,-0.0811 -0.26327,-0.12165 -0.49227,-0.12165 l -0.58338,0 0,-10.79854 0.7859,0 c 0.22899,0 0.39256,-0.0406 0.48836,-0.1254 0.0989,-0.0811 0.14877,-0.19072 0.14877,-0.32739 0,-0.1284 -0.0499,-0.23503 -0.14877,-0.32363 -0.0958,-0.0848 -0.25937,-0.12841 -0.48836,-0.12841 l -3.45672,0 c -0.22121,0 -0.38477,0.0436 -0.48447,0.12841 -0.10278,0.0886 -0.15266,0.19523 -0.15266,0.32363 0,0.13667 0.0499,0.24629 0.14487,0.32739 0.0989,0.0848 0.26327,0.1254 0.49226,0.1254 l 1.73225,0 0,10.79854 -0.19861,0 -3.54396,-7.92264" /></g><flowRoot
           transform="matrix(0.8,0,0,-0.8,217.6,863)"
           style="font-size:14px;font-style:normal;font-weight:normal;text-align:center;line-height:125%;letter-spacing:0px;word-spacing:0px;text-anchor:middle;fill:#000000;fill-opacity:1;stroke:none;font-family:Sans"
           id="flowRoot5308"
           xml:space="preserve"><flowRegion
             id="flowRegion5310"><rect
               style="font-size:14px;text-align:center;text-anchor:middle"
               y="427.95749"
               x="62.850906"
               height="47.995213"
               width="175.41115"
               id="rect5312" /></flowRegion><flowPara
             id="flowPara5314">Signal peptide</flowPara></flowRoot></g><g
         transform="translate(0,6.4)"
         id="g5477"><g
           id="g5433"><path
             inkscape:connector-curvature="0"
             id="path5372"
             style="fill:#f8c7d1;fill-opacity:1;fill-rule:evenodd;stroke:none"
             d="m 65.353024,422.85092 132.900746,0 c 2.86476,0 5.20766,-2.25867 5.20766,-5.02044 l 0,-31.07857 c 0,-2.76102 -2.3429,-5.0197 -5.20766,-5.0197 l -132.900746,0 c -2.864255,0 -5.207619,2.25868 -5.207619,5.0197 l 0,31.07857 c 0,2.76177 2.343364,5.02044 5.207619,5.02044" /><path
             inkscape:connector-curvature="0"
             id="path5374"
             style="fill:none;stroke:#2b2929;stroke-width:0.56693006;stroke-linecap:butt;stroke-linejoin:miter;stroke-miterlimit:22.92560005;stroke-opacity:1;stroke-dasharray:none"
             d="m 65.353024,422.85092 132.900746,0 c 2.86476,0 5.20766,-2.25867 5.20766,-5.02044 l 0,-31.07857 c 0,-2.76102 -2.3429,-5.0197 -5.20766,-5.0197 l -132.900746,0 c -2.864255,0 -5.207619,2.25868 -5.207619,5.0197 l 0,31.07857 c 0,2.76177 2.343364,5.02044 5.207619,5.02044 z" /></g><g
           id="g5467"><path
             d="m 79.969123,398.80862 7.210817,0 0,0.35667 c 0,0.21325 0.04596,0.36719 0.133579,0.4633 0.08762,0.0916 0.205939,0.13966 0.347152,0.13966 0.133503,0 0.243949,-0.048 0.335546,-0.13966 0.08794,-0.0961 0.133581,-0.25005 0.133581,-0.4633 l 0,-1.26149 -9.076183,0 0,1.33508 c 1.907659,1.65496 3.761809,3.33545 5.566344,5.04223 0.843072,0.79819 1.419295,1.38313 1.732098,1.75782 0.312724,0.3717 0.526374,0.70284 0.644688,0.98592 0.114419,0.28384 0.17159,0.56993 0.17159,0.85676 0,0.77643 -0.324019,1.46048 -0.972679,2.0567 -0.648661,0.59921 -1.430901,0.89731 -2.34641,0.89731 -0.82025,0 -1.545008,-0.22828 -2.17848,-0.68031 -0.63316,-0.45278 -1.045427,-1.0122 -1.232205,-1.68124 -0.04198,-0.1727 -0.09915,-0.28308 -0.167929,-0.3349 -0.08762,-0.0698 -0.190751,-0.10657 -0.312803,-0.10657 -0.125946,0 -0.232733,0.0406 -0.316697,0.1254 -0.08762,0.0812 -0.129607,0.18021 -0.129607,0.29435 0,0.34541 0.194411,0.81246 0.587517,1.40116 0.389134,0.5887 0.930697,1.05199 1.62134,1.39064 0.686669,0.33791 1.392579,0.50686 2.117337,0.50686 1.171374,0 2.174741,-0.39272 3.017891,-1.17664 0.843071,-0.78394 1.262971,-1.66998 1.262971,-2.6589 0,-0.41976 -0.07244,-0.80196 -0.213961,-1.14812 -0.140824,-0.34916 -0.3815,-0.73136 -0.720708,-1.1436 -0.339596,-0.41225 -0.946274,-1.03698 -1.827668,-1.86821 -2.204962,-2.09649 -3.998202,-3.72592 -5.387121,-4.88079 l 0,-0.0661"
             style="fill:#2b2929;fill-opacity:1;fill-rule:nonzero;stroke:none"
             id="path340"
             inkscape:connector-curvature="0" /><path
             d="m 99.678414,405.26327 c 0.862546,-0.37544 1.522416,-0.88605 1.976436,-1.53407 0.45394,-0.65102 0.6827,-1.32757 0.6827,-2.03341 0,-1.08504 -0.4576,-2.04166 -1.36945,-2.8729 -0.91185,-0.82748 -2.056426,-1.24347 -3.425873,-1.24347 -0.805061,0 -1.640889,0.16594 -2.503121,0.49708 -0.865894,0.33115 -1.468599,0.66904 -1.812168,1.01145 -0.110369,0.11789 -0.167618,0.23879 -0.167618,0.36794 0,0.11414 0.04564,0.21325 0.129609,0.3011 0.08365,0.0848 0.186855,0.12915 0.309141,0.12915 0.118314,0 0.251582,-0.0556 0.400428,-0.16218 1.156108,-0.82373 2.376786,-1.23972 3.66624,-1.23972 1.08741,0 1.999257,0.33114 2.731882,0.98591 0.73629,0.65853 1.1026,1.39065 1.1026,2.19185 0,0.54065 -0.18312,1.07077 -0.54188,1.58588 -0.36234,0.51812 -0.88139,0.9266 -1.560504,1.2247 -0.678804,0.29736 -1.361813,0.44528 -2.056428,0.44528 -0.224866,0 -0.385162,0.0398 -0.48042,0.12464 -0.09558,0.0812 -0.144875,0.19149 -0.144875,0.32739 0,0.12841 0.04564,0.23879 0.140902,0.32364 0.0916,0.0879 0.232732,0.1284 0.415928,0.1284 l 0.80475,-0.0108 c 0.843383,0 1.537687,0.25004 2.087197,0.74639 0.54553,0.49333 0.82025,1.07002 0.82025,1.72104 0,0.67729 -0.28601,1.27275 -0.86223,1.79161 -0.572334,0.51512 -1.319914,0.77568 -2.243289,0.77568 -0.64866,0 -1.247784,-0.11038 -1.789346,-0.32364 -0.545535,-0.217 -0.980624,-0.5106 -1.308537,-0.88604 -0.118391,-0.14343 -0.209988,-0.23203 -0.274793,-0.26132 -0.06114,-0.033 -0.133579,-0.0511 -0.217544,-0.0511 -0.125947,0 -0.232421,0.0436 -0.32433,0.12465 -0.08762,0.0848 -0.13358,0.18022 -0.13358,0.29811 0,0.28684 0.32433,0.64726 0.973069,1.08878 0.900242,0.61048 1.92682,0.91534 3.075061,0.91534 1.182668,0 2.155659,-0.34542 2.914769,-1.02947 0.7591,-0.68781 1.1406,-1.50403 1.1406,-2.45316 0,-0.60296 -0.18311,-1.17364 -0.54553,-1.71052 -0.366,-0.54064 -0.90422,-0.9709 -1.610046,-1.29454"
             style="fill:#2b2929;fill-opacity:1;fill-rule:nonzero;stroke:none"
             id="path342"
             inkscape:connector-curvature="0" /><path
             d="m 107.44629,398.80862 7.2105,0 0,0.35667 c 0,0.21325 0.0459,0.36719 0.13358,0.4633 0.0877,0.0916 0.20602,0.13966 0.34747,0.13966 0.13327,0 0.24403,-0.048 0.33563,-0.13966 0.088,-0.0961 0.13358,-0.25005 0.13358,-0.4633 l 0,-1.26149 -9.07657,0 0,1.33508 c 1.90765,1.65496 3.7618,3.33545 5.56633,5.04223 0.84339,0.79819 1.41969,1.38313 1.73242,1.75782 0.31249,0.3717 0.52638,0.70284 0.64476,0.98592 0.11434,0.28384 0.1716,0.56993 0.1716,0.85676 0,0.77643 -0.32434,1.46048 -0.97299,2.0567 -0.64874,0.59921 -1.43068,0.89731 -2.34618,0.89731 -0.82025,0 -1.54524,-0.22828 -2.17871,-0.68031 -0.63316,-0.45278 -1.04543,-1.0122 -1.23221,-1.68124 -0.0417,-0.1727 -0.0989,-0.28308 -0.16801,-0.3349 -0.0876,-0.0698 -0.19075,-0.10657 -0.31241,-0.10657 -0.12634,0 -0.23312,0.0406 -0.31708,0.1254 -0.0877,0.0812 -0.12962,0.18021 -0.12962,0.29435 0,0.34541 0.19473,0.81246 0.58752,1.40116 0.38913,0.5887 0.93101,1.05199 1.62166,1.39064 0.68674,0.33791 1.39257,0.50686 2.11733,0.50686 1.17137,0 2.17482,-0.39272 3.01758,-1.17664 0.84338,-0.78394 1.26297,-1.66998 1.26297,-2.6589 0,-0.41976 -0.0724,-0.80196 -0.21357,-1.14812 -0.14121,-0.34916 -0.38158,-0.73136 -0.7211,-1.1436 -0.33952,-0.41225 -0.94619,-1.03698 -1.82767,-1.86821 -2.20488,-2.09649 -3.9982,-3.72592 -5.38681,-4.88079 l 0,-0.0661"
             style="fill:#2b2929;fill-opacity:1;fill-rule:nonzero;stroke:none"
             id="path344"
             inkscape:connector-curvature="0" /><path
             d="m 122.63832,410.51198 0,-4.42874 c 0.55341,0.22076 1.07979,0.38971 1.587,0.50009 0.50776,0.11038 0.98849,0.16595 1.44243,0.16595 1.17901,0 2.16329,-0.39722 2.95674,-1.19542 0.79354,-0.7982 1.19031,-1.84644 1.19031,-3.14472 0,-1.43796 -0.44639,-2.60034 -1.34304,-3.49464 -0.89261,-0.88981 -2.01048,-1.33508 -3.35344,-1.33508 -0.88505,0 -1.73973,0.19147 -2.5564,0.57067 -0.58354,0.26806 -1.10992,0.59545 -1.58699,0.99267 -0.28594,0.23578 -0.42714,0.43402 -0.42714,0.59246 0,0.1284 0.0456,0.23878 0.13326,0.32739 0.0916,0.0916 0.19472,0.1359 0.31312,0.1359 0.1296,0 0.26311,-0.0661 0.40432,-0.19522 1.12542,-1.0107 2.35007,-1.51905 3.67785,-1.51905 1.09496,0 1.99894,0.36042 2.71638,1.08579 0.71346,0.72009 1.07214,1.68048 1.07214,2.87966 0,1.02271 -0.30906,1.84268 -0.92704,2.46442 -0.6182,0.62173 -1.4041,0.93035 -2.35793,0.93035 -0.97666,0 -1.95338,-0.24704 -2.93004,-0.74263 -0.23669,-0.11414 -0.40431,-0.17346 -0.50347,-0.17346 -0.13358,0 -0.24036,0.0444 -0.3244,0.12915 -0.0804,0.0879 -0.12229,0.2095 -0.12229,0.36718 l 0,6.00337 6.55094,0 c 0.22113,0 0.3815,-0.0444 0.48073,-0.12915 0.0952,-0.0886 0.14511,-0.19899 0.14511,-0.3349 0,-0.1284 -0.0499,-0.23879 -0.14511,-0.32363 -0.0992,-0.0886 -0.2596,-0.12841 -0.48073,-0.12841 l -5.61231,0"
             style="fill:#2b2929;fill-opacity:1;fill-rule:nonzero;stroke:none"
             id="path346"
             inkscape:connector-curvature="0" /><path
             d="m 134.92323,398.80862 7.21066,0 0,0.35667 c 0,0.21325 0.0459,0.36719 0.13397,0.4633 0.0872,0.0916 0.20562,0.13966 0.34661,0.13966 0.13397,0 0.24457,-0.048 0.3357,-0.13966 0.088,-0.0961 0.13397,-0.25005 0.13397,-0.4633 l 0,-1.26149 -9.07642,0 0,1.33508 c 1.90767,1.65496 3.76205,3.33545 5.56595,5.04223 0.84355,0.79819 1.41993,1.38313 1.73226,1.75782 0.31312,0.3717 0.52654,0.70284 0.64492,0.98592 0.1145,0.28384 0.17136,0.56993 0.17136,0.85676 0,0.77643 -0.32402,1.46048 -0.97205,2.0567 -0.64883,0.59921 -1.43083,0.89731 -2.34681,0.89731 -0.82016,0 -1.54532,-0.22828 -2.17848,-0.68031 -0.63316,-0.45278 -1.04542,-1.0122 -1.2322,-1.68124 -0.042,-0.1727 -0.0991,-0.28308 -0.16793,-0.3349 -0.0877,-0.0698 -0.19083,-0.10657 -0.3128,-0.10657 -0.12594,0 -0.23274,0.0406 -0.3167,0.1254 -0.0876,0.0812 -0.1296,0.18021 -0.1296,0.29435 0,0.34541 0.1944,0.81246 0.58751,1.40116 0.38913,0.5887 0.9307,1.05199 1.62134,1.39064 0.68636,0.33791 1.39281,0.50686 2.11718,0.50686 1.17145,0 2.17466,-0.39272 3.0182,-1.17664 0.84276,-0.78394 1.26259,-1.66998 1.26259,-2.6589 0,-0.41976 -0.0724,-0.80196 -0.21342,-1.14812 -0.14098,-0.34916 -0.38165,-0.73136 -0.72125,-1.1436 -0.3396,-0.41225 -0.94635,-1.03698 -1.82728,-1.86821 -2.20505,-2.09649 -3.99836,-3.72592 -5.38728,-4.88079 l 0,-0.0661"
             style="fill:#2b2929;fill-opacity:1;fill-rule:nonzero;stroke:none"
             id="path348"
             inkscape:connector-curvature="0" /><path
             d="m 149.90178,403.62633 c 0.58338,0.82373 1.17924,1.43494 1.79689,1.83216 0.61454,0.39348 1.29685,0.5917 2.04848,0.5917 1.0001,0 1.88493,-0.40097 2.65914,-1.20292 0.7789,-0.8012 1.16444,-1.79086 1.16444,-2.96826 0,-1.07753 -0.35517,-2.0627 -1.06085,-2.95625 -0.70957,-0.89432 -1.68629,-1.34334 -2.93019,-1.34334 -0.81315,0 -1.5679,0.24328 -2.27358,0.72084 -0.70255,0.48208 -1.25557,1.22171 -1.65982,2.22189 -0.50005,1.24347 -0.74773,2.6191 -0.74773,4.12689 0,1.1361 0.23289,2.19185 0.70178,3.1665 0.35829,0.75464 0.83575,1.41994 1.43083,1.98986 0.59896,0.56992 1.29295,1.03698 2.08664,1.40115 0.7937,0.36044 1.65204,0.5444 2.57502,0.5444 0.62622,0 1.14886,-0.12465 1.56479,-0.36718 0.17915,-0.10733 0.26716,-0.25005 0.26716,-0.43101 0,-0.12841 -0.0382,-0.23503 -0.12228,-0.31988 -0.0803,-0.0812 -0.18694,-0.1209 -0.31312,-0.1209 -0.0951,0 -0.20952,0.0368 -0.34661,0.10657 -0.30532,0.14343 -0.68308,0.21701 -1.13718,0.21701 -1.45341,0 -2.77753,-0.60371 -3.97546,-1.80664 -1.19404,-1.20217 -1.79301,-2.63336 -1.79301,-4.29509 0,-0.23577 0.0225,-0.60746 0.0647,-1.10756 z m 0.2134,-1.50028 c 0.28274,-1.3058 0.72905,-2.23991 1.3358,-2.79931 0.60598,-0.56243 1.32412,-0.8425 2.1513,-0.8425 0.83575,0 1.54922,0.31613 2.1404,0.94537 0.59117,0.62549 0.88872,1.44546 0.88872,2.4494 0,0.94162 -0.29755,1.72178 -0.89262,2.33977 -0.59819,0.61723 -1.27037,0.92659 -2.02511,0.92659 -0.72126,0 -1.41993,-0.2981 -2.08743,-0.89355 -0.4502,-0.39722 -0.95025,-1.10381 -1.51106,-2.12577"
             style="fill:#2b2929;fill-opacity:1;fill-rule:nonzero;stroke:none"
             id="path350"
             inkscape:connector-curvature="0" /><path
             inkscape:connector-curvature="0"
             id="path5366"
             style="fill:#2b2929;fill-opacity:1;fill-rule:nonzero;stroke:none"
             d="m 168.47841,405.26327 c 0.86255,-0.37544 1.52242,-0.88605 1.97644,-1.53407 0.45394,-0.65102 0.6827,-1.32757 0.6827,-2.03341 0,-1.08504 -0.4576,-2.04166 -1.36945,-2.8729 -0.91185,-0.82748 -2.05643,-1.24347 -3.42587,-1.24347 -0.80506,0 -1.64089,0.16594 -2.50312,0.49708 -0.8659,0.33115 -1.4686,0.66904 -1.81217,1.01145 -0.11037,0.11789 -0.16762,0.23879 -0.16762,0.36794 0,0.11414 0.0456,0.21325 0.12961,0.3011 0.0837,0.0848 0.18685,0.12915 0.30914,0.12915 0.11831,0 0.25158,-0.0556 0.40043,-0.16218 1.15611,-0.82373 2.37678,-1.23972 3.66624,-1.23972 1.08741,0 1.99926,0.33114 2.73188,0.98591 0.73629,0.65853 1.1026,1.39065 1.1026,2.19185 0,0.54065 -0.18312,1.07077 -0.54188,1.58588 -0.36234,0.51812 -0.88139,0.9266 -1.5605,1.2247 -0.67881,0.29736 -1.36182,0.44528 -2.05643,0.44528 -0.22487,0 -0.38516,0.0398 -0.48042,0.12464 -0.0956,0.0812 -0.14488,0.19149 -0.14488,0.32739 0,0.12841 0.0456,0.23879 0.1409,0.32364 0.0916,0.0879 0.23274,0.1284 0.41593,0.1284 l 0.80475,-0.0108 c 0.84339,0 1.53769,0.25004 2.0872,0.74639 0.54553,0.49333 0.82025,1.07002 0.82025,1.72104 0,0.67729 -0.28601,1.27275 -0.86223,1.79161 -0.57233,0.51512 -1.31991,0.77568 -2.24329,0.77568 -0.64866,0 -1.24778,-0.11038 -1.78935,-0.32364 -0.54553,-0.217 -0.98062,-0.5106 -1.30853,-0.88604 -0.11839,-0.14343 -0.20999,-0.23203 -0.2748,-0.26132 -0.0611,-0.033 -0.13357,-0.0511 -0.21754,-0.0511 -0.12595,0 -0.23242,0.0436 -0.32433,0.12465 -0.0876,0.0848 -0.13358,0.18022 -0.13358,0.29811 0,0.28684 0.32433,0.64726 0.97307,1.08878 0.90024,0.61048 1.92682,0.91534 3.07506,0.91534 1.18267,0 2.15566,-0.34542 2.91477,-1.02947 0.7591,-0.68781 1.1406,-1.50403 1.1406,-2.45316 0,-0.60296 -0.18311,-1.17364 -0.54553,-1.71052 -0.366,-0.54064 -0.90422,-0.9709 -1.61005,-1.29454" /><path
             inkscape:connector-curvature="0"
             id="path5368"
             style="fill:#2b2929;fill-opacity:1;fill-rule:nonzero;stroke:none"
             d="m 175.96912,398.80862 7.21082,0 0,0.35667 c 0,0.21325 0.046,0.36719 0.13358,0.4633 0.0876,0.0916 0.20594,0.13966 0.34715,0.13966 0.1335,0 0.24395,-0.048 0.33555,-0.13966 0.0879,-0.0961 0.13358,-0.25005 0.13358,-0.4633 l 0,-1.26149 -9.07619,0 0,1.33508 c 1.90766,1.65496 3.76181,3.33545 5.56635,5.04223 0.84307,0.79819 1.41929,1.38313 1.7321,1.75782 0.31272,0.3717 0.52637,0.70284 0.64468,0.98592 0.11442,0.28384 0.17159,0.56993 0.17159,0.85676 0,0.77643 -0.32401,1.46048 -0.97267,2.0567 -0.64867,0.59921 -1.43091,0.89731 -2.34641,0.89731 -0.82025,0 -1.54501,-0.22828 -2.17848,-0.68031 -0.63316,-0.45278 -1.04543,-1.0122 -1.23221,-1.68124 -0.042,-0.1727 -0.0992,-0.28308 -0.16793,-0.3349 -0.0876,-0.0698 -0.19075,-0.10657 -0.3128,-0.10657 -0.12595,0 -0.23273,0.0406 -0.3167,0.1254 -0.0876,0.0812 -0.12961,0.18021 -0.12961,0.29435 0,0.34541 0.19442,0.81246 0.58752,1.40116 0.38914,0.5887 0.9307,1.05199 1.62134,1.39064 0.68667,0.33791 1.39258,0.50686 2.11734,0.50686 1.17137,0 2.17474,-0.39272 3.01789,-1.17664 0.84307,-0.78394 1.26297,-1.66998 1.26297,-2.6589 0,-0.41976 -0.0724,-0.80196 -0.21396,-1.14812 -0.14082,-0.34916 -0.3815,-0.73136 -0.72071,-1.1436 -0.33959,-0.41225 -0.94627,-1.03698 -1.82767,-1.86821 -2.20496,-2.09649 -3.9982,-3.72592 -5.38712,-4.88079 l 0,-0.0661" /></g></g><path
         inkscape:connector-curvature="0"
         id="path5519"
         style="fill:#bde3fa;fill-opacity:1;fill-rule:evenodd;stroke:none"
         d="m 271.3114,430.85092 132.90139,0 c 2.86398,0 5.20689,-2.25867 5.20689,-5.02044 l 0,-31.07857 c 0,-2.76102 -2.34291,-5.0197 -5.20689,-5.0197 l -132.90139,0 c -2.86398,0 -5.20767,2.25868 -5.20767,5.0197 l 0,31.07857 c 0,2.76177 2.34369,5.02044 5.20767,5.02044" /><path
         inkscape:connector-curvature="0"
         id="path5521"
         style="fill:none;stroke:#2b2929;stroke-width:0.56693006;stroke-linecap:butt;stroke-linejoin:miter;stroke-miterlimit:22.92560005;stroke-opacity:1;stroke-dasharray:none"
         d="m 271.3114,430.85092 132.90139,0 c 2.86398,0 5.20689,-2.25867 5.20689,-5.02044 l 0,-31.07857 c 0,-2.76102 -2.34291,-5.0197 -5.20689,-5.0197 l -132.90139,0 c -2.86398,0 -5.20767,2.25868 -5.20767,5.0197 l 0,31.07857 c 0,2.76177 2.34369,5.02044 5.20767,5.02044 z" /><g
         transform="translate(0,110.4)"
         id="g5507"><path
           inkscape:connector-curvature="0"
           id="path260"
           style="fill:#2b2929;fill-opacity:1;fill-rule:nonzero;stroke:none"
           d="m 291.71835,299.28453 -6.22645,0 0,1.04824 5.21934,8.6953 1.95736,0 0,-8.83872 0.782,0 c 0.22899,0 0.39256,-0.0406 0.49226,-0.12165 0.0951,-0.0841 0.14487,-0.19448 0.14487,-0.33114 0,-0.1284 -0.0499,-0.23502 -0.14487,-0.32364 -0.0997,-0.0841 -0.26327,-0.12839 -0.49226,-0.12839 l -0.782,0 0,-2.87591 0.782,0 c 0.22899,0 0.39256,-0.0406 0.49226,-0.1254 0.0951,-0.0811 0.14487,-0.19147 0.14487,-0.32739 0,-0.12839 -0.0499,-0.23502 -0.14487,-0.32363 -0.0997,-0.0848 -0.26327,-0.1284 -0.49226,-0.1284 l -3.48709,0 c -0.2329,0 -0.39724,0.0435 -0.49226,0.1284 -0.0958,0.0886 -0.14488,0.19524 -0.14488,0.32363 0,0.13592 0.049,0.2463 0.14488,0.32739 0.0951,0.0848 0.25936,0.1254 0.49226,0.1254 l 1.75484,0 0,2.87591 z m 0,0.90482 0,7.92263 -0.49226,0 -4.74968,-7.92263 5.24194,0" /><path
           inkscape:connector-curvature="0"
           id="path262"
           style="fill:#2b2929;fill-opacity:1;fill-rule:nonzero;stroke:none"
           d="m 301.11878,308.11198 0,-4.42874 c 0.5538,0.22076 1.07954,0.38971 1.58739,0.50009 0.50705,0.11038 0.98841,0.16595 1.44172,0.16595 1.17924,0 2.16376,-0.39722 2.95744,-1.19542 0.79292,-0.7982 1.19016,-1.84644 1.19016,-3.14472 0,-1.43796 -0.44631,-2.60034 -1.34281,-3.49464 -0.89339,-0.88981 -2.0111,-1.33508 -3.35391,-1.33508 -0.88482,0 -1.74004,0.19147 -2.55631,0.57067 -0.5834,0.26806 -1.10992,0.59545 -1.58661,0.99267 -0.28663,0.23578 -0.42761,0.43402 -0.42761,0.59246 0,0.1284 0.0459,0.23878 0.13319,0.32739 0.0919,0.0916 0.19472,0.1359 0.31311,0.1359 0.13008,0 0.26327,-0.0661 0.40503,-0.19522 1.12471,-1.0107 2.34991,-1.51905 3.67714,-1.51905 1.09512,0 1.99942,0.36042 2.71677,1.08579 0.71347,0.72009 1.07176,1.68048 1.07176,2.87966 0,1.02271 -0.30844,1.84268 -0.92688,2.46442 -0.61766,0.62173 -1.40356,0.93035 -2.35771,0.93035 -0.97672,0 -1.95346,-0.24704 -2.93019,-0.74263 -0.23678,-0.11414 -0.40424,-0.17346 -0.50394,-0.17346 -0.13319,0 -0.23989,0.0444 -0.32402,0.12915 -0.0802,0.0879 -0.12228,0.2095 -0.12228,0.36718 l 0,6.00337 6.55126,0 c 0.2212,0 0.38165,-0.0444 0.48056,-0.12915 0.0951,-0.0886 0.14488,-0.19899 0.14488,-0.3349 0,-0.1284 -0.0499,-0.23879 -0.14488,-0.32363 -0.0989,-0.0886 -0.25936,-0.12841 -0.48056,-0.12841 l -5.6127,0" /><path
           inkscape:connector-curvature="0"
           id="path264"
           style="fill:#2b2929;fill-opacity:1;fill-rule:nonzero;stroke:none"
           d="m 319.37443,302.86327 c 0.86301,-0.37544 1.52273,-0.88605 1.97682,-1.53407 0.4541,-0.65102 0.68231,-1.32757 0.68231,-2.03341 0,-1.08504 -0.45721,-2.04166 -1.36929,-2.8729 -0.91208,-0.82748 -2.05627,-1.24347 -3.42556,-1.24347 -0.80537,0 -1.64112,0.16594 -2.50335,0.49708 -0.86613,0.33115 -1.46899,0.66904 -1.81249,1.01145 -0.10982,0.11789 -0.16746,0.23879 -0.16746,0.36794 0,0.11414 0.0459,0.21325 0.1293,0.3011 0.0841,0.0848 0.18694,0.12915 0.30921,0.12915 0.1184,0 0.25237,-0.0556 0.40114,-0.16218 1.15588,-0.82373 2.3764,-1.23972 3.66624,-1.23972 1.08733,0 1.99863,0.33114 2.73156,0.98591 0.73607,0.65853 1.10292,1.39065 1.10292,2.19185 0,0.54065 -0.18382,1.07077 -0.54211,1.58588 -0.36218,0.51812 -0.88171,0.9266 -1.5609,1.2247 -0.67841,0.29736 -1.36149,0.44528 -2.05627,0.44528 -0.22432,0 -0.38477,0.0398 -0.48057,0.12464 -0.0951,0.0812 -0.14488,0.19149 -0.14488,0.32739 0,0.12841 0.0459,0.23879 0.14098,0.32364 0.0919,0.0879 0.23289,0.1284 0.41593,0.1284 l 0.8046,-0.0108 c 0.84353,0 1.5383,0.25004 2.08742,0.74639 0.546,0.49333 0.82017,1.07002 0.82017,1.72104 0,0.67729 -0.28585,1.27275 -0.86223,1.79161 -0.57171,0.51512 -1.32022,0.77568 -2.2432,0.77568 -0.64883,0 -1.24779,-0.11038 -1.78912,-0.32364 -0.54523,-0.217 -0.98062,-0.5106 -1.30853,-0.88604 -0.1184,-0.14343 -0.2103,-0.23203 -0.27496,-0.26132 -0.0607,-0.033 -0.13318,-0.0511 -0.21731,-0.0511 -0.12618,0 -0.23288,0.0436 -0.32479,0.12465 -0.0872,0.0848 -0.13319,0.18022 -0.13319,0.29811 0,0.28684 0.32402,0.64726 0.97283,1.08878 0.9004,0.61048 1.92698,0.91534 3.07507,0.91534 1.18313,0 2.15518,-0.34542 2.91461,-1.02947 0.75941,-0.68781 1.14107,-1.50403 1.14107,-2.45316 0,-0.60296 -0.18304,-1.17364 -0.546,-1.71052 -0.3653,-0.54064 -0.90352,-0.9709 -1.60997,-1.29454" /><path
           inkscape:connector-curvature="0"
           id="path266"
           style="fill:#2b2929;fill-opacity:1;fill-rule:nonzero;stroke:none"
           d="m 333.11329,302.86327 c 0.86223,-0.37544 1.52195,-0.88605 1.97604,-1.53407 0.45409,-0.65102 0.68309,-1.32757 0.68309,-2.03341 0,-1.08504 -0.45798,-2.04166 -1.36929,-2.8729 -0.91208,-0.82748 -2.05627,-1.24347 -3.42634,-1.24347 -0.8046,0 -1.64034,0.16594 -2.50258,0.49708 -0.86612,0.33115 -1.46899,0.66904 -1.81248,1.01145 -0.1106,0.11789 -0.16823,0.23879 -0.16823,0.36794 0,0.11414 0.0459,0.21325 0.13007,0.3011 0.0841,0.0848 0.18693,0.12915 0.30921,0.12915 0.1184,0 0.25159,-0.0556 0.40036,-0.16218 1.15587,-0.82373 2.37718,-1.23972 3.66623,-1.23972 1.08734,0 1.99942,0.33114 2.73235,0.98591 0.73606,0.65853 1.10214,1.39065 1.10214,2.19185 0,0.54065 -0.18304,1.07077 -0.54133,1.58588 -0.36297,0.51812 -0.88171,0.9266 -1.5609,1.2247 -0.6792,0.29736 -1.36228,0.44528 -2.05628,0.44528 -0.22509,0 -0.38554,0.0398 -0.48056,0.12464 -0.0958,0.0812 -0.14488,0.19149 -0.14488,0.32739 0,0.12841 0.0452,0.23879 0.14097,0.32364 0.0919,0.0879 0.23289,0.1284 0.41594,0.1284 l 0.80459,-0.0108 c 0.84354,0 1.53753,0.25004 2.08743,0.74639 0.54523,0.49333 0.82017,1.07002 0.82017,1.72104 0,0.67729 -0.28663,1.27275 -0.86223,1.79161 -0.57248,0.51512 -1.32022,0.77568 -2.2432,0.77568 -0.64883,0 -1.24779,-0.11038 -1.78912,-0.32364 -0.546,-0.217 -0.98062,-0.5106 -1.30853,-0.88604 -0.1184,-0.14343 -0.2103,-0.23203 -0.27496,-0.26132 -0.0616,-0.033 -0.13396,-0.0511 -0.21808,-0.0511 -0.12541,0 -0.23211,0.0436 -0.32402,0.12465 -0.088,0.0848 -0.1332,0.18022 -0.1332,0.29811 0,0.28684 0.32402,0.64726 0.97206,1.08878 0.90118,0.61048 1.92698,0.91534 3.07585,0.91534 1.18235,0 2.15518,-0.34542 2.9146,-1.02947 0.75942,-0.68781 1.14108,-1.50403 1.14108,-2.45316 0,-0.60296 -0.18382,-1.17364 -0.546,-1.71052 -0.36609,-0.54064 -0.9043,-0.9709 -1.60997,-1.29454" /><path
           inkscape:connector-curvature="0"
           id="path268"
           style="fill:#2b2929;fill-opacity:1;fill-rule:nonzero;stroke:none"
           d="m 346.85214,302.86327 c 0.86224,-0.37544 1.52195,-0.88605 1.97605,-1.53407 0.45409,-0.65102 0.68309,-1.32757 0.68309,-2.03341 0,-1.08504 -0.45799,-2.04166 -1.37007,-2.8729 -0.91208,-0.82748 -2.05628,-1.24347 -3.42556,-1.24347 -0.80538,0 -1.64113,0.16594 -2.50336,0.49708 -0.86612,0.33115 -1.46899,0.66904 -1.8117,1.01145 -0.1106,0.11789 -0.16824,0.23879 -0.16824,0.36794 0,0.11414 0.0459,0.21325 0.13008,0.3011 0.0834,0.0848 0.18693,0.12915 0.30844,0.12915 0.11838,0 0.25158,-0.0556 0.40112,-0.16218 1.15588,-0.82373 2.3764,-1.23972 3.66624,-1.23972 1.08734,0 1.99942,0.33114 2.73158,0.98591 0.73683,0.65853 1.10291,1.39065 1.10291,2.19185 0,0.54065 -0.18382,1.07077 -0.54211,1.58588 -0.36219,0.51812 -0.88093,0.9266 -1.56012,1.2247 -0.6792,0.29736 -1.36228,0.44528 -2.05628,0.44528 -0.22588,0 -0.38554,0.0398 -0.48135,0.12464 -0.0951,0.0812 -0.14487,0.19149 -0.14487,0.32739 0,0.12841 0.0459,0.23879 0.14175,0.32364 0.0911,0.0879 0.23212,0.1284 0.41515,0.1284 l 0.80538,-0.0108 c 0.84276,0 1.53753,0.25004 2.08743,0.74639 0.54522,0.49333 0.82017,1.07002 0.82017,1.72104 0,0.67729 -0.28663,1.27275 -0.86302,1.79161 -0.57169,0.51512 -1.31943,0.77568 -2.2432,0.77568 -0.64881,0 -1.247,-0.11038 -1.78911,-0.32364 -0.546,-0.217 -0.98063,-0.5106 -1.30854,-0.88604 -0.11839,-0.14343 -0.2103,-0.23203 -0.27494,-0.26132 -0.0607,-0.033 -0.1332,-0.0511 -0.21731,-0.0511 -0.12619,0 -0.2329,0.0436 -0.32402,0.12465 -0.088,0.0848 -0.13397,0.18022 -0.13397,0.29811 0,0.28684 0.32479,0.64726 0.97283,1.08878 0.9004,0.61048 1.92698,0.91534 3.07506,0.91534 1.18313,0 2.15597,-0.34542 2.91539,-1.02947 0.75864,-0.68781 1.1403,-1.50403 1.1403,-2.45316 0,-0.60296 -0.18304,-1.17364 -0.54601,-1.71052 -0.36607,-0.54064 -0.90351,-0.9709 -1.60919,-1.29454" /><path
           inkscape:connector-curvature="0"
           id="path270"
           style="fill:#2b2929;fill-opacity:1;fill-rule:nonzero;stroke:none"
           d="m 355.85924,301.22633 c 0.58417,0.82373 1.17925,1.43494 1.7969,1.83216 0.61454,0.39348 1.29764,0.5917 2.04927,0.5917 0.99931,0 1.88413,-0.40097 2.65913,-1.20292 0.77811,-0.8012 1.16366,-1.79086 1.16366,-2.96826 0,-1.07753 -0.35518,-2.0627 -1.06085,-2.95625 -0.70957,-0.89432 -1.68629,-1.34334 -2.93019,-1.34334 -0.81238,0 -1.5679,0.24328 -2.27358,0.72084 -0.70178,0.48208 -1.25557,1.22171 -1.65982,2.22189 -0.49926,1.24347 -0.74773,2.6191 -0.74773,4.12689 0,1.1361 0.23289,2.19185 0.70178,3.1665 0.35829,0.75464 0.83574,1.41994 1.43083,1.98986 0.59896,0.56992 1.29373,1.03698 2.08664,1.40115 0.7937,0.36044 1.65203,0.5444 2.57579,0.5444 0.62545,0 1.14809,-0.12465 1.56402,-0.36718 0.17915,-0.10733 0.26716,-0.25005 0.26716,-0.43101 0,-0.12841 -0.0382,-0.23503 -0.12229,-0.31988 -0.0802,-0.0812 -0.18694,-0.1209 -0.31234,-0.1209 -0.0958,0 -0.21029,0.0368 -0.34738,0.10657 -0.30532,0.14343 -0.68308,0.21701 -1.13718,0.21701 -1.45341,0 -2.77753,-0.60371 -3.97546,-1.80664 -1.19405,-1.20217 -1.79301,-2.63336 -1.79301,-4.29509 0,-0.23577 0.0234,-0.60746 0.0646,-1.10756 z m 0.2142,-1.50028 c 0.28195,-1.3058 0.72826,-2.23991 1.33501,-2.79931 0.60676,-0.56243 1.32412,-0.8425 2.15209,-0.8425 0.83496,0 1.54843,0.31613 2.14038,0.94537 0.59118,0.62549 0.88872,1.44546 0.88872,2.4494 0,0.94162 -0.29754,1.72178 -0.89261,2.33977 -0.59897,0.61723 -1.27115,0.92659 -2.02589,0.92659 -0.72126,0 -1.41915,-0.2981 -2.08666,-0.89355 -0.45097,-0.39722 -0.95024,-1.10381 -1.51104,-2.12577" /><path
           inkscape:connector-curvature="0"
           id="path290"
           style="fill:#2b2929;fill-opacity:1;fill-rule:nonzero;stroke:none"
           d="m 388.06716,302.43402 c 0.86223,-0.37469 1.52274,-0.88605 1.97605,-1.53332 0.45487,-0.65102 0.68309,-1.32832 0.68309,-2.03415 0,-1.08504 -0.45722,-2.04168 -1.3693,-2.87291 -0.91208,-0.82747 -2.05626,-1.24272 -3.42634,-1.24272 -0.80459,0 -1.64034,0.1652 -2.50257,0.49634 -0.86613,0.33114 -1.46899,0.6698 -1.81248,1.01145 -0.1106,0.11789 -0.16746,0.23878 -0.16746,0.36794 0,0.11412 0.0459,0.21324 0.1293,0.3011 0.0841,0.0848 0.18692,0.12915 0.30921,0.12915 0.1184,0 0.25236,-0.0555 0.40113,-0.16144 1.15587,-0.82447 2.37639,-1.23972 3.66624,-1.23972 1.08733,0 1.99864,0.33039 2.73157,0.98517 0.73605,0.65853 1.10291,1.39065 1.10291,2.19259 0,0.54065 -0.18382,1.07003 -0.54211,1.58514 -0.36218,0.5181 -0.8817,0.9266 -1.56089,1.2247 -0.67842,0.2981 -1.36151,0.44528 -2.05628,0.44528 -0.22509,0 -0.38477,0.0406 -0.48058,0.12464 -0.0951,0.0811 -0.14487,0.19147 -0.14487,0.32739 0,0.12915 0.0459,0.23878 0.14098,0.32363 0.0919,0.0886 0.23289,0.12916 0.41593,0.12916 l 0.80459,-0.0113 c 0.84354,0 1.53831,0.25004 2.08743,0.74638 0.54601,0.49334 0.82018,1.07077 0.82018,1.7218 0,0.67654 -0.28586,1.27276 -0.86223,1.79086 -0.5725,0.51511 -1.32023,0.77643 -2.24322,0.77643 -0.64881,0 -1.24778,-0.11113 -1.78911,-0.32439 -0.54522,-0.21626 -0.98061,-0.5106 -1.30854,-0.88604 -0.11838,-0.14343 -0.2103,-0.23203 -0.27494,-0.26132 -0.0607,-0.033 -0.1332,-0.0511 -0.21731,-0.0511 -0.12618,0 -0.23289,0.0443 -0.3248,0.12465 -0.088,0.0848 -0.13319,0.18022 -0.13319,0.2981 0,0.28685 0.32402,0.64727 0.97283,1.08879 0.90041,0.61048 1.92698,0.91608 3.07506,0.91608 1.18314,0 2.1552,-0.34616 2.91462,-1.03021 0.75942,-0.68781 1.14107,-1.50403 1.14107,-2.45316 0,-0.60296 -0.18303,-1.17364 -0.546,-1.71053 -0.36608,-0.54063 -0.90429,-0.97089 -1.60997,-1.29453" /><path
           inkscape:connector-curvature="0"
           id="path306"
           style="fill:#2b2929;fill-opacity:1;fill-rule:nonzero;stroke:none"
           d="m 368.3581,296.19362 7.21098,0 0,0.35668 c 0,0.21325 0.0459,0.36793 0.13318,0.46329 0.0881,0.0924 0.20641,0.14042 0.34739,0.14042 0.13319,0 0.24379,-0.048 0.33571,-0.14042 0.088,-0.0953 0.13318,-0.25004 0.13318,-0.46329 l 0,-1.2615 -9.07563,0 0,1.33508 c 1.90672,1.65571 3.76126,3.33621 5.56595,5.04223 0.84276,0.79895 1.41914,1.38314 1.73226,1.75858 0.31233,0.37169 0.52652,0.70208 0.64492,0.98592 0.11372,0.28308 0.17135,0.56992 0.17135,0.85676 0,0.77567 -0.32402,1.46048 -0.97283,2.05593 -0.64881,0.59921 -1.43082,0.89732 -2.34602,0.89732 -0.82095,0 -1.54532,-0.22752 -2.17856,-0.68031 -0.63401,-0.45203 -1.04527,-1.01144 -1.23221,-1.68124 -0.042,-0.1727 -0.0996,-0.28308 -0.16823,-0.33414 -0.0881,-0.0698 -0.19084,-0.10668 -0.31312,-0.10668 -0.12541,0 -0.23289,0.0406 -0.31623,0.12464 -0.088,0.0811 -0.13008,0.18097 -0.13008,0.2951 0,0.34541 0.19473,0.81247 0.58806,1.40116 0.38868,0.58795 0.93078,1.05125 1.62088,1.38989 0.68698,0.33866 1.39266,0.50761 2.1178,0.50761 1.17146,0 2.17467,-0.39347 3.01743,-1.17665 0.84354,-0.78392 1.26258,-1.66998 1.26258,-2.65964 0,-0.419 -0.0724,-0.80196 -0.21342,-1.14736 -0.14097,-0.34916 -0.38165,-0.73212 -0.72047,-1.14436 -0.3396,-0.41149 -0.94636,-1.03698 -1.82806,-1.86821 -2.20503,-2.09649 -3.99804,-3.72592 -5.38681,-4.88079 l 0,-0.0661" /></g><g
         transform="translate(0,217.6)"
         id="g4490"><path
           inkscape:connector-curvature="0"
           id="path600"
           style="fill:#bfdec2;fill-opacity:1;fill-rule:evenodd;stroke:#000000;stroke-opacity:1"
           d="m 87.370932,101.47471 295.289728,0 c 7.35615,0 13.37342,-3.049379 13.37342,-6.776252 l 0,-26.460501 c 0,-3.727065 -6.01727,-6.776181 -13.37342,-6.776181 l -295.289728,0 c -7.355376,0 -13.37341,3.049116 -13.37341,6.776181 l 0,26.460501 c 0,3.726873 6.018034,6.776252 13.37341,6.776252" /><flowRoot
           xml:space="preserve"
           id="flowRoot3700"
           style="font-size:4px;font-style:normal;font-weight:normal;text-align:center;line-height:125%;letter-spacing:0px;word-spacing:0px;text-anchor:middle;fill:#000000;fill-opacity:1;stroke:none;font-family:Sans"
           transform="matrix(0.8,0,0,-0.8,0,863)"><flowRegion
             id="flowRegion3702"><rect
               id="rect3704"
               width="367.659"
               height="68.683548"
               x="114.74193"
               y="964.8161"
               style="text-align:center;text-anchor:middle" /></flowRegion><flowPara
             id="flowPara3706"
             style="font-size:20px;text-align:center;text-anchor:middle">Classification algorithm</flowPara></flowRoot></g></g></g></svg>