<?xml version="1.0" encoding="UTF-8" standalone="no"?>
<!-- Created with Inkscape (http://www.inkscape.org/) -->

<svg
   xmlns:dc="http://purl.org/dc/elements/1.1/"
   xmlns:cc="http://creativecommons.org/ns#"
   xmlns:rdf="http://www.w3.org/1999/02/22-rdf-syntax-ns#"
   xmlns:svg="http://www.w3.org/2000/svg"
   xmlns="http://www.w3.org/2000/svg"
   xmlns:sodipodi="http://sodipodi.sourceforge.net/DTD/sodipodi-0.dtd"
   xmlns:inkscape="http://www.inkscape.org/namespaces/inkscape"
   id="svg2"
   version="1.1"
   inkscape:version="0.48.4 r9939"
   width="1052.3622"
   height="744.09448"
   xml:space="preserve"
   sodipodi:docname="sample_encoding.svg"><metadata
     id="metadata8"><rdf:RDF><cc:Work
         rdf:about=""><dc:format>image/svg+xml</dc:format><dc:type
           rdf:resource="http://purl.org/dc/dcmitype/StillImage" /><dc:title /></cc:Work></rdf:RDF></metadata><defs
     id="defs6" /><sodipodi:namedview
     pagecolor="#ffffff"
     bordercolor="#666666"
     borderopacity="1"
     objecttolerance="10"
     gridtolerance="10"
     guidetolerance="10"
     inkscape:pageopacity="0"
     inkscape:pageshadow="2"
     inkscape:window-width="1535"
     inkscape:window-height="876"
     id="namedview4"
     showgrid="false"
     inkscape:zoom="0.43754346"
     inkscape:cx="242.05675"
     inkscape:cy="533.11683"
     inkscape:window-x="65"
     inkscape:window-y="24"
     inkscape:window-maximized="1"
     inkscape:current-layer="g10"><inkscape:grid
       type="xygrid"
       id="grid5184"
       empspacing="5"
       visible="true"
       enabled="true"
       snapvisiblegridlinesonly="true" /></sodipodi:namedview><g
     id="g10"
     inkscape:groupmode="layer"
     inkscape:label="ink_ext_XXXXXX"
     transform="matrix(1.25,0,0,-1.25,0,744.09449)"><g
       id="g4210"
       transform="matrix(4.8172011,0,0,4.9946855,-24.01307,-2913.1771)"><path
         d="m 34.45966,592.21259 119.6278,0 0,104.32986 -119.6278,0 0,-104.32986 z"
         style="fill:#f5f5f5;fill-opacity:1;fill-rule:evenodd;stroke:none"
         id="path596"
         inkscape:connector-curvature="0" /><path
         d="m 46.21792,667.42456 -1.20844,0 0,7.16496 c -0.29185,-0.25817 -0.67252,-0.51634 -1.145,-0.77382 -0.47472,-0.25817 -0.89943,-0.45249 -1.27488,-0.58019 l 0,1.08543 c 0.67625,0.29634 1.26816,0.65445 1.77497,1.07502 0.50458,0.42196 0.86435,0.82934 1.07559,1.22562 l 0.77776,0 0,-9.19702"
         style="fill:#2b2929;fill-opacity:1;fill-rule:nonzero;stroke:none"
         id="path1036"
         inkscape:connector-curvature="0" /><path
         d="m 62.06355,671.01745 0,1.07294 4.17245,0.006 0,-3.39718 c -0.64042,-0.4754 -1.301,-0.83143 -1.98173,-1.07294 -0.68147,-0.23874 -1.38086,-0.35811 -2.09668,-0.35811 -0.96809,0 -1.84812,0.19224 -2.63708,0.57811 -0.79194,0.38379 -1.38758,0.94247 -1.79139,1.66979 -0.40381,0.7294 -0.60609,1.54417 -0.60609,2.4443 0,0.89111 0.20228,1.72254 0.60385,2.49427 0.39859,0.77452 0.97706,1.34777 1.7287,1.72323 0.75313,0.37338 1.61971,0.56076 2.60125,0.56076 0.71059,0 1.35549,-0.10618 1.93097,-0.32202 0.57623,-0.21306 1.02781,-0.51148 1.35325,-0.89527 0.32842,-0.38379 0.57623,-0.88278 0.74791,-1.49906 l -1.1771,-0.3012 c -0.14853,0.46706 -0.33215,0.8342 -0.5501,1.1007 -0.2202,0.2665 -0.53444,0.47956 -0.94273,0.63987 -0.40604,0.15963 -0.85986,0.24082 -1.35548,0.24082 -0.59639,0 -1.11216,-0.0854 -1.54583,-0.25331 -0.4359,-0.16864 -0.78448,-0.39073 -1.05244,-0.66555 -0.26647,-0.27553 -0.47248,-0.57603 -0.62176,-0.90638 -0.25005,-0.56562 -0.3762,-1.17982 -0.3762,-1.8426 0,-0.81685 0.15153,-1.49906 0.45457,-2.04941 0.3023,-0.55035 0.74268,-0.95774 1.32041,-1.22424 0.57847,-0.26649 1.19053,-0.40113 1.83991,-0.40113 0.56653,0 1.11663,0.10271 1.6533,0.30536 0.53892,0.20057 0.94496,0.41571 1.22263,0.64613 l 0,1.70587 -2.89459,0"
         style="fill:#2b2929;fill-opacity:1;fill-rule:nonzero;stroke:none"
         id="path1038"
         inkscape:connector-curvature="0" /><path
         d="m 48.02051,654.2113 0,-1.08127 -6.51172,0 c -0.009,0.27067 0.0366,0.53092 0.14033,0.78007 0.16496,0.41363 0.43068,0.81893 0.79568,1.22007 0.36649,0.39906 0.8942,0.86127 1.58239,1.38594 1.07111,0.81685 1.79588,1.46297 2.17207,1.94115 0.37619,0.47539 0.56429,0.92719 0.56429,1.35193 0,0.44555 -0.17168,0.82032 -0.51353,1.12776 -0.3441,0.30467 -0.7912,0.45874 -1.34206,0.45874 -0.5822,0 -1.04796,-0.16239 -1.39654,-0.48858 -0.35081,-0.3241 -0.52771,-0.77382 -0.53219,-1.34777 l -1.24353,0.11729 c 0.0851,0.86335 0.4068,1.52058 0.96138,1.97307 0.55459,0.4518 1.3025,0.67736 2.2385,0.67736 0.94496,0 1.69287,-0.24499 2.24297,-0.7308 0.5531,-0.48858 0.82852,-1.09167 0.82852,-1.81275 0,-0.36713 -0.0806,-0.72732 -0.24333,-1.08127 -0.16048,-0.35394 -0.42918,-0.72732 -0.80314,-1.11736 -0.37321,-0.39281 -0.99497,-0.92997 -1.86454,-1.61218 -0.72477,-0.5677 -1.18979,-0.95149 -1.39654,-1.15414 -0.20676,-0.20057 -0.37619,-0.40253 -0.5113,-0.60726 l 4.83229,0"
         style="fill:#2b2929;fill-opacity:1;fill-rule:nonzero;stroke:none"
         id="path1040"
         inkscape:connector-curvature="0" /><path
         d="m 57.39846,653.13003 0,9.15886 1.30548,0 0,-4.5423 4.892,4.5423 1.76601,0 -4.13289,-3.71018 4.31427,-5.44868 -1.72048,0 -3.50666,4.63599 -1.61225,-1.46297 0,-3.17302 -1.30548,0"
         style="fill:#2b2929;fill-opacity:1;fill-rule:nonzero;stroke:none"
         id="path1042"
         inkscape:connector-curvature="0" /><path
         d="m 66.79283,653.13003 0,1.28184 1.37862,0 0,-1.28184 c 0,-0.47192 -0.0896,-0.85085 -0.26796,-1.14095 -0.18138,-0.28801 -0.46576,-0.51149 -0.85315,-0.6718 l -0.33738,0.48234 c 0.25453,0.1041 0.44262,0.25747 0.56429,0.45804 0.12092,0.20265 0.1881,0.49206 0.20153,0.87237 l -0.68595,0"
         style="fill:#2b2929;fill-opacity:1;fill-rule:nonzero;stroke:none"
         id="path1044"
         inkscape:connector-curvature="0" /><path
         d="m 74.27936,653.13003 0,9.15886 3.71491,0 c 0.65385,0 1.15395,-0.0299 1.49805,-0.0875 0.48367,-0.0743 0.88972,-0.21722 1.21815,-0.4282 0.32543,-0.20959 0.58892,-0.50594 0.78896,-0.88348 0.19929,-0.37893 0.29782,-0.79533 0.29782,-1.24922 0,-0.77798 -0.26573,-1.43937 -0.79792,-1.97931 -0.53443,-0.53717 -1.49731,-0.80783 -2.89012,-0.80783 l -2.52736,0 0,-3.72337 -1.30249,0 z m 1.30249,4.80464 2.54826,0 c 0.84121,0 1.43984,0.14504 1.79364,0.43653 0.35305,0.29287 0.52995,0.70164 0.52995,1.23117 0,0.38379 -0.10375,0.71206 -0.312,0.9848 -0.209,0.27275 -0.48218,0.4525 -0.82404,0.53925 -0.21945,0.0534 -0.62326,0.0812 -1.21516,0.0812 l -2.52065,0 0,-3.27295"
         style="fill:#2b2929;fill-opacity:1;fill-rule:nonzero;stroke:none"
         id="path1046"
         inkscape:connector-curvature="0" /><path
         d="m 81.84576,653.13003 0,1.28184 1.37863,0 0,-1.28184 c 0,-0.47192 -0.0896,-0.85085 -0.26871,-1.14095 -0.18138,-0.28801 -0.46576,-0.51149 -0.85315,-0.6718 l -0.33738,0.48234 c 0.25453,0.1041 0.44262,0.25747 0.56429,0.45804 0.12166,0.20265 0.1881,0.49206 0.20228,0.87237 l -0.68596,0"
         style="fill:#2b2929;fill-opacity:1;fill-rule:nonzero;stroke:none"
         id="path1048"
         inkscape:connector-curvature="0" /><path
         d="m 89.35245,653.13003 0,9.15886 4.36652,0 c 0.87853,0 1.54583,-0.0833 2.00263,-0.24707 0.45606,-0.16448 0.82106,-0.45458 1.09648,-0.87029 0.27245,-0.41779 0.40829,-0.87862 0.40829,-1.38177 0,-0.65029 -0.22541,-1.19648 -0.67923,-1.64203 -0.45158,-0.44556 -1.15097,-0.72941 -2.09593,-0.85086 0.34633,-0.15338 0.60758,-0.30467 0.78672,-0.45666 0.37992,-0.3241 0.74044,-0.73148 1.0823,-1.21729 l 1.71302,-2.49289 -1.63987,0 -1.3025,1.90645 c -0.38067,0.54757 -0.69491,0.97023 -0.94272,1.26032 -0.24557,0.29218 -0.46576,0.49691 -0.66058,0.61212 -0.19481,0.11729 -0.39261,0.19849 -0.59414,0.24498 -0.14928,0.0278 -0.38963,0.043 -0.72701,0.043 l -1.51149,0 0,-4.0669 -1.30249,0 z m 1.30249,5.11555 2.80279,0 c 0.59414,0 1.06215,0.0576 1.39654,0.17281 0.33738,0.11521 0.59191,0.29912 0.76582,0.55035 0.17466,0.25193 0.26199,0.52467 0.26199,0.82102 0,0.43306 -0.1672,0.78908 -0.50681,1.06808 -0.33738,0.27968 -0.87182,0.41848 -1.6033,0.41848 l -3.11703,0 0,-3.03074"
         style="fill:#2b2929;fill-opacity:1;fill-rule:nonzero;stroke:none"
         id="path1050"
         inkscape:connector-curvature="0" /><path
         d="m 41.66927,641.25413 1.20919,0.14852 c 0.13958,-0.6371 0.3762,-1.09584 0.70835,-1.37692 0.33514,-0.28177 0.74119,-0.42265 1.22039,-0.42265 0.56876,0 1.0502,0.18391 1.44282,0.55035 0.38962,0.36713 0.58668,0.82101 0.58668,1.36234 0,0.51635 -0.18138,0.94316 -0.54339,1.27768 -0.36425,0.33451 -0.82554,0.50315 -1.38535,0.50315 -0.22915,0 -0.51353,-0.0423 -0.85315,-0.12561 l 0.1351,0.98757 c 0.0806,-0.009 0.14481,-0.0132 0.19556,-0.0132 0.51354,0 0.97706,0.12561 1.38908,0.37546 0.41351,0.24915 0.61952,0.63571 0.61952,1.15552 0,0.41155 -0.15077,0.75509 -0.45158,1.02367 -0.30006,0.27136 -0.68819,0.40738 -1.16291,0.40738 -0.47024,0 -0.86211,-0.1388 -1.17411,-0.41155 -0.31424,-0.27482 -0.51577,-0.68915 -0.60534,-1.2388 l -1.20919,0.20057 c 0.14704,0.75438 0.48367,1.33944 1.00691,1.75307 0.52548,0.41363 1.1771,0.62252 1.95635,0.62252 0.53667,0 1.03229,-0.10896 1.48462,-0.32202 0.45158,-0.21584 0.79792,-0.50801 1.03826,-0.87862 0.23885,-0.37129 0.36052,-0.76341 0.36052,-1.1812 0,-0.39489 -0.11495,-0.75508 -0.3441,-1.08127 -0.22989,-0.3241 -0.56653,-0.58227 -1.01363,-0.77451 0.58221,-0.12354 1.03453,-0.38379 1.35773,-0.77799 0.32096,-0.39281 0.48144,-0.88486 0.48144,-1.47616 0,-0.7995 -0.312,-1.47755 -0.94049,-2.03414 -0.62624,-0.5566 -1.41968,-0.8342 -2.37807,-0.8342 -0.86509,0 -1.5824,0.23874 -2.15415,0.71899 -0.57101,0.47748 -0.89645,1.09793 -0.97706,1.86203"
         style="fill:#2b2929;fill-opacity:1;fill-rule:nonzero;stroke:none"
         id="path1052"
         inkscape:connector-curvature="0" /><path
         d="m 57.67612,638.83551 1.30302,0 0,9.15933 -1.30302,0 0,-9.15933 z"
         style="fill:#2b2929;fill-opacity:1;fill-rule:nonzero;stroke:none"
         id="path1054"
         inkscape:connector-curvature="0" /><path
         d="m 61.43731,638.83551 0,1.28183 1.37862,0 0,-1.28183 c 0,-0.47124 -0.0896,-0.85086 -0.26796,-1.14096 -0.18138,-0.28801 -0.46576,-0.51148 -0.85315,-0.6718 l -0.33738,0.48234 c 0.25453,0.1041 0.44262,0.25748 0.56354,0.45804 0.12167,0.20266 0.18884,0.49275 0.20228,0.87238 l -0.68595,0"
         style="fill:#2b2929;fill-opacity:1;fill-rule:nonzero;stroke:none"
         id="path1056"
         inkscape:connector-curvature="0" /><path
         d="m 68.86861,638.83551 0,9.15954 1.30473,0 0,-8.07828 4.85094,0 0,-1.08126 -6.15567,0"
         style="fill:#2b2929;fill-opacity:1;fill-rule:nonzero;stroke:none"
         id="path1058"
         inkscape:connector-curvature="0" /><path
         d="m 76.7373,638.83551 0,1.28183 1.37863,0 0,-1.28183 c 0,-0.47124 -0.0896,-0.85086 -0.26796,-1.14096 -0.18138,-0.28801 -0.46576,-0.51148 -0.85315,-0.6718 l -0.33738,0.48234 c 0.25452,0.1041 0.44262,0.25748 0.56429,0.45804 0.12092,0.20266 0.18809,0.49275 0.20153,0.87238 l -0.68596,0"
         style="fill:#2b2929;fill-opacity:1;fill-rule:nonzero;stroke:none"
         id="path1060"
         inkscape:connector-curvature="0" /><path
         d="m 87.03782,638.83551 -3.81642,9.15954 1.41297,0 2.55945,-6.65417 c 0.20676,-0.533 0.37843,-1.03407 0.51577,-1.49906 0.15376,0.49899 0.33066,0.99868 0.5322,1.49906 l 2.66022,6.65417 1.33085,0 -3.85821,-9.15954 -1.33683,0"
         style="fill:#2b2929;fill-opacity:1;fill-rule:nonzero;stroke:none"
         id="path1062"
         inkscape:connector-curvature="0" /><path
         d="m 45.53868,624.54098 0,2.19238 -4.27247,0 0,1.03199 4.4949,5.93517 0.989,0 0,-5.93517 1.33011,0 0,-1.03199 -1.33011,0 0,-2.19238 -1.21143,0 z m 0,3.22437 0,4.12867 -3.08269,-4.12867 3.08269,0"
         style="fill:#2b2929;fill-opacity:1;fill-rule:nonzero;stroke:none"
         id="path1064"
         inkscape:connector-curvature="0" /><path
         d="m 57.52012,624.54098 0,9.15954 6.64682,0 0,-1.08126 -5.34208,0 0,-2.83642 4.62179,0 0,-1.08127 -4.62179,0 0,-4.16059 -1.30474,0"
         style="fill:#2b2929;fill-opacity:1;fill-rule:nonzero;stroke:none"
         id="path1066"
         inkscape:connector-curvature="0" /><path
         d="m 64.49462,624.54098 0,1.28183 1.37862,0 0,-1.28183 c 0,-0.47124 -0.0896,-0.85086 -0.26796,-1.14096 -0.18138,-0.28801 -0.46576,-0.51148 -0.85315,-0.6718 l -0.33738,0.48234 c 0.25453,0.1041 0.44263,0.25748 0.56429,0.45805 0.12092,0.20265 0.18735,0.49274 0.20153,0.87237 l -0.68595,0"
         style="fill:#2b2929;fill-opacity:1;fill-rule:nonzero;stroke:none"
         id="path1068"
         inkscape:connector-curvature="0" /><path
         d="m 73.70089,624.54098 -2.61469,9.15954 1.33758,0 1.49954,-6.00318 c 0.16048,-0.62947 0.29857,-1.25408 0.41501,-1.87453 0.25229,0.97856 0.39933,1.5414 0.44486,1.69339 l 1.87425,6.18432 1.57344,0 1.41072,-4.63598 c 0.35306,-1.14998 0.60758,-2.23125 0.76582,-3.24173 0.12391,0.57742 0.28886,1.24298 0.49114,1.99181 l 1.54284,5.8859 1.3122,0 -2.70128,-9.15954 -1.25696,0 -2.07578,6.97758 c -0.17466,0.58435 -0.27766,0.94316 -0.30976,1.07502 -0.103,-0.42057 -0.19929,-0.77868 -0.28886,-1.07502 l -2.08921,-6.97758 -1.33086,0"
         style="fill:#2b2929;fill-opacity:1;fill-rule:nonzero;stroke:none"
         id="path1070"
         inkscape:connector-curvature="0" /><path
         d="m 84.37088,624.54098 0,1.28183 1.37788,0 0,-1.28183 c 0,-0.47124 -0.0888,-0.85086 -0.26796,-1.14096 -0.18138,-0.28801 -0.46576,-0.51148 -0.85315,-0.6718 l -0.33738,0.48234 c 0.25453,0.1041 0.44262,0.25748 0.56429,0.45805 0.12166,0.20265 0.18809,0.49274 0.20153,0.87237 l -0.68521,0"
         style="fill:#2b2929;fill-opacity:1;fill-rule:nonzero;stroke:none"
         id="path1072"
         inkscape:connector-curvature="0" /><path
         d="m 94.38403,624.54098 0,3.87882 -3.79552,5.28072 1.58464,0 1.94217,-2.76216 c 0.35828,-0.51565 0.69043,-1.03199 1.00019,-1.55042 0.29633,0.48026 0.65386,1.01951 1.07559,1.61913 l 1.90858,2.69345 1.5182,0 -3.93136,-5.28072 0,-3.87882 -1.30249,0"
         style="fill:#2b2929;fill-opacity:1;fill-rule:nonzero;stroke:none"
         id="path1074"
         inkscape:connector-curvature="0" /><path
         d="m 41.66255,612.64564 1.27115,0.0999 c 0.094,-0.57533 0.31125,-1.00632 0.65311,-1.29641 0.3441,-0.2901 0.75686,-0.43515 1.24129,-0.43515 0.5822,0 1.07558,0.20474 1.4764,0.61212 0.40381,0.40947 0.60609,0.95149 0.60609,1.62537 0,0.64127 -0.19257,1.1472 -0.57996,1.5185 -0.38814,0.3706 -0.89495,0.55659 -1.52343,0.55659 -0.38963,0 -0.74119,-0.0833 -1.05543,-0.24776 -0.3135,-0.16378 -0.55907,-0.37754 -0.73821,-0.63988 l -1.13529,0.13672 0.95466,4.7047 4.89872,0 0,-1.07502 -3.93137,0 -0.53219,-2.46096 c 0.59191,0.38379 1.21367,0.57533 1.8623,0.57533 0.85987,0 1.58539,-0.27691 2.17655,-0.83142 0.5919,-0.55452 0.88748,-1.26657 0.88748,-2.13686 0,-0.82934 -0.26124,-1.54556 -0.77925,-2.14935 -0.63296,-0.73981 -1.49582,-1.11111 -2.58707,-1.11111 -0.89719,0 -1.62868,0.23249 -2.19521,0.69956 -0.56653,0.46707 -0.88972,1.08543 -0.97034,1.85509"
         style="fill:#2b2929;fill-opacity:1;fill-rule:nonzero;stroke:none"
         id="path1076"
         inkscape:connector-curvature="0" /><path
         d="m 55.61154,610.24645 3.78507,9.15955 1.40326,0 4.03213,-9.15955 -1.48611,0 -1.14948,2.77465 -4.11946,0 -1.07932,-2.77465 -1.38609,0 z m 2.84235,3.76223 3.34169,0 -1.03005,2.53522 c -0.312,0.76965 -0.54563,1.40329 -0.69715,1.9002 -0.12614,-0.58852 -0.3023,-1.1708 -0.53219,-1.75099 l -1.0823,-2.68443"
         style="fill:#2b2929;fill-opacity:1;fill-rule:nonzero;stroke:none"
         id="path1078"
         inkscape:connector-curvature="0" /><path
         d="m 66.03372,610.24645 0,1.28184 1.37863,0 0,-1.28184 c 0,-0.47123 -0.0896,-0.85086 -0.26871,-1.14095 -0.18063,-0.28732 -0.46501,-0.51149 -0.85315,-0.67181 l -0.33738,0.48234 c 0.25527,0.1041 0.44337,0.25748 0.56504,0.45805 0.12092,0.20265 0.18809,0.49275 0.20153,0.87237 l -0.68596,0"
         style="fill:#2b2929;fill-opacity:1;fill-rule:nonzero;stroke:none"
         id="path1080"
         inkscape:connector-curvature="0" /><path
         d="m 80.54775,613.45833 1.30473,-0.30745 c -0.27319,-0.99313 -0.76582,-1.75237 -1.47491,-2.27705 -0.71059,-0.52259 -1.57792,-0.78284 -2.60574,-0.78284 -1.0614,0 -1.92351,0.20057 -2.58931,0.60171 -0.66505,0.40252 -1.17187,0.9848 -1.5182,1.74613 -0.34634,0.76341 -0.52025,1.58234 -0.52025,2.45679 0,0.95288 0.19481,1.785 0.58668,2.49497 0.39261,0.70997 0.94944,1.24991 1.6742,1.61843 0.72253,0.36922 1.51821,0.55243 2.38778,0.55243 0.98602,0 1.81454,-0.23249 2.48631,-0.69956 0.67177,-0.46637 1.13977,-1.12152 1.40326,-1.96821 l -1.2816,-0.28177 c -0.22989,0.66764 -0.55981,1.15206 -0.99571,1.45673 -0.43367,0.30536 -0.9793,0.45666 -1.63987,0.45666 -0.75687,0 -1.38759,-0.16865 -1.89664,-0.50524 -0.50906,-0.33937 -0.86659,-0.79187 -1.07111,-1.36096 -0.20675,-0.5677 -0.30976,-1.15414 -0.30976,-1.75723 0,-0.78076 0.12167,-1.45881 0.365,-2.04039 0.24557,-0.58019 0.624,-1.01534 1.13977,-1.30335 0.51577,-0.28802 1.07335,-0.43098 1.67421,-0.43098 0.72925,0 1.34653,0.1964 1.85335,0.58644 0.50681,0.39211 0.84867,0.97439 1.02781,1.74474"
         style="fill:#2b2929;fill-opacity:1;fill-rule:nonzero;stroke:none"
         id="path1082"
         inkscape:connector-curvature="0" /><path
         d="m 83.6185,610.24645 0,1.28184 1.37862,0 0,-1.28184 c 0,-0.47123 -0.0896,-0.85086 -0.26871,-1.14095 -0.18137,-0.28732 -0.46576,-0.51149 -0.85315,-0.67181 l -0.33738,0.48234 c 0.25528,0.1041 0.44263,0.25748 0.56429,0.45805 0.12167,0.20265 0.1881,0.49275 0.20228,0.87237 l -0.68595,0"
         style="fill:#2b2929;fill-opacity:1;fill-rule:nonzero;stroke:none"
         id="path1084"
         inkscape:connector-curvature="0" /><path
         d="m 91.1431,610.24645 0,9.15955 1.30548,0 0,-3.76223 5.1189,0 0,3.76223 1.30548,0 0,-9.15955 -1.30548,0 0,4.31674 -5.1189,0 0,-4.31674 -1.30548,0"
         style="fill:#2b2929;fill-opacity:1;fill-rule:nonzero;stroke:none"
         id="path1086"
         inkscape:connector-curvature="0" /><path
         d="m 101.20327,610.24645 0,1.28184 1.37863,0 0,-1.28184 c 0,-0.47123 -0.0896,-0.85086 -0.26871,-1.14095 -0.18138,-0.28732 -0.46577,-0.51149 -0.85316,-0.67181 l -0.33737,0.48234 c 0.25452,0.1041 0.44262,0.25748 0.56428,0.45805 0.12167,0.20265 0.1881,0.49275 0.20228,0.87237 l -0.68595,0"
         style="fill:#2b2929;fill-opacity:1;fill-rule:nonzero;stroke:none"
         id="path1088"
         inkscape:connector-curvature="0" /><path
         d="m 108.648,610.24645 0,9.15955 1.96307,0 2.33031,-6.48553 c 0.21571,-0.60309 0.37395,-1.0549 0.47024,-1.3561 0.11196,0.33313 0.28662,0.8231 0.52547,1.46992 l 2.35718,6.37171 1.75482,0 0,-9.15955 -1.25696,0 0,7.66673 -2.8625,-7.66673 -1.17635,0 -2.84832,7.79651 0,-7.79651 -1.25696,0"
         style="fill:#2b2929;fill-opacity:1;fill-rule:nonzero;stroke:none"
         id="path1090"
         inkscape:connector-curvature="0" /><path
         d="m 47.93766,602.86773 -1.20173,-0.0874 c -0.10748,0.44208 -0.259,0.76341 -0.45606,0.9619 -0.32842,0.32202 -0.73148,0.48164 -1.21143,0.48164 -0.38515,0 -0.72253,-0.0999 -1.01363,-0.29981 -0.38067,-0.25818 -0.68073,-0.63572 -0.90167,-1.13055 -0.2172,-0.49483 -0.33215,-1.20063 -0.34185,-2.11742 0.29184,0.41155 0.64714,0.7183 1.06961,0.91887 0.41948,0.19848 0.86211,0.29842 1.32339,0.29842 0.80687,0 1.49283,-0.27483 2.05936,-0.82726 0.56652,-0.55243 0.85091,-1.26448 0.85091,-2.13894 0,-0.57603 -0.1351,-1.10903 -0.40157,-1.60385 -0.26573,-0.49275 -0.63296,-0.87168 -1.09872,-1.13471 -0.46502,-0.26164 -0.99274,-0.39212 -1.58464,-0.39212 -1.00915,0 -1.83021,0.34354 -2.46541,1.03408 -0.63744,0.68915 -0.95392,1.82594 -0.95392,3.40759 0,1.77042 0.35082,3.05642 1.05469,3.86078 0.6128,0.69886 1.43834,1.05073 2.47884,1.05073 0.77328,0 1.40848,-0.20265 1.9041,-0.60726 0.49562,-0.40322 0.7912,-0.9619 0.88973,-1.67465 z m -4.93753,-3.94683 c 0,-0.38865 0.0896,-0.75925 0.26572,-1.1132 0.1769,-0.35394 0.42396,-0.62252 0.74119,-0.80852 0.31872,-0.1853 0.65311,-0.27899 1.00244,-0.27899 0.51054,0 0.94943,0.19155 1.31592,0.57533 0.36724,0.38379 0.55011,0.9043 0.55011,1.56083 0,0.63363 -0.18063,1.13263 -0.54339,1.49768 -0.36201,0.36435 -0.81882,0.54549 -1.36892,0.54549 -0.54787,0 -1.01139,-0.18114 -1.39207,-0.54549 -0.38067,-0.36505 -0.571,-0.84253 -0.571,-1.43313"
         style="fill:#2b2929;fill-opacity:1;fill-rule:nonzero;stroke:none"
         id="path1092"
         inkscape:connector-curvature="0" /><path
         d="m 57.45369,595.95192 0,9.15955 3.39171,0 c 0.76657,0 1.35101,-0.0451 1.75482,-0.13186 0.56429,-0.12007 1.04572,-0.33938 1.44506,-0.65515 0.51875,-0.40947 0.90838,-0.92997 1.16515,-1.56569 0.259,-0.63502 0.38739,-1.36026 0.38739,-2.17711 0,-0.6947 -0.0873,-1.31098 -0.26349,-1.84884 -0.17391,-0.53716 -0.39709,-0.98272 -0.67177,-1.33458 -0.27319,-0.35187 -0.57175,-0.62947 -0.89719,-0.82934 -0.3232,-0.20266 -0.71506,-0.35673 -1.17411,-0.46083 -0.46054,-0.10479 -0.989,-0.15615 -1.5824,-0.15615 l -3.55517,0 z m 1.3025,1.08127 2.10339,0 c 0.64938,0 1.16067,0.0555 1.53015,0.16864 0.36873,0.11313 0.66207,0.27067 0.88301,0.47609 0.30901,0.28524 0.55011,0.67319 0.72253,1.15761 0.17167,0.48581 0.259,1.07225 0.259,1.76557 0,0.95773 -0.17018,1.69338 -0.50681,2.20764 -0.33962,0.51565 -0.75015,0.85919 -1.23457,1.03408 -0.34858,0.12561 -0.91212,0.18738 -1.68541,0.18738 l -2.07129,0 0,-6.99701"
         style="fill:#2b2929;fill-opacity:1;fill-rule:nonzero;stroke:none"
         id="path1094"
         inkscape:connector-curvature="0" /><path
         d="m 67.55268,595.95192 0,1.28184 1.37788,0 0,-1.28184 c 0,-0.47123 -0.0896,-0.85086 -0.26871,-1.14026 -0.18063,-0.28801 -0.46502,-0.51218 -0.85241,-0.6718 l -0.33738,0.48164 c 0.25453,0.1041 0.44263,0.25818 0.56429,0.45874 0.12167,0.20196 0.1881,0.49206 0.20154,0.87168 l -0.68521,0"
         style="fill:#2b2929;fill-opacity:1;fill-rule:nonzero;stroke:none"
         id="path1096"
         inkscape:connector-curvature="0" /><path
         d="m 75.06608,595.95192 0,9.15955 7.12079,0 0,-1.08127 -5.8183,0 0,-2.8045 5.44957,0 0,-1.07432 -5.44957,0 0,-3.11819 6.0482,0 0,-1.08127 -7.35069,0"
         style="fill:#2b2929;fill-opacity:1;fill-rule:nonzero;stroke:none"
         id="path1098"
         inkscape:connector-curvature="0" /><path
         d="m 84.3776,595.95192 0,1.28184 1.37863,0 0,-1.28184 c 0,-0.47123 -0.0896,-0.85086 -0.26871,-1.14026 -0.18064,-0.28801 -0.46502,-0.51218 -0.85315,-0.6718 l -0.33664,0.48164 c 0.25453,0.1041 0.44263,0.25818 0.56355,0.45874 0.12166,0.20196 0.18809,0.49206 0.20227,0.87168 l -0.68595,0"
         style="fill:#2b2929;fill-opacity:1;fill-rule:nonzero;stroke:none"
         id="path1100"
         inkscape:connector-curvature="0" /><path
         d="m 91.84995,595.95192 0,9.15955 1.33683,0 5.17489,-7.19064 0,7.19064 1.2495,0 0,-9.15955 -1.33683,0 -5.17414,7.19758 0,-7.19758 -1.25025,0"
         style="fill:#2b2929;fill-opacity:1;fill-rule:nonzero;stroke:none"
         id="path1102"
         inkscape:connector-curvature="0" /><path
         d="m 101.96237,595.95192 0,1.28184 1.37788,0 0,-1.28184 c 0,-0.47123 -0.0888,-0.85086 -0.26796,-1.14026 -0.18138,-0.28801 -0.46576,-0.51218 -0.85315,-0.6718 l -0.33738,0.48164 c 0.25527,0.1041 0.44262,0.25818 0.56429,0.45874 0.12166,0.20196 0.18809,0.49206 0.20228,0.87168 l -0.68596,0"
         style="fill:#2b2929;fill-opacity:1;fill-rule:nonzero;stroke:none"
         id="path1104"
         inkscape:connector-curvature="0" /><path
         d="m 116.91379,596.93325 c 0.60311,-0.38795 1.16292,-0.66972 1.67197,-0.84877 l -0.38291,-0.84461 c -0.70685,0.23665 -1.41296,0.61211 -2.11683,1.12429 -0.72925,-0.37823 -1.53463,-0.5677 -2.41763,-0.5677 -0.89197,0 -1.69959,0.20057 -2.4266,0.59963 -0.72477,0.40044 -1.28458,0.9619 -1.67644,1.68644 -0.39187,0.72524 -0.58743,1.54209 -0.58743,2.44847 0,0.9043 0.1978,1.72739 0.5919,2.46929 0.39486,0.73981 0.95392,1.30474 1.68317,1.69338 0.72701,0.38587 1.54134,0.5802 2.44077,0.5802 0.91063,0 1.72945,-0.20057 2.46093,-0.60379 0.72925,-0.40114 1.28607,-0.96398 1.66973,-1.68714 0.38291,-0.72247 0.57325,-1.53723 0.57325,-2.44569 0,-0.753 -0.12167,-1.43105 -0.36948,-2.03276 -0.24557,-0.60101 -0.61654,-1.12568 -1.1144,-1.57124 z m -2.86921,1.55042 c 0.75238,-0.1964 1.37191,-0.48858 1.86006,-0.87653 0.76582,0.65028 1.14873,1.62745 1.14873,2.93011 0,0.74189 -0.1351,1.3901 -0.4053,1.94461 -0.27095,0.55243 -0.66804,0.98342 -1.18829,1.29017 -0.52324,0.30536 -1.10768,0.45874 -1.7593,0.45874 -0.97034,0 -1.77721,-0.30953 -2.41763,-0.92789 -0.64192,-0.61837 -0.96064,-1.5414 -0.96064,-2.77188 0,-1.19023 0.31648,-2.10493 0.94944,-2.74273 0.6352,-0.63571 1.44506,-0.95565 2.42883,-0.95565 0.468,0 0.90615,0.0812 1.31892,0.2436 -0.40829,0.24707 -0.83972,0.42196 -1.2913,0.52467 l 0.31648,0.88278"
         style="fill:#2b2929;fill-opacity:1;fill-rule:nonzero;stroke:none"
         id="path1106"
         inkscape:connector-curvature="0" /><path
         d="m 120.31296,595.95192 0,1.28184 1.37863,0 0,-1.28184 c 0,-0.47123 -0.0896,-0.85086 -0.26871,-1.14026 -0.18138,-0.28801 -0.46576,-0.51218 -0.85315,-0.6718 l -0.33738,0.48164 c 0.25453,0.1041 0.44263,0.25818 0.56429,0.45874 0.12167,0.20196 0.1881,0.49206 0.20153,0.87168 l -0.68521,0"
         style="fill:#2b2929;fill-opacity:1;fill-rule:nonzero;stroke:none"
         id="path1108"
         inkscape:connector-curvature="0" /><path
         d="m 127.35613,598.89522 1.22934,0.0999 c 0.0575,-0.45875 0.19258,-0.83351 0.40605,-1.12777 0.21348,-0.29426 0.54339,-0.53092 0.99049,-0.71275 0.44711,-0.18114 0.95168,-0.27066 1.51149,-0.27066 0.49786,0 0.93601,0.0687 1.31668,0.20473 0.38067,0.1388 0.66505,0.32618 0.85091,0.56562 0.18586,0.24082 0.2799,0.50107 0.2799,0.78423 0,0.28801 -0.0896,0.53786 -0.27094,0.753 -0.1784,0.21514 -0.47472,0.3942 -0.88525,0.53925 -0.26572,0.0958 -0.84867,0.24568 -1.75482,0.44833 -0.90316,0.20265 -1.53836,0.39211 -1.90112,0.57117 -0.47024,0.22833 -0.82105,0.51426 -1.05244,0.85294 -0.2299,0.33937 -0.3441,0.71899 -0.3441,1.14095 0,0.46082 0.13958,0.89319 0.42173,1.29433 0.28214,0.40322 0.69491,0.70858 1.23606,0.91748 0.54413,0.20681 1.145,0.31092 1.80781,0.31092 0.73149,0 1.37415,-0.10896 1.93322,-0.32827 0.55757,-0.21723 0.98601,-0.53925 1.28681,-0.96398 0.29782,-0.42404 0.46129,-0.90638 0.48368,-1.44354 l -1.2495,-0.0874 c -0.0694,0.57811 -0.29632,1.01742 -0.68371,1.31168 -0.38739,0.29634 -0.95914,0.44347 -1.71526,0.44347 -0.78971,0 -1.36295,-0.13463 -1.72497,-0.40322 -0.36051,-0.26858 -0.54115,-0.59268 -0.54115,-0.97022 0,-0.33035 0.12839,-0.60171 0.38291,-0.81269 0.25229,-0.21306 0.9054,-0.43028 1.96531,-0.65237 1.05991,-0.22416 1.78692,-0.41779 2.18103,-0.58435 0.57399,-0.24707 0.99795,-0.55868 1.27114,-0.93414 0.27244,-0.37754 0.40829,-0.81269 0.40829,-1.30266 0,-0.48858 -0.14929,-0.94663 -0.45009,-1.3783 -0.30006,-0.43029 -0.73149,-0.7648 -1.29354,-1.00632 -0.5613,-0.23874 -1.19501,-0.35811 -1.89663,-0.35811 -0.89197,0 -1.63988,0.11937 -2.24074,0.36228 -0.6031,0.24151 -1.07558,0.60378 -1.41968,1.09029 -0.34186,0.48372 -0.52249,1.03407 -0.53891,1.64619"
         style="fill:#2b2929;fill-opacity:1;fill-rule:nonzero;stroke:none"
         id="path1110"
         inkscape:connector-curvature="0" /><path
         d="m 137.13863,595.95192 0,1.28184 1.37788,0 0,-1.28184 c 0,-0.47123 -0.0896,-0.85086 -0.26796,-1.14026 -0.18138,-0.28801 -0.46576,-0.51218 -0.85315,-0.6718 l -0.33738,0.48164 c 0.25453,0.1041 0.44262,0.25818 0.56429,0.45874 0.12092,0.20196 0.1881,0.49206 0.20153,0.87168 l -0.68521,0"
         style="fill:#2b2929;fill-opacity:1;fill-rule:nonzero;stroke:none"
         id="path1112"
         inkscape:connector-curvature="0" /><path
         d="m 146.88307,595.95192 0,8.07828 -3.24541,0 0,1.08127 7.80749,0 0,-1.08127 -3.25884,0 0,-8.07828 -1.30324,0"
         style="fill:#2b2929;fill-opacity:1;fill-rule:nonzero;stroke:none"
         id="path1114"
         inkscape:connector-curvature="0" /><path
         d="m 59.0234,684.15923 3.78432,9.15885 1.40326,0 4.03213,-9.15885 -1.48611,0 -1.14873,2.77396 -4.11946,0 -1.08006,-2.77396 -1.38535,0 z m 2.8416,3.76153 3.3417,0 -1.03005,2.53522 c -0.31201,0.77036 -0.54563,1.40329 -0.69716,1.9002 -0.12614,-0.58852 -0.30229,-1.17079 -0.53219,-1.75098 l -1.0823,-2.68444"
         style="fill:#2b2929;fill-opacity:1;fill-rule:nonzero;stroke:none"
         id="path1116"
         inkscape:connector-curvature="0" /><path
         d="m 69.13134,684.15923 0,6.63404 1.08006,0 0,-0.92997 c 0.22467,0.3241 0.52249,0.58644 0.89421,0.78284 0.37171,0.1978 0.79568,0.29843 1.2704,0.29843 0.52771,0 0.96138,-0.10202 1.29876,-0.30676 0.33961,-0.20542 0.57772,-0.48858 0.71581,-0.85571 0.56578,0.77452 1.30025,1.16247 2.20341,1.16247 0.7091,0 1.25249,-0.18322 1.63316,-0.54827 0.38067,-0.36436 0.571,-0.92581 0.571,-1.68228 l 0,-4.55479 -1.20172,0 0,4.17933 c 0,0.45041 -0.0388,0.77382 -0.11719,0.97231 -0.0799,0.1964 -0.22169,0.35672 -0.4262,0.47817 -0.20676,0.11937 -0.45009,0.18114 -0.72701,0.18114 -0.50234,0 -0.91734,-0.15616 -1.25024,-0.46707 -0.32992,-0.30953 -0.49786,-0.80575 -0.49786,-1.48865 l 0,-3.85523 -1.20845,0 0,4.3098 c 0,0.50108 -0.0985,0.87654 -0.29558,1.12569 -0.1978,0.24915 -0.51876,0.37546 -0.9681,0.37546 -0.33962,0 -0.65386,-0.0833 -0.94272,-0.25193 -0.28886,-0.16656 -0.5001,-0.40947 -0.62848,-0.7294 -0.13062,-0.32202 -0.19481,-0.78493 -0.19481,-1.38802 l 0,-3.4416 -1.20845,0"
         style="fill:#2b2929;fill-opacity:1;fill-rule:nonzero;stroke:none"
         id="path1118"
         inkscape:connector-curvature="0" /><path
         d="m 80.5985,692.02375 0,1.29433 1.21143,0 0,-1.29433 -1.21143,0 z m 0,-7.86452 0,6.63404 1.21143,0 0,-6.63404 -1.21143,0"
         style="fill:#2b2929;fill-opacity:1;fill-rule:nonzero;stroke:none"
         id="path1120"
         inkscape:connector-curvature="0" /><path
         d="m 83.65134,684.15923 0,6.63404 1.08752,0 0,-0.94246 c 0.52473,0.72871 1.2816,1.09376 2.26985,1.09376 0.43143,0 0.82628,-0.0722 1.18605,-0.21515 0.36276,-0.14504 0.63072,-0.33312 0.80986,-0.567 0.18138,-0.23319 0.30528,-0.5101 0.37843,-0.83004 0.0433,-0.2089 0.0664,-0.57325 0.0664,-1.09376 l 0,-4.07939 -1.21068,0 0,4.03636 c 0,0.45666 -0.0463,0.7995 -0.14033,1.02783 -0.094,0.22625 -0.26124,0.40739 -0.50009,0.54202 -0.24035,0.13672 -0.52025,0.20474 -0.84345,0.20474 -0.51652,0 -0.95914,-0.15407 -1.33534,-0.45666 -0.37395,-0.30467 -0.55981,-0.8807 -0.55981,-1.73156 l 0,-3.62273 -1.20844,0"
         style="fill:#2b2929;fill-opacity:1;fill-rule:nonzero;stroke:none"
         id="path1122"
         inkscape:connector-curvature="0" /><path
         d="m 90.85274,687.47729 c 0,1.2284 0.36724,2.13894 1.10395,2.72954 0.61206,0.49067 1.35997,0.73774 2.24297,0.73774 0.98154,0 1.78393,-0.29843 2.4057,-0.89805 0.624,-0.59685 0.93376,-1.42203 0.93376,-2.47554 0,-0.85502 -0.13809,-1.52682 -0.41277,-2.0154 -0.27542,-0.49067 -0.67699,-0.8696 -1.20172,-1.14095 -0.52846,-0.27067 -1.10096,-0.40531 -1.72497,-0.40531 -0.99795,0 -1.80483,0.29704 -2.42211,0.89389 -0.61728,0.59476 -0.92481,1.45187 -0.92481,2.57408 z m 1.24353,0 c 0,-0.85085 0.20004,-1.48657 0.59862,-1.90922 0.39933,-0.42404 0.90167,-0.63502 1.50477,-0.63502 0.60087,0 1.10096,0.21306 1.49955,0.6378 0.39709,0.42404 0.59638,1.07224 0.59638,1.94253 0,0.82101 -0.19929,1.44354 -0.60086,1.8655 -0.40157,0.42265 -0.89868,0.63363 -1.49507,0.63363 -0.6031,0 -1.10544,-0.21098 -1.50477,-0.63085 -0.39858,-0.42057 -0.59862,-1.05629 -0.59862,-1.90437"
         style="fill:#2b2929;fill-opacity:1;fill-rule:nonzero;stroke:none"
         id="path1124"
         inkscape:connector-curvature="0" /><path
         d="m 107.43807,684.97816 c -0.45009,-0.35464 -0.88152,-0.60379 -1.29354,-0.75092 -0.41575,-0.14505 -0.86062,-0.21792 -1.33533,-0.21792 -0.78449,0 -1.38535,0.17698 -1.80707,0.5337 -0.41949,0.35602 -0.63072,0.81199 -0.63072,1.36442 0,0.32619 0.0776,0.62253 0.23885,0.89111 0.15824,0.26928 0.36649,0.48442 0.62325,0.64612 0.25901,0.1624 0.54787,0.28594 0.87182,0.36922 0.23586,0.0576 0.59414,0.1152 1.07334,0.16864 0.97706,0.10896 1.69735,0.23666 2.15788,0.38795 0.005,0.15338 0.007,0.25193 0.007,0.29218 0,0.45874 -0.1142,0.78284 -0.3441,0.96815 -0.30677,0.25609 -0.76731,0.3817 -1.37564,0.3817 -0.56876,0 -0.989,-0.0916 -1.26144,-0.27691 -0.27095,-0.18599 -0.47024,-0.51426 -0.60086,-0.98549 l -1.18083,0.15129 c 0.10749,0.46915 0.28439,0.85086 0.52921,1.13887 0.24557,0.2901 0.60385,0.51426 1.06887,0.66972 0.46576,0.15546 1.00467,0.23458 1.61971,0.23458 0.60982,0 1.10246,-0.068 1.48388,-0.20057 0.38067,-0.13464 0.66057,-0.30051 0.8412,-0.50316 0.17914,-0.20265 0.30305,-0.45666 0.3762,-0.76549 0.0396,-0.19155 0.0597,-0.53786 0.0597,-1.03616 l 0,-1.49976 c 0,-1.04656 0.0254,-1.70795 0.0784,-1.98278 0.0508,-0.27761 0.15302,-0.54411 0.30529,-0.79742 l -1.26443,0 c -0.12316,0.23249 -0.20601,0.50524 -0.24034,0.81893 z m -0.10152,2.51162 c -0.43963,-0.16795 -1.09872,-0.30952 -1.97426,-0.42612 -0.49786,-0.0666 -0.85091,-0.14088 -1.05543,-0.22416 -0.20601,-0.0833 -0.36649,-0.20474 -0.47696,-0.36713 -0.11196,-0.15963 -0.16944,-0.3366 -0.16944,-0.533 0,-0.30051 0.12391,-0.54966 0.36649,-0.75023 0.24333,-0.19849 0.60087,-0.29912 1.07185,-0.29912 0.46502,0 0.88077,0.0944 1.24278,0.28385 0.36201,0.19016 0.63072,0.44972 0.80016,0.77868 0.13062,0.25332 0.19481,0.62877 0.19481,1.1236 l 0,0.41363"
         style="fill:#2b2929;fill-opacity:1;fill-rule:nonzero;stroke:none"
         id="path1126"
         inkscape:connector-curvature="0" /><path
         d="m 115.09105,686.59035 1.18829,-0.14575 c -0.12838,-0.76063 -0.46128,-1.35817 -0.99721,-1.78846 -0.53518,-0.43098 -1.19351,-0.64682 -1.97277,-0.64682 -0.97482,0 -1.76154,0.29704 -2.35344,0.88972 -0.59415,0.59269 -0.89197,1.44355 -0.89197,2.55257 0,0.71622 0.12838,1.34361 0.38291,1.88077 0.25677,0.53717 0.64416,0.94039 1.16739,1.20897 0.52025,0.26927 1.08977,0.40322 1.70183,0.40322 0.77552,0 1.41072,-0.18322 1.90111,-0.54827 0.49338,-0.36436 0.80986,-0.8807 0.94944,-1.5525 l -1.17635,-0.16865 c -0.1127,0.44625 -0.30976,0.78077 -0.59414,1.00701 -0.28438,0.22417 -0.62848,0.3366 -1.03229,0.3366 -0.60982,0 -1.10469,-0.20265 -1.48611,-0.60934 -0.37993,-0.40531 -0.57026,-1.04726 -0.57026,-1.92588 0,-0.8918 0.18287,-1.54001 0.55234,-1.94531 0.36724,-0.40253 0.84644,-0.60518 1.4376,-0.60518 0.47546,0 0.86957,0.13672 1.18829,0.40738 0.31872,0.27067 0.521,0.68638 0.60534,1.24992"
         style="fill:#2b2929;fill-opacity:1;fill-rule:nonzero;stroke:none"
         id="path1128"
         inkscape:connector-curvature="0" /><path
         d="m 117.32059,692.02375 0,1.29433 1.21068,0 0,-1.29433 -1.21068,0 z m 0,-7.86452 0,6.63404 1.21068,0 0,-6.63404 -1.21068,0"
         style="fill:#2b2929;fill-opacity:1;fill-rule:nonzero;stroke:none"
         id="path1130"
         inkscape:connector-curvature="0" /><path
         d="m 125.00194,684.15923 0,0.83767 c -0.45233,-0.65862 -1.11664,-0.98758 -1.99517,-0.98758 -0.56876,0 -1.092,0.14505 -1.56896,0.43723 -0.47696,0.2901 -0.84643,0.69748 -1.10992,1.22215 -0.26199,0.52259 -0.39261,1.12152 -0.39261,1.80235 0,0.66069 0.11943,1.2624 0.35529,1.80165 0.23885,0.53924 0.59415,0.95357 1.06887,1.2388 0.47472,0.28802 1.00691,0.43307 1.59434,0.43307 0.42919,0 0.8121,-0.0854 1.14649,-0.25401 0.33738,-0.16795 0.61057,-0.38795 0.82106,-0.65862 l 0,3.28614 1.20247,0 0,-9.15885 -1.12186,0 z m -3.82314,3.31182 c 0,-0.85155 0.19258,-1.48657 0.57773,-1.90645 0.38515,-0.42057 0.83972,-0.63155 1.36444,-0.63155 0.52772,0 0.97706,0.20265 1.34654,0.60379 0.36947,0.40044 0.55533,1.01464 0.55533,1.83982 0,0.90846 -0.1881,1.57402 -0.56429,1.99875 -0.37619,0.42612 -0.83972,0.6371 -1.39281,0.6371 -0.53667,0 -0.98601,-0.20473 -1.34578,-0.61212 -0.36052,-0.40669 -0.54116,-1.05142 -0.54116,-1.92934"
         style="fill:#2b2929;fill-opacity:1;fill-rule:nonzero;stroke:none"
         id="path1132"
         inkscape:connector-curvature="0" /><path
         d="m 127.54273,686.13993 1.19501,0.17489 c 0.0664,-0.44555 0.25453,-0.787 0.56205,-1.02574 0.30528,-0.23666 0.73447,-0.35603 1.28682,-0.35603 0.55533,0 0.9681,0.10688 1.23606,0.31508 0.26871,0.21167 0.40381,0.45874 0.40381,0.74051 0,0.25609 -0.11942,0.45458 -0.35753,0.60171 -0.1657,0.0999 -0.57847,0.22555 -1.23606,0.37962 -0.88525,0.2082 -1.50253,0.38795 -1.84439,0.54133 -0.34186,0.15129 -0.6031,0.36227 -0.78001,0.63085 -0.17615,0.26859 -0.26572,0.56562 -0.26572,0.88972 0,0.29635 0.0731,0.56909 0.22019,0.82102 0.14406,0.25331 0.3441,0.4629 0.59415,0.62877 0.1881,0.1277 0.44486,0.23944 0.76806,0.32896 0.32544,0.0888 0.67401,0.13395 1.04573,0.13395 0.55981,0 1.05095,-0.077 1.47491,-0.22625 0.42396,-0.14921 0.73596,-0.35186 0.93824,-0.60795 0.20153,-0.25748 0.33888,-0.59893 0.41501,-1.02783 l -1.18157,-0.1513 c -0.0545,0.34146 -0.21049,0.60796 -0.46801,0.7995 -0.25676,0.19224 -0.62101,0.28802 -1.09125,0.28802 -0.55534,0 -0.95168,-0.0847 -1.1883,-0.2554 -0.2381,-0.17072 -0.35753,-0.37129 -0.35753,-0.59962 0,-0.14644 0.05,-0.27691 0.14854,-0.3942 0.0993,-0.12215 0.25303,-0.22 0.46352,-0.30051 0.12167,-0.0409 0.47771,-0.13672 1.06887,-0.28593 0.85539,-0.21306 1.45177,-0.38587 1.78915,-0.52259 0.33962,-0.13464 0.60534,-0.33243 0.79792,-0.5906 0.19257,-0.25817 0.28886,-0.57811 0.28886,-0.9619 0,-0.37546 -0.11868,-0.72732 -0.35305,-1.05975 -0.23587,-0.33035 -0.57549,-0.58644 -1.01811,-0.76758 -0.44263,-0.18183 -0.94496,-0.27136 -1.50477,-0.27136 -0.92854,0 -1.63465,0.17906 -2.12131,0.53786 -0.48666,0.35811 -0.79568,0.88903 -0.92929,1.59275"
         style="fill:#2b2929;fill-opacity:1;fill-rule:nonzero;stroke:none"
         id="path1134"
         inkscape:connector-curvature="0" /><path
         d="m 39.2382,684.15923 1.30302,0 0,9.15934 -1.30302,0 0,-9.15934 z"
         style="fill:#2b2929;fill-opacity:1;fill-rule:nonzero;stroke:none"
         id="path1136"
         inkscape:connector-curvature="0" /><path
         d="m 42.8389,684.15923 0,9.15885 3.39246,0 c 0.76582,0 1.351,-0.0451 1.75481,-0.13186 0.56355,-0.11937 1.04573,-0.33937 1.44432,-0.65515 0.51875,-0.40946 0.90838,-0.92997 1.16515,-1.56499 0.25975,-0.63571 0.38813,-1.36095 0.38813,-2.17711 0,-0.6954 -0.0873,-1.31168 -0.26423,-1.84954 -0.17466,-0.53716 -0.39634,-0.98271 -0.67177,-1.33458 -0.27319,-0.35186 -0.57101,-0.62946 -0.89719,-0.83003 -0.3232,-0.20196 -0.71506,-0.35603 -1.17411,-0.46013 -0.46128,-0.1048 -0.98825,-0.15546 -1.5824,-0.15546 l -3.55517,0 z m 1.30324,1.08057 2.10265,0 c 0.64938,0 1.16067,0.0555 1.53015,0.16865 0.36947,0.11312 0.66282,0.27136 0.88301,0.47539 0.30901,0.28594 0.5501,0.67389 0.72253,1.15831 0.17167,0.4858 0.259,1.07294 0.259,1.76556 0,0.95773 -0.17018,1.69338 -0.50681,2.20695 -0.33962,0.51635 -0.75015,0.85988 -1.23383,1.03477 -0.34857,0.12562 -0.91286,0.18738 -1.6854,0.18738 l -2.0713,0 0,-6.99701"
         style="fill:#2b2929;fill-opacity:1;fill-rule:nonzero;stroke:none"
         id="path1138"
         inkscape:connector-curvature="0" /><path
         d="m 34.45966,680.82104 119.6278,0"
         style="fill:none;stroke:#2b2929;stroke-width:0.11557876;stroke-linecap:butt;stroke-linejoin:miter;stroke-miterlimit:22.92560005;stroke-opacity:1;stroke-dasharray:none"
         id="path1140"
         inkscape:connector-curvature="0" /><path
         d="m 34.45966,696.54245 119.6278,0"
         style="fill:none;stroke:#2b2929;stroke-width:0.11557876;stroke-linecap:butt;stroke-linejoin:miter;stroke-miterlimit:22.92560005;stroke-opacity:1;stroke-dasharray:none"
         id="path1142"
         inkscape:connector-curvature="0" /><path
         d="m 34.45966,592.21259 119.6278,0"
         style="fill:none;stroke:#2b2929;stroke-width:0.11557876;stroke-linecap:butt;stroke-linejoin:miter;stroke-miterlimit:22.92560005;stroke-opacity:1;stroke-dasharray:none"
         id="path1144"
         inkscape:connector-curvature="0" /><path
         inkscape:connector-curvature="0"
         id="path5520"
         style="fill:#f5f5f5;fill-opacity:1;fill-rule:evenodd;stroke:none"
         d="m 34.45966,592.21259 119.6278,0 0,104.32986 -119.6278,0 0,-104.32986 z" /><path
         inkscape:connector-curvature="0"
         id="path5522"
         style="fill:#2b2929;fill-opacity:1;fill-rule:nonzero;stroke:none"
         d="m 46.21792,667.42456 -1.20844,0 0,7.16496 c -0.29185,-0.25817 -0.67252,-0.51634 -1.145,-0.77382 -0.47472,-0.25817 -0.89943,-0.45249 -1.27488,-0.58019 l 0,1.08543 c 0.67625,0.29634 1.26816,0.65445 1.77497,1.07502 0.50458,0.42196 0.86435,0.82934 1.07559,1.22562 l 0.77776,0 0,-9.19702" /><path
         inkscape:connector-curvature="0"
         id="path5524"
         style="fill:#2b2929;fill-opacity:1;fill-rule:nonzero;stroke:none"
         d="m 62.06355,671.01745 0,1.07294 4.17245,0.006 0,-3.39718 c -0.64042,-0.4754 -1.301,-0.83143 -1.98173,-1.07294 -0.68147,-0.23874 -1.38086,-0.35811 -2.09668,-0.35811 -0.96809,0 -1.84812,0.19224 -2.63708,0.57811 -0.79194,0.38379 -1.38758,0.94247 -1.79139,1.66979 -0.40381,0.7294 -0.60609,1.54417 -0.60609,2.4443 0,0.89111 0.20228,1.72254 0.60385,2.49427 0.39859,0.77452 0.97706,1.34777 1.7287,1.72323 0.75313,0.37338 1.61971,0.56076 2.60125,0.56076 0.71059,0 1.35549,-0.10618 1.93097,-0.32202 0.57623,-0.21306 1.02781,-0.51148 1.35325,-0.89527 0.32842,-0.38379 0.57623,-0.88278 0.74791,-1.49906 l -1.1771,-0.3012 c -0.14853,0.46706 -0.33215,0.8342 -0.5501,1.1007 -0.2202,0.2665 -0.53444,0.47956 -0.94273,0.63987 -0.40604,0.15963 -0.85986,0.24082 -1.35548,0.24082 -0.59639,0 -1.11216,-0.0854 -1.54583,-0.25331 -0.4359,-0.16864 -0.78448,-0.39073 -1.05244,-0.66555 -0.26647,-0.27553 -0.47248,-0.57603 -0.62176,-0.90638 -0.25005,-0.56562 -0.3762,-1.17982 -0.3762,-1.8426 0,-0.81685 0.15153,-1.49906 0.45457,-2.04941 0.3023,-0.55035 0.74268,-0.95774 1.32041,-1.22424 0.57847,-0.26649 1.19053,-0.40113 1.83991,-0.40113 0.56653,0 1.11663,0.10271 1.6533,0.30536 0.53892,0.20057 0.94496,0.41571 1.22263,0.64613 l 0,1.70587 -2.89459,0" /><path
         inkscape:connector-curvature="0"
         id="path5526"
         style="fill:#2b2929;fill-opacity:1;fill-rule:nonzero;stroke:none"
         d="m 48.02051,654.2113 0,-1.08127 -6.51172,0 c -0.009,0.27067 0.0366,0.53092 0.14033,0.78007 0.16496,0.41363 0.43068,0.81893 0.79568,1.22007 0.36649,0.39906 0.8942,0.86127 1.58239,1.38594 1.07111,0.81685 1.79588,1.46297 2.17207,1.94115 0.37619,0.47539 0.56429,0.92719 0.56429,1.35193 0,0.44555 -0.17168,0.82032 -0.51353,1.12776 -0.3441,0.30467 -0.7912,0.45874 -1.34206,0.45874 -0.5822,0 -1.04796,-0.16239 -1.39654,-0.48858 -0.35081,-0.3241 -0.52771,-0.77382 -0.53219,-1.34777 l -1.24353,0.11729 c 0.0851,0.86335 0.4068,1.52058 0.96138,1.97307 0.55459,0.4518 1.3025,0.67736 2.2385,0.67736 0.94496,0 1.69287,-0.24499 2.24297,-0.7308 0.5531,-0.48858 0.82852,-1.09167 0.82852,-1.81275 0,-0.36713 -0.0806,-0.72732 -0.24333,-1.08127 -0.16048,-0.35394 -0.42918,-0.72732 -0.80314,-1.11736 -0.37321,-0.39281 -0.99497,-0.92997 -1.86454,-1.61218 -0.72477,-0.5677 -1.18979,-0.95149 -1.39654,-1.15414 -0.20676,-0.20057 -0.37619,-0.40253 -0.5113,-0.60726 l 4.83229,0" /><path
         inkscape:connector-curvature="0"
         id="path5528"
         style="fill:#2b2929;fill-opacity:1;fill-rule:nonzero;stroke:none"
         d="m 57.39846,653.13003 0,9.15886 1.30548,0 0,-4.5423 4.892,4.5423 1.76601,0 -4.13289,-3.71018 4.31427,-5.44868 -1.72048,0 -3.50666,4.63599 -1.61225,-1.46297 0,-3.17302 -1.30548,0" /><path
         inkscape:connector-curvature="0"
         id="path5530"
         style="fill:#2b2929;fill-opacity:1;fill-rule:nonzero;stroke:none"
         d="m 66.79283,653.13003 0,1.28184 1.37862,0 0,-1.28184 c 0,-0.47192 -0.0896,-0.85085 -0.26796,-1.14095 -0.18138,-0.28801 -0.46576,-0.51149 -0.85315,-0.6718 l -0.33738,0.48234 c 0.25453,0.1041 0.44262,0.25747 0.56429,0.45804 0.12092,0.20265 0.1881,0.49206 0.20153,0.87237 l -0.68595,0" /><path
         inkscape:connector-curvature="0"
         id="path5532"
         style="fill:#2b2929;fill-opacity:1;fill-rule:nonzero;stroke:none"
         d="m 74.27936,653.13003 0,9.15886 3.71491,0 c 0.65385,0 1.15395,-0.0299 1.49805,-0.0875 0.48367,-0.0743 0.88972,-0.21722 1.21815,-0.4282 0.32543,-0.20959 0.58892,-0.50594 0.78896,-0.88348 0.19929,-0.37893 0.29782,-0.79533 0.29782,-1.24922 0,-0.77798 -0.26573,-1.43937 -0.79792,-1.97931 -0.53443,-0.53717 -1.49731,-0.80783 -2.89012,-0.80783 l -2.52736,0 0,-3.72337 -1.30249,0 z m 1.30249,4.80464 2.54826,0 c 0.84121,0 1.43984,0.14504 1.79364,0.43653 0.35305,0.29287 0.52995,0.70164 0.52995,1.23117 0,0.38379 -0.10375,0.71206 -0.312,0.9848 -0.209,0.27275 -0.48218,0.4525 -0.82404,0.53925 -0.21945,0.0534 -0.62326,0.0812 -1.21516,0.0812 l -2.52065,0 0,-3.27295" /><path
         inkscape:connector-curvature="0"
         id="path5534"
         style="fill:#2b2929;fill-opacity:1;fill-rule:nonzero;stroke:none"
         d="m 81.84576,653.13003 0,1.28184 1.37863,0 0,-1.28184 c 0,-0.47192 -0.0896,-0.85085 -0.26871,-1.14095 -0.18138,-0.28801 -0.46576,-0.51149 -0.85315,-0.6718 l -0.33738,0.48234 c 0.25453,0.1041 0.44262,0.25747 0.56429,0.45804 0.12166,0.20265 0.1881,0.49206 0.20228,0.87237 l -0.68596,0" /><path
         inkscape:connector-curvature="0"
         id="path5536"
         style="fill:#2b2929;fill-opacity:1;fill-rule:nonzero;stroke:none"
         d="m 89.35245,653.13003 0,9.15886 4.36652,0 c 0.87853,0 1.54583,-0.0833 2.00263,-0.24707 0.45606,-0.16448 0.82106,-0.45458 1.09648,-0.87029 0.27245,-0.41779 0.40829,-0.87862 0.40829,-1.38177 0,-0.65029 -0.22541,-1.19648 -0.67923,-1.64203 -0.45158,-0.44556 -1.15097,-0.72941 -2.09593,-0.85086 0.34633,-0.15338 0.60758,-0.30467 0.78672,-0.45666 0.37992,-0.3241 0.74044,-0.73148 1.0823,-1.21729 l 1.71302,-2.49289 -1.63987,0 -1.3025,1.90645 c -0.38067,0.54757 -0.69491,0.97023 -0.94272,1.26032 -0.24557,0.29218 -0.46576,0.49691 -0.66058,0.61212 -0.19481,0.11729 -0.39261,0.19849 -0.59414,0.24498 -0.14928,0.0278 -0.38963,0.043 -0.72701,0.043 l -1.51149,0 0,-4.0669 -1.30249,0 z m 1.30249,5.11555 2.80279,0 c 0.59414,0 1.06215,0.0576 1.39654,0.17281 0.33738,0.11521 0.59191,0.29912 0.76582,0.55035 0.17466,0.25193 0.26199,0.52467 0.26199,0.82102 0,0.43306 -0.1672,0.78908 -0.50681,1.06808 -0.33738,0.27968 -0.87182,0.41848 -1.6033,0.41848 l -3.11703,0 0,-3.03074" /><path
         inkscape:connector-curvature="0"
         id="path5538"
         style="fill:#2b2929;fill-opacity:1;fill-rule:nonzero;stroke:none"
         d="m 41.66927,641.25413 1.20919,0.14852 c 0.13958,-0.6371 0.3762,-1.09584 0.70835,-1.37692 0.33514,-0.28177 0.74119,-0.42265 1.22039,-0.42265 0.56876,0 1.0502,0.18391 1.44282,0.55035 0.38962,0.36713 0.58668,0.82101 0.58668,1.36234 0,0.51635 -0.18138,0.94316 -0.54339,1.27768 -0.36425,0.33451 -0.82554,0.50315 -1.38535,0.50315 -0.22915,0 -0.51353,-0.0423 -0.85315,-0.12561 l 0.1351,0.98757 c 0.0806,-0.009 0.14481,-0.0132 0.19556,-0.0132 0.51354,0 0.97706,0.12561 1.38908,0.37546 0.41351,0.24915 0.61952,0.63571 0.61952,1.15552 0,0.41155 -0.15077,0.75509 -0.45158,1.02367 -0.30006,0.27136 -0.68819,0.40738 -1.16291,0.40738 -0.47024,0 -0.86211,-0.1388 -1.17411,-0.41155 -0.31424,-0.27482 -0.51577,-0.68915 -0.60534,-1.2388 l -1.20919,0.20057 c 0.14704,0.75438 0.48367,1.33944 1.00691,1.75307 0.52548,0.41363 1.1771,0.62252 1.95635,0.62252 0.53667,0 1.03229,-0.10896 1.48462,-0.32202 0.45158,-0.21584 0.79792,-0.50801 1.03826,-0.87862 0.23885,-0.37129 0.36052,-0.76341 0.36052,-1.1812 0,-0.39489 -0.11495,-0.75508 -0.3441,-1.08127 -0.22989,-0.3241 -0.56653,-0.58227 -1.01363,-0.77451 0.58221,-0.12354 1.03453,-0.38379 1.35773,-0.77799 0.32096,-0.39281 0.48144,-0.88486 0.48144,-1.47616 0,-0.7995 -0.312,-1.47755 -0.94049,-2.03414 -0.62624,-0.5566 -1.41968,-0.8342 -2.37807,-0.8342 -0.86509,0 -1.5824,0.23874 -2.15415,0.71899 -0.57101,0.47748 -0.89645,1.09793 -0.97706,1.86203" /><path
         inkscape:connector-curvature="0"
         id="path5540"
         style="fill:#2b2929;fill-opacity:1;fill-rule:nonzero;stroke:none"
         d="m 57.67612,638.83551 1.30302,0 0,9.15933 -1.30302,0 0,-9.15933 z" /><path
         inkscape:connector-curvature="0"
         id="path5542"
         style="fill:#2b2929;fill-opacity:1;fill-rule:nonzero;stroke:none"
         d="m 61.43731,638.83551 0,1.28183 1.37862,0 0,-1.28183 c 0,-0.47124 -0.0896,-0.85086 -0.26796,-1.14096 -0.18138,-0.28801 -0.46576,-0.51148 -0.85315,-0.6718 l -0.33738,0.48234 c 0.25453,0.1041 0.44262,0.25748 0.56354,0.45804 0.12167,0.20266 0.18884,0.49275 0.20228,0.87238 l -0.68595,0" /><path
         inkscape:connector-curvature="0"
         id="path5544"
         style="fill:#2b2929;fill-opacity:1;fill-rule:nonzero;stroke:none"
         d="m 68.86861,638.83551 0,9.15954 1.30473,0 0,-8.07828 4.85094,0 0,-1.08126 -6.15567,0" /><path
         inkscape:connector-curvature="0"
         id="path5546"
         style="fill:#2b2929;fill-opacity:1;fill-rule:nonzero;stroke:none"
         d="m 76.7373,638.83551 0,1.28183 1.37863,0 0,-1.28183 c 0,-0.47124 -0.0896,-0.85086 -0.26796,-1.14096 -0.18138,-0.28801 -0.46576,-0.51148 -0.85315,-0.6718 l -0.33738,0.48234 c 0.25452,0.1041 0.44262,0.25748 0.56429,0.45804 0.12092,0.20266 0.18809,0.49275 0.20153,0.87238 l -0.68596,0" /><path
         inkscape:connector-curvature="0"
         id="path5548"
         style="fill:#2b2929;fill-opacity:1;fill-rule:nonzero;stroke:none"
         d="m 87.03782,638.83551 -3.81642,9.15954 1.41297,0 2.55945,-6.65417 c 0.20676,-0.533 0.37843,-1.03407 0.51577,-1.49906 0.15376,0.49899 0.33066,0.99868 0.5322,1.49906 l 2.66022,6.65417 1.33085,0 -3.85821,-9.15954 -1.33683,0" /><path
         inkscape:connector-curvature="0"
         id="path5550"
         style="fill:#2b2929;fill-opacity:1;fill-rule:nonzero;stroke:none"
         d="m 45.53868,624.54098 0,2.19238 -4.27247,0 0,1.03199 4.4949,5.93517 0.989,0 0,-5.93517 1.33011,0 0,-1.03199 -1.33011,0 0,-2.19238 -1.21143,0 z m 0,3.22437 0,4.12867 -3.08269,-4.12867 3.08269,0" /><path
         inkscape:connector-curvature="0"
         id="path5552"
         style="fill:#2b2929;fill-opacity:1;fill-rule:nonzero;stroke:none"
         d="m 57.52012,624.54098 0,9.15954 6.64682,0 0,-1.08126 -5.34208,0 0,-2.83642 4.62179,0 0,-1.08127 -4.62179,0 0,-4.16059 -1.30474,0" /><path
         inkscape:connector-curvature="0"
         id="path5554"
         style="fill:#2b2929;fill-opacity:1;fill-rule:nonzero;stroke:none"
         d="m 64.49462,624.54098 0,1.28183 1.37862,0 0,-1.28183 c 0,-0.47124 -0.0896,-0.85086 -0.26796,-1.14096 -0.18138,-0.28801 -0.46576,-0.51148 -0.85315,-0.6718 l -0.33738,0.48234 c 0.25453,0.1041 0.44263,0.25748 0.56429,0.45805 0.12092,0.20265 0.18735,0.49274 0.20153,0.87237 l -0.68595,0" /><path
         inkscape:connector-curvature="0"
         id="path5556"
         style="fill:#2b2929;fill-opacity:1;fill-rule:nonzero;stroke:none"
         d="m 73.70089,624.54098 -2.61469,9.15954 1.33758,0 1.49954,-6.00318 c 0.16048,-0.62947 0.29857,-1.25408 0.41501,-1.87453 0.25229,0.97856 0.39933,1.5414 0.44486,1.69339 l 1.87425,6.18432 1.57344,0 1.41072,-4.63598 c 0.35306,-1.14998 0.60758,-2.23125 0.76582,-3.24173 0.12391,0.57742 0.28886,1.24298 0.49114,1.99181 l 1.54284,5.8859 1.3122,0 -2.70128,-9.15954 -1.25696,0 -2.07578,6.97758 c -0.17466,0.58435 -0.27766,0.94316 -0.30976,1.07502 -0.103,-0.42057 -0.19929,-0.77868 -0.28886,-1.07502 l -2.08921,-6.97758 -1.33086,0" /><path
         inkscape:connector-curvature="0"
         id="path5558"
         style="fill:#2b2929;fill-opacity:1;fill-rule:nonzero;stroke:none"
         d="m 84.37088,624.54098 0,1.28183 1.37788,0 0,-1.28183 c 0,-0.47124 -0.0888,-0.85086 -0.26796,-1.14096 -0.18138,-0.28801 -0.46576,-0.51148 -0.85315,-0.6718 l -0.33738,0.48234 c 0.25453,0.1041 0.44262,0.25748 0.56429,0.45805 0.12166,0.20265 0.18809,0.49274 0.20153,0.87237 l -0.68521,0" /><path
         inkscape:connector-curvature="0"
         id="path5560"
         style="fill:#2b2929;fill-opacity:1;fill-rule:nonzero;stroke:none"
         d="m 94.38403,624.54098 0,3.87882 -3.79552,5.28072 1.58464,0 1.94217,-2.76216 c 0.35828,-0.51565 0.69043,-1.03199 1.00019,-1.55042 0.29633,0.48026 0.65386,1.01951 1.07559,1.61913 l 1.90858,2.69345 1.5182,0 -3.93136,-5.28072 0,-3.87882 -1.30249,0" /><path
         inkscape:connector-curvature="0"
         id="path5562"
         style="fill:#2b2929;fill-opacity:1;fill-rule:nonzero;stroke:none"
         d="m 41.66255,612.64564 1.27115,0.0999 c 0.094,-0.57533 0.31125,-1.00632 0.65311,-1.29641 0.3441,-0.2901 0.75686,-0.43515 1.24129,-0.43515 0.5822,0 1.07558,0.20474 1.4764,0.61212 0.40381,0.40947 0.60609,0.95149 0.60609,1.62537 0,0.64127 -0.19257,1.1472 -0.57996,1.5185 -0.38814,0.3706 -0.89495,0.55659 -1.52343,0.55659 -0.38963,0 -0.74119,-0.0833 -1.05543,-0.24776 -0.3135,-0.16378 -0.55907,-0.37754 -0.73821,-0.63988 l -1.13529,0.13672 0.95466,4.7047 4.89872,0 0,-1.07502 -3.93137,0 -0.53219,-2.46096 c 0.59191,0.38379 1.21367,0.57533 1.8623,0.57533 0.85987,0 1.58539,-0.27691 2.17655,-0.83142 0.5919,-0.55452 0.88748,-1.26657 0.88748,-2.13686 0,-0.82934 -0.26124,-1.54556 -0.77925,-2.14935 -0.63296,-0.73981 -1.49582,-1.11111 -2.58707,-1.11111 -0.89719,0 -1.62868,0.23249 -2.19521,0.69956 -0.56653,0.46707 -0.88972,1.08543 -0.97034,1.85509" /><path
         inkscape:connector-curvature="0"
         id="path5564"
         style="fill:#2b2929;fill-opacity:1;fill-rule:nonzero;stroke:none"
         d="m 55.61154,610.24645 3.78507,9.15955 1.40326,0 4.03213,-9.15955 -1.48611,0 -1.14948,2.77465 -4.11946,0 -1.07932,-2.77465 -1.38609,0 z m 2.84235,3.76223 3.34169,0 -1.03005,2.53522 c -0.312,0.76965 -0.54563,1.40329 -0.69715,1.9002 -0.12614,-0.58852 -0.3023,-1.1708 -0.53219,-1.75099 l -1.0823,-2.68443" /><path
         inkscape:connector-curvature="0"
         id="path5566"
         style="fill:#2b2929;fill-opacity:1;fill-rule:nonzero;stroke:none"
         d="m 66.03372,610.24645 0,1.28184 1.37863,0 0,-1.28184 c 0,-0.47123 -0.0896,-0.85086 -0.26871,-1.14095 -0.18063,-0.28732 -0.46501,-0.51149 -0.85315,-0.67181 l -0.33738,0.48234 c 0.25527,0.1041 0.44337,0.25748 0.56504,0.45805 0.12092,0.20265 0.18809,0.49275 0.20153,0.87237 l -0.68596,0" /><path
         inkscape:connector-curvature="0"
         id="path5568"
         style="fill:#2b2929;fill-opacity:1;fill-rule:nonzero;stroke:none"
         d="m 80.54775,613.45833 1.30473,-0.30745 c -0.27319,-0.99313 -0.76582,-1.75237 -1.47491,-2.27705 -0.71059,-0.52259 -1.57792,-0.78284 -2.60574,-0.78284 -1.0614,0 -1.92351,0.20057 -2.58931,0.60171 -0.66505,0.40252 -1.17187,0.9848 -1.5182,1.74613 -0.34634,0.76341 -0.52025,1.58234 -0.52025,2.45679 0,0.95288 0.19481,1.785 0.58668,2.49497 0.39261,0.70997 0.94944,1.24991 1.6742,1.61843 0.72253,0.36922 1.51821,0.55243 2.38778,0.55243 0.98602,0 1.81454,-0.23249 2.48631,-0.69956 0.67177,-0.46637 1.13977,-1.12152 1.40326,-1.96821 l -1.2816,-0.28177 c -0.22989,0.66764 -0.55981,1.15206 -0.99571,1.45673 -0.43367,0.30536 -0.9793,0.45666 -1.63987,0.45666 -0.75687,0 -1.38759,-0.16865 -1.89664,-0.50524 -0.50906,-0.33937 -0.86659,-0.79187 -1.07111,-1.36096 -0.20675,-0.5677 -0.30976,-1.15414 -0.30976,-1.75723 0,-0.78076 0.12167,-1.45881 0.365,-2.04039 0.24557,-0.58019 0.624,-1.01534 1.13977,-1.30335 0.51577,-0.28802 1.07335,-0.43098 1.67421,-0.43098 0.72925,0 1.34653,0.1964 1.85335,0.58644 0.50681,0.39211 0.84867,0.97439 1.02781,1.74474" /><path
         inkscape:connector-curvature="0"
         id="path5570"
         style="fill:#2b2929;fill-opacity:1;fill-rule:nonzero;stroke:none"
         d="m 83.6185,610.24645 0,1.28184 1.37862,0 0,-1.28184 c 0,-0.47123 -0.0896,-0.85086 -0.26871,-1.14095 -0.18137,-0.28732 -0.46576,-0.51149 -0.85315,-0.67181 l -0.33738,0.48234 c 0.25528,0.1041 0.44263,0.25748 0.56429,0.45805 0.12167,0.20265 0.1881,0.49275 0.20228,0.87237 l -0.68595,0" /><path
         inkscape:connector-curvature="0"
         id="path5572"
         style="fill:#2b2929;fill-opacity:1;fill-rule:nonzero;stroke:none"
         d="m 91.1431,610.24645 0,9.15955 1.30548,0 0,-3.76223 5.1189,0 0,3.76223 1.30548,0 0,-9.15955 -1.30548,0 0,4.31674 -5.1189,0 0,-4.31674 -1.30548,0" /><path
         inkscape:connector-curvature="0"
         id="path5574"
         style="fill:#2b2929;fill-opacity:1;fill-rule:nonzero;stroke:none"
         d="m 101.20327,610.24645 0,1.28184 1.37863,0 0,-1.28184 c 0,-0.47123 -0.0896,-0.85086 -0.26871,-1.14095 -0.18138,-0.28732 -0.46577,-0.51149 -0.85316,-0.67181 l -0.33737,0.48234 c 0.25452,0.1041 0.44262,0.25748 0.56428,0.45805 0.12167,0.20265 0.1881,0.49275 0.20228,0.87237 l -0.68595,0" /><path
         inkscape:connector-curvature="0"
         id="path5576"
         style="fill:#2b2929;fill-opacity:1;fill-rule:nonzero;stroke:none"
         d="m 108.648,610.24645 0,9.15955 1.96307,0 2.33031,-6.48553 c 0.21571,-0.60309 0.37395,-1.0549 0.47024,-1.3561 0.11196,0.33313 0.28662,0.8231 0.52547,1.46992 l 2.35718,6.37171 1.75482,0 0,-9.15955 -1.25696,0 0,7.66673 -2.8625,-7.66673 -1.17635,0 -2.84832,7.79651 0,-7.79651 -1.25696,0" /><path
         inkscape:connector-curvature="0"
         id="path5578"
         style="fill:#2b2929;fill-opacity:1;fill-rule:nonzero;stroke:none"
         d="m 47.93766,602.86773 -1.20173,-0.0874 c -0.10748,0.44208 -0.259,0.76341 -0.45606,0.9619 -0.32842,0.32202 -0.73148,0.48164 -1.21143,0.48164 -0.38515,0 -0.72253,-0.0999 -1.01363,-0.29981 -0.38067,-0.25818 -0.68073,-0.63572 -0.90167,-1.13055 -0.2172,-0.49483 -0.33215,-1.20063 -0.34185,-2.11742 0.29184,0.41155 0.64714,0.7183 1.06961,0.91887 0.41948,0.19848 0.86211,0.29842 1.32339,0.29842 0.80687,0 1.49283,-0.27483 2.05936,-0.82726 0.56652,-0.55243 0.85091,-1.26448 0.85091,-2.13894 0,-0.57603 -0.1351,-1.10903 -0.40157,-1.60385 -0.26573,-0.49275 -0.63296,-0.87168 -1.09872,-1.13471 -0.46502,-0.26164 -0.99274,-0.39212 -1.58464,-0.39212 -1.00915,0 -1.83021,0.34354 -2.46541,1.03408 -0.63744,0.68915 -0.95392,1.82594 -0.95392,3.40759 0,1.77042 0.35082,3.05642 1.05469,3.86078 0.6128,0.69886 1.43834,1.05073 2.47884,1.05073 0.77328,0 1.40848,-0.20265 1.9041,-0.60726 0.49562,-0.40322 0.7912,-0.9619 0.88973,-1.67465 z m -4.93753,-3.94683 c 0,-0.38865 0.0896,-0.75925 0.26572,-1.1132 0.1769,-0.35394 0.42396,-0.62252 0.74119,-0.80852 0.31872,-0.1853 0.65311,-0.27899 1.00244,-0.27899 0.51054,0 0.94943,0.19155 1.31592,0.57533 0.36724,0.38379 0.55011,0.9043 0.55011,1.56083 0,0.63363 -0.18063,1.13263 -0.54339,1.49768 -0.36201,0.36435 -0.81882,0.54549 -1.36892,0.54549 -0.54787,0 -1.01139,-0.18114 -1.39207,-0.54549 -0.38067,-0.36505 -0.571,-0.84253 -0.571,-1.43313" /><path
         inkscape:connector-curvature="0"
         id="path5580"
         style="fill:#2b2929;fill-opacity:1;fill-rule:nonzero;stroke:none"
         d="m 57.45369,595.95192 0,9.15955 3.39171,0 c 0.76657,0 1.35101,-0.0451 1.75482,-0.13186 0.56429,-0.12007 1.04572,-0.33938 1.44506,-0.65515 0.51875,-0.40947 0.90838,-0.92997 1.16515,-1.56569 0.259,-0.63502 0.38739,-1.36026 0.38739,-2.17711 0,-0.6947 -0.0873,-1.31098 -0.26349,-1.84884 -0.17391,-0.53716 -0.39709,-0.98272 -0.67177,-1.33458 -0.27319,-0.35187 -0.57175,-0.62947 -0.89719,-0.82934 -0.3232,-0.20266 -0.71506,-0.35673 -1.17411,-0.46083 -0.46054,-0.10479 -0.989,-0.15615 -1.5824,-0.15615 l -3.55517,0 z m 1.3025,1.08127 2.10339,0 c 0.64938,0 1.16067,0.0555 1.53015,0.16864 0.36873,0.11313 0.66207,0.27067 0.88301,0.47609 0.30901,0.28524 0.55011,0.67319 0.72253,1.15761 0.17167,0.48581 0.259,1.07225 0.259,1.76557 0,0.95773 -0.17018,1.69338 -0.50681,2.20764 -0.33962,0.51565 -0.75015,0.85919 -1.23457,1.03408 -0.34858,0.12561 -0.91212,0.18738 -1.68541,0.18738 l -2.07129,0 0,-6.99701" /><path
         inkscape:connector-curvature="0"
         id="path5582"
         style="fill:#2b2929;fill-opacity:1;fill-rule:nonzero;stroke:none"
         d="m 67.55268,595.95192 0,1.28184 1.37788,0 0,-1.28184 c 0,-0.47123 -0.0896,-0.85086 -0.26871,-1.14026 -0.18063,-0.28801 -0.46502,-0.51218 -0.85241,-0.6718 l -0.33738,0.48164 c 0.25453,0.1041 0.44263,0.25818 0.56429,0.45874 0.12167,0.20196 0.1881,0.49206 0.20154,0.87168 l -0.68521,0" /><path
         inkscape:connector-curvature="0"
         id="path5584"
         style="fill:#2b2929;fill-opacity:1;fill-rule:nonzero;stroke:none"
         d="m 75.06608,595.95192 0,9.15955 7.12079,0 0,-1.08127 -5.8183,0 0,-2.8045 5.44957,0 0,-1.07432 -5.44957,0 0,-3.11819 6.0482,0 0,-1.08127 -7.35069,0" /><path
         inkscape:connector-curvature="0"
         id="path5586"
         style="fill:#2b2929;fill-opacity:1;fill-rule:nonzero;stroke:none"
         d="m 84.3776,595.95192 0,1.28184 1.37863,0 0,-1.28184 c 0,-0.47123 -0.0896,-0.85086 -0.26871,-1.14026 -0.18064,-0.28801 -0.46502,-0.51218 -0.85315,-0.6718 l -0.33664,0.48164 c 0.25453,0.1041 0.44263,0.25818 0.56355,0.45874 0.12166,0.20196 0.18809,0.49206 0.20227,0.87168 l -0.68595,0" /><path
         inkscape:connector-curvature="0"
         id="path5588"
         style="fill:#2b2929;fill-opacity:1;fill-rule:nonzero;stroke:none"
         d="m 91.84995,595.95192 0,9.15955 1.33683,0 5.17489,-7.19064 0,7.19064 1.2495,0 0,-9.15955 -1.33683,0 -5.17414,7.19758 0,-7.19758 -1.25025,0" /><path
         inkscape:connector-curvature="0"
         id="path5590"
         style="fill:#2b2929;fill-opacity:1;fill-rule:nonzero;stroke:none"
         d="m 101.96237,595.95192 0,1.28184 1.37788,0 0,-1.28184 c 0,-0.47123 -0.0888,-0.85086 -0.26796,-1.14026 -0.18138,-0.28801 -0.46576,-0.51218 -0.85315,-0.6718 l -0.33738,0.48164 c 0.25527,0.1041 0.44262,0.25818 0.56429,0.45874 0.12166,0.20196 0.18809,0.49206 0.20228,0.87168 l -0.68596,0" /><path
         inkscape:connector-curvature="0"
         id="path5592"
         style="fill:#2b2929;fill-opacity:1;fill-rule:nonzero;stroke:none"
         d="m 116.91379,596.93325 c 0.60311,-0.38795 1.16292,-0.66972 1.67197,-0.84877 l -0.38291,-0.84461 c -0.70685,0.23665 -1.41296,0.61211 -2.11683,1.12429 -0.72925,-0.37823 -1.53463,-0.5677 -2.41763,-0.5677 -0.89197,0 -1.69959,0.20057 -2.4266,0.59963 -0.72477,0.40044 -1.28458,0.9619 -1.67644,1.68644 -0.39187,0.72524 -0.58743,1.54209 -0.58743,2.44847 0,0.9043 0.1978,1.72739 0.5919,2.46929 0.39486,0.73981 0.95392,1.30474 1.68317,1.69338 0.72701,0.38587 1.54134,0.5802 2.44077,0.5802 0.91063,0 1.72945,-0.20057 2.46093,-0.60379 0.72925,-0.40114 1.28607,-0.96398 1.66973,-1.68714 0.38291,-0.72247 0.57325,-1.53723 0.57325,-2.44569 0,-0.753 -0.12167,-1.43105 -0.36948,-2.03276 -0.24557,-0.60101 -0.61654,-1.12568 -1.1144,-1.57124 z m -2.86921,1.55042 c 0.75238,-0.1964 1.37191,-0.48858 1.86006,-0.87653 0.76582,0.65028 1.14873,1.62745 1.14873,2.93011 0,0.74189 -0.1351,1.3901 -0.4053,1.94461 -0.27095,0.55243 -0.66804,0.98342 -1.18829,1.29017 -0.52324,0.30536 -1.10768,0.45874 -1.7593,0.45874 -0.97034,0 -1.77721,-0.30953 -2.41763,-0.92789 -0.64192,-0.61837 -0.96064,-1.5414 -0.96064,-2.77188 0,-1.19023 0.31648,-2.10493 0.94944,-2.74273 0.6352,-0.63571 1.44506,-0.95565 2.42883,-0.95565 0.468,0 0.90615,0.0812 1.31892,0.2436 -0.40829,0.24707 -0.83972,0.42196 -1.2913,0.52467 l 0.31648,0.88278" /><path
         inkscape:connector-curvature="0"
         id="path5594"
         style="fill:#2b2929;fill-opacity:1;fill-rule:nonzero;stroke:none"
         d="m 120.31296,595.95192 0,1.28184 1.37863,0 0,-1.28184 c 0,-0.47123 -0.0896,-0.85086 -0.26871,-1.14026 -0.18138,-0.28801 -0.46576,-0.51218 -0.85315,-0.6718 l -0.33738,0.48164 c 0.25453,0.1041 0.44263,0.25818 0.56429,0.45874 0.12167,0.20196 0.1881,0.49206 0.20153,0.87168 l -0.68521,0" /><path
         inkscape:connector-curvature="0"
         id="path5596"
         style="fill:#2b2929;fill-opacity:1;fill-rule:nonzero;stroke:none"
         d="m 127.35613,598.89522 1.22934,0.0999 c 0.0575,-0.45875 0.19258,-0.83351 0.40605,-1.12777 0.21348,-0.29426 0.54339,-0.53092 0.99049,-0.71275 0.44711,-0.18114 0.95168,-0.27066 1.51149,-0.27066 0.49786,0 0.93601,0.0687 1.31668,0.20473 0.38067,0.1388 0.66505,0.32618 0.85091,0.56562 0.18586,0.24082 0.2799,0.50107 0.2799,0.78423 0,0.28801 -0.0896,0.53786 -0.27094,0.753 -0.1784,0.21514 -0.47472,0.3942 -0.88525,0.53925 -0.26572,0.0958 -0.84867,0.24568 -1.75482,0.44833 -0.90316,0.20265 -1.53836,0.39211 -1.90112,0.57117 -0.47024,0.22833 -0.82105,0.51426 -1.05244,0.85294 -0.2299,0.33937 -0.3441,0.71899 -0.3441,1.14095 0,0.46082 0.13958,0.89319 0.42173,1.29433 0.28214,0.40322 0.69491,0.70858 1.23606,0.91748 0.54413,0.20681 1.145,0.31092 1.80781,0.31092 0.73149,0 1.37415,-0.10896 1.93322,-0.32827 0.55757,-0.21723 0.98601,-0.53925 1.28681,-0.96398 0.29782,-0.42404 0.46129,-0.90638 0.48368,-1.44354 l -1.2495,-0.0874 c -0.0694,0.57811 -0.29632,1.01742 -0.68371,1.31168 -0.38739,0.29634 -0.95914,0.44347 -1.71526,0.44347 -0.78971,0 -1.36295,-0.13463 -1.72497,-0.40322 -0.36051,-0.26858 -0.54115,-0.59268 -0.54115,-0.97022 0,-0.33035 0.12839,-0.60171 0.38291,-0.81269 0.25229,-0.21306 0.9054,-0.43028 1.96531,-0.65237 1.05991,-0.22416 1.78692,-0.41779 2.18103,-0.58435 0.57399,-0.24707 0.99795,-0.55868 1.27114,-0.93414 0.27244,-0.37754 0.40829,-0.81269 0.40829,-1.30266 0,-0.48858 -0.14929,-0.94663 -0.45009,-1.3783 -0.30006,-0.43029 -0.73149,-0.7648 -1.29354,-1.00632 -0.5613,-0.23874 -1.19501,-0.35811 -1.89663,-0.35811 -0.89197,0 -1.63988,0.11937 -2.24074,0.36228 -0.6031,0.24151 -1.07558,0.60378 -1.41968,1.09029 -0.34186,0.48372 -0.52249,1.03407 -0.53891,1.64619" /><path
         inkscape:connector-curvature="0"
         id="path5598"
         style="fill:#2b2929;fill-opacity:1;fill-rule:nonzero;stroke:none"
         d="m 137.13863,595.95192 0,1.28184 1.37788,0 0,-1.28184 c 0,-0.47123 -0.0896,-0.85086 -0.26796,-1.14026 -0.18138,-0.28801 -0.46576,-0.51218 -0.85315,-0.6718 l -0.33738,0.48164 c 0.25453,0.1041 0.44262,0.25818 0.56429,0.45874 0.12092,0.20196 0.1881,0.49206 0.20153,0.87168 l -0.68521,0" /><path
         inkscape:connector-curvature="0"
         id="path5600"
         style="fill:#2b2929;fill-opacity:1;fill-rule:nonzero;stroke:none"
         d="m 146.88307,595.95192 0,8.07828 -3.24541,0 0,1.08127 7.80749,0 0,-1.08127 -3.25884,0 0,-8.07828 -1.30324,0" /><path
         inkscape:connector-curvature="0"
         id="path5602"
         style="fill:#2b2929;fill-opacity:1;fill-rule:nonzero;stroke:none"
         d="m 59.0234,684.15923 3.78432,9.15885 1.40326,0 4.03213,-9.15885 -1.48611,0 -1.14873,2.77396 -4.11946,0 -1.08006,-2.77396 -1.38535,0 z m 2.8416,3.76153 3.3417,0 -1.03005,2.53522 c -0.31201,0.77036 -0.54563,1.40329 -0.69716,1.9002 -0.12614,-0.58852 -0.30229,-1.17079 -0.53219,-1.75098 l -1.0823,-2.68444" /><path
         inkscape:connector-curvature="0"
         id="path5604"
         style="fill:#2b2929;fill-opacity:1;fill-rule:nonzero;stroke:none"
         d="m 69.13134,684.15923 0,6.63404 1.08006,0 0,-0.92997 c 0.22467,0.3241 0.52249,0.58644 0.89421,0.78284 0.37171,0.1978 0.79568,0.29843 1.2704,0.29843 0.52771,0 0.96138,-0.10202 1.29876,-0.30676 0.33961,-0.20542 0.57772,-0.48858 0.71581,-0.85571 0.56578,0.77452 1.30025,1.16247 2.20341,1.16247 0.7091,0 1.25249,-0.18322 1.63316,-0.54827 0.38067,-0.36436 0.571,-0.92581 0.571,-1.68228 l 0,-4.55479 -1.20172,0 0,4.17933 c 0,0.45041 -0.0388,0.77382 -0.11719,0.97231 -0.0799,0.1964 -0.22169,0.35672 -0.4262,0.47817 -0.20676,0.11937 -0.45009,0.18114 -0.72701,0.18114 -0.50234,0 -0.91734,-0.15616 -1.25024,-0.46707 -0.32992,-0.30953 -0.49786,-0.80575 -0.49786,-1.48865 l 0,-3.85523 -1.20845,0 0,4.3098 c 0,0.50108 -0.0985,0.87654 -0.29558,1.12569 -0.1978,0.24915 -0.51876,0.37546 -0.9681,0.37546 -0.33962,0 -0.65386,-0.0833 -0.94272,-0.25193 -0.28886,-0.16656 -0.5001,-0.40947 -0.62848,-0.7294 -0.13062,-0.32202 -0.19481,-0.78493 -0.19481,-1.38802 l 0,-3.4416 -1.20845,0" /><path
         inkscape:connector-curvature="0"
         id="path5606"
         style="fill:#2b2929;fill-opacity:1;fill-rule:nonzero;stroke:none"
         d="m 80.5985,692.02375 0,1.29433 1.21143,0 0,-1.29433 -1.21143,0 z m 0,-7.86452 0,6.63404 1.21143,0 0,-6.63404 -1.21143,0" /><path
         inkscape:connector-curvature="0"
         id="path5608"
         style="fill:#2b2929;fill-opacity:1;fill-rule:nonzero;stroke:none"
         d="m 83.65134,684.15923 0,6.63404 1.08752,0 0,-0.94246 c 0.52473,0.72871 1.2816,1.09376 2.26985,1.09376 0.43143,0 0.82628,-0.0722 1.18605,-0.21515 0.36276,-0.14504 0.63072,-0.33312 0.80986,-0.567 0.18138,-0.23319 0.30528,-0.5101 0.37843,-0.83004 0.0433,-0.2089 0.0664,-0.57325 0.0664,-1.09376 l 0,-4.07939 -1.21068,0 0,4.03636 c 0,0.45666 -0.0463,0.7995 -0.14033,1.02783 -0.094,0.22625 -0.26124,0.40739 -0.50009,0.54202 -0.24035,0.13672 -0.52025,0.20474 -0.84345,0.20474 -0.51652,0 -0.95914,-0.15407 -1.33534,-0.45666 -0.37395,-0.30467 -0.55981,-0.8807 -0.55981,-1.73156 l 0,-3.62273 -1.20844,0" /><path
         inkscape:connector-curvature="0"
         id="path5610"
         style="fill:#2b2929;fill-opacity:1;fill-rule:nonzero;stroke:none"
         d="m 90.85274,687.47729 c 0,1.2284 0.36724,2.13894 1.10395,2.72954 0.61206,0.49067 1.35997,0.73774 2.24297,0.73774 0.98154,0 1.78393,-0.29843 2.4057,-0.89805 0.624,-0.59685 0.93376,-1.42203 0.93376,-2.47554 0,-0.85502 -0.13809,-1.52682 -0.41277,-2.0154 -0.27542,-0.49067 -0.67699,-0.8696 -1.20172,-1.14095 -0.52846,-0.27067 -1.10096,-0.40531 -1.72497,-0.40531 -0.99795,0 -1.80483,0.29704 -2.42211,0.89389 -0.61728,0.59476 -0.92481,1.45187 -0.92481,2.57408 z m 1.24353,0 c 0,-0.85085 0.20004,-1.48657 0.59862,-1.90922 0.39933,-0.42404 0.90167,-0.63502 1.50477,-0.63502 0.60087,0 1.10096,0.21306 1.49955,0.6378 0.39709,0.42404 0.59638,1.07224 0.59638,1.94253 0,0.82101 -0.19929,1.44354 -0.60086,1.8655 -0.40157,0.42265 -0.89868,0.63363 -1.49507,0.63363 -0.6031,0 -1.10544,-0.21098 -1.50477,-0.63085 -0.39858,-0.42057 -0.59862,-1.05629 -0.59862,-1.90437" /><path
         inkscape:connector-curvature="0"
         id="path5612"
         style="fill:#2b2929;fill-opacity:1;fill-rule:nonzero;stroke:none"
         d="m 107.43807,684.97816 c -0.45009,-0.35464 -0.88152,-0.60379 -1.29354,-0.75092 -0.41575,-0.14505 -0.86062,-0.21792 -1.33533,-0.21792 -0.78449,0 -1.38535,0.17698 -1.80707,0.5337 -0.41949,0.35602 -0.63072,0.81199 -0.63072,1.36442 0,0.32619 0.0776,0.62253 0.23885,0.89111 0.15824,0.26928 0.36649,0.48442 0.62325,0.64612 0.25901,0.1624 0.54787,0.28594 0.87182,0.36922 0.23586,0.0576 0.59414,0.1152 1.07334,0.16864 0.97706,0.10896 1.69735,0.23666 2.15788,0.38795 0.005,0.15338 0.007,0.25193 0.007,0.29218 0,0.45874 -0.1142,0.78284 -0.3441,0.96815 -0.30677,0.25609 -0.76731,0.3817 -1.37564,0.3817 -0.56876,0 -0.989,-0.0916 -1.26144,-0.27691 -0.27095,-0.18599 -0.47024,-0.51426 -0.60086,-0.98549 l -1.18083,0.15129 c 0.10749,0.46915 0.28439,0.85086 0.52921,1.13887 0.24557,0.2901 0.60385,0.51426 1.06887,0.66972 0.46576,0.15546 1.00467,0.23458 1.61971,0.23458 0.60982,0 1.10246,-0.068 1.48388,-0.20057 0.38067,-0.13464 0.66057,-0.30051 0.8412,-0.50316 0.17914,-0.20265 0.30305,-0.45666 0.3762,-0.76549 0.0396,-0.19155 0.0597,-0.53786 0.0597,-1.03616 l 0,-1.49976 c 0,-1.04656 0.0254,-1.70795 0.0784,-1.98278 0.0508,-0.27761 0.15302,-0.54411 0.30529,-0.79742 l -1.26443,0 c -0.12316,0.23249 -0.20601,0.50524 -0.24034,0.81893 z m -0.10152,2.51162 c -0.43963,-0.16795 -1.09872,-0.30952 -1.97426,-0.42612 -0.49786,-0.0666 -0.85091,-0.14088 -1.05543,-0.22416 -0.20601,-0.0833 -0.36649,-0.20474 -0.47696,-0.36713 -0.11196,-0.15963 -0.16944,-0.3366 -0.16944,-0.533 0,-0.30051 0.12391,-0.54966 0.36649,-0.75023 0.24333,-0.19849 0.60087,-0.29912 1.07185,-0.29912 0.46502,0 0.88077,0.0944 1.24278,0.28385 0.36201,0.19016 0.63072,0.44972 0.80016,0.77868 0.13062,0.25332 0.19481,0.62877 0.19481,1.1236 l 0,0.41363" /><path
         inkscape:connector-curvature="0"
         id="path5614"
         style="fill:#2b2929;fill-opacity:1;fill-rule:nonzero;stroke:none"
         d="m 115.09105,686.59035 1.18829,-0.14575 c -0.12838,-0.76063 -0.46128,-1.35817 -0.99721,-1.78846 -0.53518,-0.43098 -1.19351,-0.64682 -1.97277,-0.64682 -0.97482,0 -1.76154,0.29704 -2.35344,0.88972 -0.59415,0.59269 -0.89197,1.44355 -0.89197,2.55257 0,0.71622 0.12838,1.34361 0.38291,1.88077 0.25677,0.53717 0.64416,0.94039 1.16739,1.20897 0.52025,0.26927 1.08977,0.40322 1.70183,0.40322 0.77552,0 1.41072,-0.18322 1.90111,-0.54827 0.49338,-0.36436 0.80986,-0.8807 0.94944,-1.5525 l -1.17635,-0.16865 c -0.1127,0.44625 -0.30976,0.78077 -0.59414,1.00701 -0.28438,0.22417 -0.62848,0.3366 -1.03229,0.3366 -0.60982,0 -1.10469,-0.20265 -1.48611,-0.60934 -0.37993,-0.40531 -0.57026,-1.04726 -0.57026,-1.92588 0,-0.8918 0.18287,-1.54001 0.55234,-1.94531 0.36724,-0.40253 0.84644,-0.60518 1.4376,-0.60518 0.47546,0 0.86957,0.13672 1.18829,0.40738 0.31872,0.27067 0.521,0.68638 0.60534,1.24992" /><path
         inkscape:connector-curvature="0"
         id="path5616"
         style="fill:#2b2929;fill-opacity:1;fill-rule:nonzero;stroke:none"
         d="m 117.32059,692.02375 0,1.29433 1.21068,0 0,-1.29433 -1.21068,0 z m 0,-7.86452 0,6.63404 1.21068,0 0,-6.63404 -1.21068,0" /><path
         inkscape:connector-curvature="0"
         id="path5618"
         style="fill:#2b2929;fill-opacity:1;fill-rule:nonzero;stroke:none"
         d="m 125.00194,684.15923 0,0.83767 c -0.45233,-0.65862 -1.11664,-0.98758 -1.99517,-0.98758 -0.56876,0 -1.092,0.14505 -1.56896,0.43723 -0.47696,0.2901 -0.84643,0.69748 -1.10992,1.22215 -0.26199,0.52259 -0.39261,1.12152 -0.39261,1.80235 0,0.66069 0.11943,1.2624 0.35529,1.80165 0.23885,0.53924 0.59415,0.95357 1.06887,1.2388 0.47472,0.28802 1.00691,0.43307 1.59434,0.43307 0.42919,0 0.8121,-0.0854 1.14649,-0.25401 0.33738,-0.16795 0.61057,-0.38795 0.82106,-0.65862 l 0,3.28614 1.20247,0 0,-9.15885 -1.12186,0 z m -3.82314,3.31182 c 0,-0.85155 0.19258,-1.48657 0.57773,-1.90645 0.38515,-0.42057 0.83972,-0.63155 1.36444,-0.63155 0.52772,0 0.97706,0.20265 1.34654,0.60379 0.36947,0.40044 0.55533,1.01464 0.55533,1.83982 0,0.90846 -0.1881,1.57402 -0.56429,1.99875 -0.37619,0.42612 -0.83972,0.6371 -1.39281,0.6371 -0.53667,0 -0.98601,-0.20473 -1.34578,-0.61212 -0.36052,-0.40669 -0.54116,-1.05142 -0.54116,-1.92934" /><path
         inkscape:connector-curvature="0"
         id="path5620"
         style="fill:#2b2929;fill-opacity:1;fill-rule:nonzero;stroke:none"
         d="m 127.54273,686.13993 1.19501,0.17489 c 0.0664,-0.44555 0.25453,-0.787 0.56205,-1.02574 0.30528,-0.23666 0.73447,-0.35603 1.28682,-0.35603 0.55533,0 0.9681,0.10688 1.23606,0.31508 0.26871,0.21167 0.40381,0.45874 0.40381,0.74051 0,0.25609 -0.11942,0.45458 -0.35753,0.60171 -0.1657,0.0999 -0.57847,0.22555 -1.23606,0.37962 -0.88525,0.2082 -1.50253,0.38795 -1.84439,0.54133 -0.34186,0.15129 -0.6031,0.36227 -0.78001,0.63085 -0.17615,0.26859 -0.26572,0.56562 -0.26572,0.88972 0,0.29635 0.0731,0.56909 0.22019,0.82102 0.14406,0.25331 0.3441,0.4629 0.59415,0.62877 0.1881,0.1277 0.44486,0.23944 0.76806,0.32896 0.32544,0.0888 0.67401,0.13395 1.04573,0.13395 0.55981,0 1.05095,-0.077 1.47491,-0.22625 0.42396,-0.14921 0.73596,-0.35186 0.93824,-0.60795 0.20153,-0.25748 0.33888,-0.59893 0.41501,-1.02783 l -1.18157,-0.1513 c -0.0545,0.34146 -0.21049,0.60796 -0.46801,0.7995 -0.25676,0.19224 -0.62101,0.28802 -1.09125,0.28802 -0.55534,0 -0.95168,-0.0847 -1.1883,-0.2554 -0.2381,-0.17072 -0.35753,-0.37129 -0.35753,-0.59962 0,-0.14644 0.05,-0.27691 0.14854,-0.3942 0.0993,-0.12215 0.25303,-0.22 0.46352,-0.30051 0.12167,-0.0409 0.47771,-0.13672 1.06887,-0.28593 0.85539,-0.21306 1.45177,-0.38587 1.78915,-0.52259 0.33962,-0.13464 0.60534,-0.33243 0.79792,-0.5906 0.19257,-0.25817 0.28886,-0.57811 0.28886,-0.9619 0,-0.37546 -0.11868,-0.72732 -0.35305,-1.05975 -0.23587,-0.33035 -0.57549,-0.58644 -1.01811,-0.76758 -0.44263,-0.18183 -0.94496,-0.27136 -1.50477,-0.27136 -0.92854,0 -1.63465,0.17906 -2.12131,0.53786 -0.48666,0.35811 -0.79568,0.88903 -0.92929,1.59275" /><path
         inkscape:connector-curvature="0"
         id="path5622"
         style="fill:#2b2929;fill-opacity:1;fill-rule:nonzero;stroke:none"
         d="m 39.2382,684.15923 1.30302,0 0,9.15934 -1.30302,0 0,-9.15934 z" /><path
         inkscape:connector-curvature="0"
         id="path5624"
         style="fill:#2b2929;fill-opacity:1;fill-rule:nonzero;stroke:none"
         d="m 42.8389,684.15923 0,9.15885 3.39246,0 c 0.76582,0 1.351,-0.0451 1.75481,-0.13186 0.56355,-0.11937 1.04573,-0.33937 1.44432,-0.65515 0.51875,-0.40946 0.90838,-0.92997 1.16515,-1.56499 0.25975,-0.63571 0.38813,-1.36095 0.38813,-2.17711 0,-0.6954 -0.0873,-1.31168 -0.26423,-1.84954 -0.17466,-0.53716 -0.39634,-0.98271 -0.67177,-1.33458 -0.27319,-0.35186 -0.57101,-0.62946 -0.89719,-0.83003 -0.3232,-0.20196 -0.71506,-0.35603 -1.17411,-0.46013 -0.46128,-0.1048 -0.98825,-0.15546 -1.5824,-0.15546 l -3.55517,0 z m 1.30324,1.08057 2.10265,0 c 0.64938,0 1.16067,0.0555 1.53015,0.16865 0.36947,0.11312 0.66282,0.27136 0.88301,0.47539 0.30901,0.28594 0.5501,0.67389 0.72253,1.15831 0.17167,0.4858 0.259,1.07294 0.259,1.76556 0,0.95773 -0.17018,1.69338 -0.50681,2.20695 -0.33962,0.51635 -0.75015,0.85988 -1.23383,1.03477 -0.34857,0.12562 -0.91286,0.18738 -1.6854,0.18738 l -2.0713,0 0,-6.99701" /><path
         inkscape:connector-curvature="0"
         id="path5626"
         style="fill:none;stroke:#2b2929;stroke-width:0.11557876;stroke-linecap:butt;stroke-linejoin:miter;stroke-miterlimit:22.92560005;stroke-opacity:1;stroke-dasharray:none"
         d="m 34.45966,680.82104 119.6278,0" /><path
         inkscape:connector-curvature="0"
         id="path5628"
         style="fill:none;stroke:#2b2929;stroke-width:0.11557876;stroke-linecap:butt;stroke-linejoin:miter;stroke-miterlimit:22.92560005;stroke-opacity:1;stroke-dasharray:none"
         d="m 34.45966,696.54245 119.6278,0" /><path
         inkscape:connector-curvature="0"
         id="path5630"
         style="fill:none;stroke:#2b2929;stroke-width:0.11557876;stroke-linecap:butt;stroke-linejoin:miter;stroke-miterlimit:22.92560005;stroke-opacity:1;stroke-dasharray:none"
         d="m 34.45966,592.21259 119.6278,0" /></g><flowRoot
       xml:space="preserve"
       id="flowRoot5316"
       style="font-size:4px;font-style:normal;font-weight:normal;line-height:125%;letter-spacing:0px;word-spacing:0px;fill:#000000;fill-opacity:1;stroke:none;font-family:Sans"><flowRegion
         id="flowRegion5318"><rect
           id="rect5320"
           width="2.2854874"
           height="43.424259"
           x="725.64221"
           y="448.52689" /></flowRegion><flowPara
         id="flowPara5322" /></flowRoot></g></svg>